<?xml version="1.0" standalone="no"?>
<!DOCTYPE svg PUBLIC "-//W3C//DTD SVG 1.1//EN" "http://www.w3.org/Graphics/SVG/1.1/DTD/svg11.dtd">
<svg xmlns="http://www.w3.org/2000/svg">
<metadata>Generated by Fontastic.me</metadata>
<defs>
<font id="untitled-font-1" horiz-adv-x="512">
<font-face font-family="untitled-font-1" units-per-em="512" ascent="480" descent="-32"/>
<missing-glyph horiz-adv-x="512" />

<glyph unicode="&#97;" d="M267 313c-9 0-17-2-25-7-7-5-14-12-19-20-5-8-10-16-13-26-2-10-4-20-4-29 0-10 2-18 6-24 4-6 11-9 20-9 5 0 9 1 14 4 4 2 9 5 13 10 5 4 9 8 13 14 4 5 8 11 11 16l11 61c-4 3-8 6-12 8-4 1-9 2-15 2z m-11 199c-141 0-256-115-256-256 0-141 115-256 256-256 141 0 256 115 256 256 0 141-115 256-256 256z m164-321c-12-12-25-21-41-28-15-7-32-11-49-11-8 0-14 1-21 3-6 1-11 4-16 8-4 4-7 8-9 15-2 6-3 13-2 23l-2 0c-4-7-9-13-14-19-5-5-11-11-17-15-6-5-13-8-20-11-7-3-15-4-24-4-7 0-14 2-21 5-6 3-12 7-16 13-5 5-9 12-11 20-3 8-5 17-5 26 0 19 3 36 9 53 6 18 14 33 24 46 10 13 22 24 35 32 14 8 28 12 43 12 10 0 19-2 26-5 7-3 13-7 19-12l14 14 31 0-21-119c-3-14-3-24-1-30 3-6 7-9 15-9 8 0 15 2 23 5 7 4 13 9 19 16 6 8 11 17 15 28 3 11 5 25 5 40 0 22-4 41-11 56-7 16-17 29-30 39-13 10-28 17-45 22-17 5-36 7-56 7-23 0-44-4-64-12-20-9-37-20-51-34-15-15-26-32-34-52-8-19-13-41-13-64 0-23 4-43 11-62 7-18 17-33 30-46 13-13 29-23 49-30 19-6 42-10 67-10 9 0 18 1 29 3 11 2 21 5 30 9l13-42c-12-6-24-10-36-12-13-3-27-4-43-4-29 0-55 4-79 13-25 8-46 20-63 36-18 16-32 36-42 60-10 24-15 52-15 83 0 32 6 61 17 87 12 26 27 48 46 66 20 18 42 32 68 42 25 10 52 15 81 15 27 0 52-4 75-12 23-8 43-19 60-33 17-15 31-33 40-54 10-21 15-45 15-71 0-19-3-37-10-53-7-16-16-31-27-43z"/>
<glyph unicode="&#98;" d="M512 510l0-509-31 0-13 14-14-14-28 0-13 14-14-14-28 0-13 14-14-14-28 0-14 14-13-14-28 0-14 14-13-14-34 0 0 203-50 36 50 49 0 221 35 0 12-13 13 13 30 0 12-13 13 13 30 0 13-13 12 13 30 0 12-13 13 13 30 0 13-13 12 13z m-13-496l0 483-13 0-18-18-18 18-20 0-18-18-17 18-20 0-17-18-18 18-20 0-17-18-18 18-20 0-18-18-17 18-17 0 0-218 39-57-32-32-7 5 0-181 15 0 19 20 20-20 16 0 19 20 20-20 16 0 19 20 20-20 16 0 19 20 20-20 16 0 19 20 20-20z m-46 148c5 3 10-5 5-8-15-8-29-16-46-20-2 0-5 1-5 3-1 5-2 10-2 15-16-6-30-17-46-21-2-1-5 0-5 3-2 5-3 11-4 17-13-6-25-12-38-18-5-2-10 6-4 8 14 6 28 13 43 20 2 1 5 0 6-3 1-6 3-12 4-17 16 5 30 16 46 21 3 1 5-1 5-4 1-5 2-9 3-14 14 4 26 11 38 18z m-189-44l185 0 0-18-185 0z m154 245l-33 0c-1 8-2 13-4 17-3 6-9 9-17 9l0-48c20-7 33-13 40-18 11-9 17-21 17-37 0-21-8-37-24-46-9-6-20-10-33-11l0-25-13 0 0 25c-16 2-28 6-37 11-14 10-21 26-21 49l34 0c1-10 3-17 5-21 3-6 10-9 19-11l0 54-10 3c-16 5-27 11-34 20-6 8-10 18-10 30 0 8 2 15 4 21 3 7 6 12 11 17 6 6 13 10 20 12 4 2 11 3 19 3l0 17 13 0 0-17c13-1 24-4 32-10 14-9 21-24 22-44z m-32-81c0 7-3 13-8 17-2 3-7 5-14 8l0-50c6 1 11 3 14 5 5 4 8 11 8 20z m-35 63l0 44c-7 0-12-2-16-6-3-3-5-9-5-15 0-7 3-13 8-17 3-2 7-4 13-6z m-62-162c-3-24 15-49 16-49-18 21-50 22-50 22l-26 35 22 22z m-11-10c0 4-3 7-7 7-3 0-5-2-6-5 0 0 0 0 0-1 0 0-1-1-1-1 0 0 1-1 1-1 0 0 0 0 0 0 0 0 0 0 0-1 0 0 0-1 0-1 0-1 1-1 1-1 0-1 1-1 1-1 0-1 1-1 1-1 0 0 1 0 1-1 1 0 1 0 2 0 0 0 0 0 0 0 0 0 0 0 1 0 0 0 0 0 0 0 1 0 1 0 1 0 1 0 1 0 1 0 1 1 1 1 2 1 0 1 0 1 0 1 1 0 1 1 1 1 0 0 1 1 1 2 0 0 0 0 0 0 0 1 0 1 0 2z m-81 128l-55-55-135 160 32 32z m-166 140l-30-29c0 0-1 29 30 29z"/>
<glyph unicode="&#99;" d="M294 161l-76 0 0-64-29 0 0-31 134 0 0 31-29 0z m-294 285l0-274 398 0 0 20-383 0 0 238 482 0 0-238-26 0 0-20 41 0 0 274z m409-212c5 0 10-5 10-11l0-6 31 0 0 6c0 6 5 11 11 11 6 0 10-5 10-11l0-25 21 0 0 227-472 0 0-227 378 0 0 25c0 6 5 11 11 11z m-291 15l-4 0-20 97-20-97-4 0-18 121 8 0 13-94 19 94 4 0 19-94 13 94 8 0z m67 16c-1-3-3-6-5-9-2-2-5-4-8-6-3-1-6-2-10-2-4 0-8 1-12 3-4 2-8 5-11 7l4 7c2-2 6-4 9-6 3-2 7-3 10-3 5 0 9 2 12 6 3 3 5 8 5 15 0 3-1 6-2 9-1 3-2 5-4 8-1 3-3 5-5 8-2 2-5 5-7 7-3 3-5 5-7 8-3 3-5 5-6 8-2 3-4 6-5 9-1 3-1 7-1 11 0 4 0 7 1 11 2 3 3 6 5 8 3 3 5 4 8 6 3 1 6 2 9 2 5 0 9-1 12-3 3-2 6-4 9-6l-4-7c-3 2-5 4-8 6-2 1-5 2-9 2-5 0-8-2-11-5-3-4-4-8-4-14 0-3 0-6 1-9 1-2 3-5 4-7 2-3 4-5 6-8 2-2 4-4 7-7 2-2 4-5 7-8 2-2 4-5 6-8 2-3 3-6 4-10 1-3 2-7 2-11 0-4-1-8-2-12z m51 98l-31 0 0-47 28 0 0-8-28 0 0-58-9 0 0 120 40 0z m63-113l-1 90-21-64-3 0-21 64-1-90-8 0 2 120 4 1 26-77 25 77 4-1 2-120z m40 40l-23 0 0 8 23 0z m49 73l-31 0 0-47 29 0 0-8-29 0 0-58-8 0 0 120 39 0z m8-113l3 120 3 1 26-77 26 77 3-1 3-120-9 0-1 90-21-64-2 0-22 64-1-90z m65-19c-4 0-8-4-8-8l0-8-37 0 0 8c0 4-3 8-7 8-5 0-8-4-8-8l0-142c0-5 3-8 8-8 4 0 7 3 7 8l0 11 37 0 0-11c0-5 4-8 8-8 4 0 8 3 8 8l0 142c0 4-4 8-8 8z m-8-124l-37 0 0 11 37 0z m0 27l-37 0 0 10 37 0z m0 26l-37 0 0 13 37 0z m0 29l-37 0 0 10 37 0z"/>
<glyph unicode="&#100;" d="M322 299c-7-7-4-16-4-16 5-3 12-1 9 6-4 8 5 8 7 13 1 6-4 3-12-3z m8-83c4-5 5 0 8 6 2 6-3 19-8 18-5-1 1-8 1-8 1-8-4-11-1-16z m70-7c0 0-11-11-10-20 0-9-12-5-14-19-2-13 5 0 7 2 2 1 7 5 10 8 3 3 0 17 7 24 7 6 2 4 0 5z m56 56c6 0 7 24 3 31-5 8-4 0-4 0 0 0-5-31 1-31z m-247-98c6-1-2 9-5 15-2 6 0 16-5 15-6 0-2-14-2-14 0-5 5-14 12-16z m294 101c-9 42-28 49-28 49-19 36-33 40-43 53-10 13-21 28-37 30-15 2-18 12-30 17-13 6-36 9-36 9-18 13-39 3-39 3-37 7-38-8-48-9-11-1-18 10-33 6-16-5-35-17-35-17-36 1-25-16-38-16-12 0-40-8-46-21-7-14-14-7-30-23-15-17-18-29-18-29-3-10-11-15-11-15-22-25-20-52-20-52-17-18-9-38-9-38 11-16 10-33 10-33 18-54 76-52 86-56 10-3 26-3 26-3 5-13 19-25 19-25 11 0 61-19 75-19 15 0 36 8 36 8 53-2 75 21 75 21 33-4 27 9 39 9 11 0 30 4 36 13 7 8 15 9 25 16 11 7 23 16 39 9 15-7 23-1 23-1 31 35 21 72 12 114z m-170 138c0 0-6 9 10 5 17-4 23-8 34-15 10-8 16-6 19-6 2 0 1-3-5-4-5 0-12-2-25 8-12 9-19 3-22-2-2-6 1-16-6-16-6 0-10 1-4 9 0 0 3 11-1 21z m-2-68c4-3-4-8-4-8-6-1-9-2-18-10-8-8-18-4-22 2-4 7-7 6-7 6-5-3 3-10 3-10 3-3 8-4 8-17 0-14-21-30-24-11-2 19-10 19-12 35-2 15 12 45 32 51 19 6 47-3 41-9-5-7-1-26 3-29z m-90 63c8 5 13 23 43 17 0 0 13-3 9-14 0 0-5-9 3-9 7 0 14 10 7 19 0 0-5 7 6 6 10 0 19-11 19-25 0 0 3-14-13-7 0 0-17 5-27-1-10-7-17-7-26-4 0 0-4-5 2-6 0 0 11-5 5-6-6-1-15-3-12-19 0 0-5-6-10 6 0 0-1 6-3 8-3 3-7-2-3-11 4-8 7-9 6-18 0-10 2-23 8-32 6-10 3-16 5-20 3-3 17-12 14-23-3-11-8-22-22-22-15 0-19-7-29-10-9-2-32 4-32 44 0 0 1 16-11 39 0 0-2 15 4 19 0 0 3 15-6 16 0 0-3-3-1-7 2-3 1-7-2-10-3-3-1-11-3-11 0 0-7-1-2 18 0 0-3 17 6 21 8 4 18 9 27 30 0 0 18 15 25 1 0 0 3-8-5-19-7-12-7-14-6-21 0 0-13-11-13-18-1-6-1-18 6-24 0 0 0-24 6-34 6-11 7-17 17-16 0 0 3 2-8 10 0 0-6 3-9 40 0 0-13 17 4 31 0 0 8 9 8 18 0 0 1 11 8 15 0 0-3 24 5 29z m-176-139c0 0-12-19-14-2 0 0 14 20 24 20 10 0 21-18 16-38 0 0-4-13 5 1 0 0 5 12 3 18 0 0 5 2 15-14 10-16 19-19 28-20 10-2 17-14 17-19 0-5-11-1-21 3-11 4-18 16-42 10-24-6-39 25-22 38 0 0-1 9-9 3z m73-25c-18 10-30 25-17 26 12 0 6-7 14-7 9-1-5 8-7 16-3 8-3 26-3 28 0 3-6 6-5-6 0-13 1-34-19-25 0 0-13 3-9 24 0 0-1 6-5 1 0 0 1-6-10-3 0 0-15-1-19-12 0 0-7-9-4 2 0 0 6 18 14 25 8 6 17 15 23 24 0 0 5 5 11-2 6-7 12-8 7-25-4-16-4-22 1-15 5 6 7 30 21 31 14 1 16-3 11-15-4-12 0-16 4-5 5 10 6 25 23 15 0 0 6-9-2-17-9-9-13-31-13-42 0-11 3-29-16-18z m-2 96c0 0 3-9-9-5 0 0-3-5-7-8 0 0-8 11-15 16 0 0-8 2-6 5 0 0 10 18 24 18 0 0 4 1 4-13-1-13 6-4 9-13z m36-43c6 7 11 2 10-6-1-7 1-20 7-38 6-17-2-21-2-21-4-12 5-4 5-4 2 5 8 11 8 11 12-3 1-17 1-17-21-11-35 0-35 0-16 27 6 75 6 75z m5 111c7-1 13 4 13 4 9 9 28 11 38 7 11-5 4-12 4-12-22 8-31-2-36-6-5-5-1-17-19-23-18-6-17-19-15-27 2-8-5-33-16-13-12 20-12 9-12 25 1 15 19 10 19 10 15 1 15 12 16 21 0 8 8 14 8 14z m-100-53c1 2-1 4 8 5 10 1 12 9 12 9 16 24 47 22 47 22 2 5 10 12 10 12 9 6 11 1 11 1-4-1-4-7-4-7 2-15-9-15-9-15-13 1-25-6-25-6-41-13-29-26-40-31-10-5-10 10-10 10z m-31-48c0 0 9 7 9 22 0 0 6 14 14 18 0 0 0-12 10-9 0 0 1-5-7-10-8-6-17-13-19-21 0 0-6-5-9-18 0 0-5-8-20-12 0 0 5 19 22 30z m-7-32c11 3 7-3 7-3-4-2-9-11-9-11-15-8-7-23-7-23-1-21-14-11-14-11-7 35 23 48 23 48z m-13-75c0 0-1 8-6 11 0 0-4 7 8 7 0 0 14 4 13 13 0 0-4 8-3 14 0 0-1 11 8 13 10 1 14-10 13-18 0-8 12-16 20-16 8 0-1-8-11-13-10-4-12-11-35-5 0 0-3-16 34-5 0 0 9 3 13 8 0 0-2-16 4-24 6-7-10-30-47-11 0 0-14 7-11 26z m70-47c-1-16-36-4-48 8 0 0 16-8 34 1 0 0 14 8 14-9z m34-1c-2-7-5-10-15-10-10 0-16 1-12 14 0 0 10-2 18 1 0 0 11 2 9-5z m-35 16c-6 7-2 22-2 22-14 20 1 31 1 31 27 4 26-8 46-12 21-4 13-8 13-8-15-8-35-6-42-4-7 2-15 1-7-4 9-5 29-4 29-4 9 4 8-5 8-5-6-1-6-11-6-11-7-16-40-5-40-5z m309-11c-7-13-19-23-30-23-10 0 4 7-7 13 0 0-5 5-5-1 0 0 6-6 0-11-7-5-11-11-46-12 0 0-15 1-39 26 0 0-6 11-10 14 0 0-3-1-1-5 0 0 3-9-2-10-5-1-30-2-37-18 0 0-2-6 9 1 11 7 14 11 27 11 14-1 14-7 24-14 10-7 24-13 4-18-19-5-31 2-51-8-19-10-26-6-28-3-2 2 0 8 9 9 9 0 27 3 27 9 1 7-1 11-3 9-2-2 0-10-8-10-7 1-24 1-33-4-8-5-19-7-33 2-14 9-24-15-34 29 0 0 0 16 8 22 0 0 1 8-1 11 0 0 3 16 20 22 0 0 6 17 33 10 0 0 12-1 15 14 0 0 5 9 23 10 0 0 6 1 12 7 0 0 9 1 15-3 5-3 7 7 10 10 0 0 4 11 17 2 13-9 14-26 21-32 8-5 6 3 3 7-3 4-10 21-12 25-1 3-1 18 12 18 0 0 7 4 21-5 13-9 27-13 33-12 0 0 7 3-3 5-10 1-22 12-25 14-4 2-2 10 4 12 5 2 14 27 26 28 0 0 5 1 8 3 0 0 2 4-3 3 0 0-4 10-3 18 0 9-11 31-19 31 0 0-3-2 1-6 3-5 14-20 9-40 0 0 0-5-6-7 0 0-5-18-20-21-14-3-4-14-14-16-10-1-14 6-24-6 0 0-7-16-13-6-7 9 5 27 9 34 4 6 9 22 27 25 0 0 5-2 8 9 3 10 18 7 20 3 1-5 5-12 6-3 0 0-1 11-10 13-9 2-12 16-9 24 2 8 11 9 29 4 0 0 8-8 14-8 7 0 2 5-1 7-3 1-10 9-25 13-8 2 3 16 14 8 0 0 16-8 30-4 0 0 16 2 21-10 0 0-1-2-8-2-6 0-7-3-10-3-4 0-1 4-14 9-13 5-6-3-2-6 3-2 15-7 14-18-1-12-14-21-14-42 0-22 3-40 7-40 5 0 1 3 0 13 0 10-3 35 5 38 8 3 16 3 13 8 0 0-7 1-11 0 0 0-3 1 5 9 8 9 0 18 10 23 9 5 19-1 19-5-1-4-9-2-11-11-2-9-9-24 3-44 0 0 3-23 1-27 0 0 4-5 7 13 4 18-6 25-8 34-2 9 2 25 8 25 5 0 10 4 22-17 12-20 14-21 14-38-1-17 1-23 6-27 2-3-3-13-8-8 0 0-15 9-22 3 0 0-4 2 1 8 0 0 4 46-7 45-10-1 6-2 1-34-6-33-24-43-32-42-7 0-9-2-2 14 7 16 13 48 5 47-4-1-3-3-3-10 0-8-2-34-14-44-12-10-9 4-13 10-5 5-11 22-31 20 0 0-2-5 4-6 7 0 22-10 22-21 0-12-1-11-10-17-8-5-18-14-21-27-4-13-26-20-46-18-21 3-11 15-12 23-1 9-2 19-8 14 0 0 0-2 2-9 1-7-5-3-5-11-1-8-3-16-16-8-12 8-4 6-3 21 1 15-12 20-10 13 3-7 5-8 2-18-4-11 3-15-4-22-7-8-22-16-33-19-12-3-10-14-21-15-11-1-6 13-15 13 0 0-6 1-3-5 4-6 13-10 7-17 0 0-7-7-21-6 0 0-5-6 9-4 15 2 22 8 35 21 0 0 11 7 26 11 16 4 18 13 31 14 12 2 20 3 34-3 0 0 11-2 23-2 0 0 4-1 4-10 0-8 15-13 19-16 4-3-1-21 3-22 3-2 6-2 6 9 0 11 3 14 14 16 10 2 28 8 39 5 0 0 6 4-5 7-12 2-24-5-34-6-10-1-30-9-33 13-3 23 31 11 43 19 0 0 4 4-4 4-7 0-17 0-20-3 0 0 0 2 6 11 5 9-1 12 9 18 10 5 20 11 26 12 6 1 21-5 21-16 0-12 2-50-6-63z m39 18c-8 5-8 18-8 28 0 11-7 6-7-1-1-8-2-22 2-25 3-3 3-4-2-9-5-6-8-11-14-10 0 0 6 5 3 52 0 0 2 14 15 14 12 0 15-2 14-17 0-15 2-23 5-27 2-5 1-9-8-5z m20 2c0 0-2-10-8 10 0 0-5 37 3 40 0 0 7 6 8 11 1 4-1 3-6-1-6-5-7-13-18-3 0 0-10 4-17 0 0 0-3-6-8-6 0 0-5 6 5 11 10 5 12 6 15 14 4 7 30 0 34-11 3-12 10-25 4-38-6-13-12-11-12-27z m18-6c0 0-15-5-6 15 9 19 12 3 10 45 0 0-3 13-6 16-3 3-1 10 4 11 4 0-1 15-8 20 0 0-4 29-1 30 0 0 19-17 25-85 0 0 2-46-18-52z m-170 194c-8-17-15-5-25-5-9 0-7-6-4-5 2 0 7-1 7-1 2 1 8-2 8-2 6-1 7-5 11-2 4 2 8 3 7 12 0 9-4 3-4 3z"/>
<glyph unicode="&#101;" d="M382 404c19 0 35 16 35 35l0 37c0 20-16 36-35 36-20 0-36-16-36-36l0-37c0-19 16-35 36-35z m126 47l-72 0 0-18c0-30-24-55-54-55-30 0-54 25-54 55l0 18-144 0 0-18c0-30-24-55-54-55-30 0-54 25-54 55l0 18-72 0 0-451 468 0 36 0z m-36-415l-432 0 0 288 432 0 0-288z m-343 368c20 0 36 16 36 35l0 37c0 20-16 36-36 36-19 0-35-16-35-36l0-37c0-19 16-35 35-35z m55-118l57 0 0-50-57 0z m92 0l57 0 0-50-57 0z m85 0l57 0 0-50-57 0z m-177-84l57 0 0-50-57 0z m92 0l57 0 0-50-57 0z m85 0l57 0 0-50-57 0z m-177-85l57 0 0-50-57 0z m-90 85l57 0 0-50-57 0z m0-85l57 0 0-50-57 0z m182 0l57 0 0-50-57 0z m85 0l57 0 0-50-57 0z"/>
<glyph unicode="&#102;" d="M511 233c0 10-2 19-6 28-1 2-1 4-2 7l-44 110 0 1c-16 46-38 89-94 89l-214 0c-57 0-77-44-93-89l-47-110c-6-11-10-23-10-36l0-35c0-5 0-10 2-15-2-3-2-6-2-10l0-102c0-14 12-27 27-27l56 0c15 0 27 13 27 27l0 51 293 0 0-51c0-14 12-27 27-27l53 0c15 0 27 13 27 27l0 102c0 4 0 7-2 10 2 5 2 10 2 15z m-420 135c17 50 31 65 60 65l214 0c29 0 45-17 61-65l32-66c-10 4-22 6-34 6l-336 0c-11 0-21-1-31-5z m27-183l-59 0c-10 0-19 9-19 20 0 10 9 19 19 19l59 0c11 0 20-9 20-19 0-11-9-20-20-20z m209 4l-137 0c-7 0-12 6-12 12 0 7 5 13 12 13l137 0c7 0 12-6 12-13 0-6-5-12-12-12z m124-4l-59 0c-10 0-19 9-19 20 0 10 9 19 19 19l59 0c11 0 20-9 20-19 0-11-9-20-20-20z"/>
<glyph unicode="&#103;" d="M509 405c-3 5-8 7-13 7l-370 0c-1 0-1 0-2 0l-15 44c-2 4-5 8-10 10l-77 30c-8 3-18-1-21-9-3-9 1-18 9-22l70-27 85-246c-3-1-7-4-8-8l-25-68c-1-5-1-9 2-13 2-4 7-6 11-6l13 0c-8-9-13-20-13-33 0-27 22-49 49-49 28 0 50 22 50 49 0 13-5 24-13 33l107 0c-7-9-12-20-12-33 0-27 22-49 49-49 27 0 49 22 49 49 0 13-4 24-12 33l15 0c8 0 14 6 14 14 0 7-6 14-14 14l-262 0 15 42c2-1 4-1 6-1l241 0c7 0 14 4 16 11l68 214c2 5 1 10-2 14z m-315-363c-12 0-22 10-22 22 0 12 10 22 22 22 12 0 22-10 22-22 0-12-10-22-22-22z m181 0c-12 0-22 10-22 22 0 12 10 22 22 22 12 0 22-10 22-22 0-12-10-22-22-22z m86 300l-84 0 0 37 96 0z m-24-75l-60 0 0 42 74 0z m-168 0l0 42 76 0 0-42z m76-33l0-35-76 0 0 35z m-186 75l77 0 0-42-62 0z m110 33l0 37 76 0 0-37z m-33 37l0-37-88 0-13 37z m-50-145l50 0 0-35-38 0z m191-35l0 35 50 0-12-35z"/>
<glyph unicode="&#104;" d="M217 512l-197 0c-11 0-20-9-20-20l0-197c0-10 9-19 20-19l197 0c10 0 19 9 19 19l0 197c0 11-9 20-19 20z m275 0l-197 0c-10 0-19-9-19-20l0-197c0-10 9-19 19-19l197 0c11 0 20 9 20 19l0 197c0 11-9 20-20 20z m-19-197l-158 0 0 158 158 0z m-256-79l-197 0c-11 0-20-9-20-19l0-197c0-11 9-20 20-20l197 0c10 0 19 9 19 20l0 197c0 10-9 19-19 19z m-124-197c3 6 6 13 6 20 0 22-18 39-40 39-7 0-14-2-20-5l0 50c6-3 13-5 20-5 22 0 40 17 40 39 0 7-3 14-6 20l50 0c-3-6-5-13-5-20 0-22 18-39 39-39 7 0 14 2 20 5l0-50c-6 3-13 5-20 5-21 0-39-17-39-39 0-7 2-14 5-20z m399 197l-197 0c-10 0-19-9-19-19l0-197c0-11 9-20 19-20l197 0c11 0 20 9 20 20l0 197c0 10-9 19-20 19z m-177-126l87 87 43 0-130-130z m0 87l31 0-31-31z m158-28l0-43-87-87-43 0z m0-130l-32 0 32 32z m-315 79c0-22-18-39-40-39-22 0-39 17-39 39 0 22 17 40 39 40 22 0 40-18 40-40z"/>
<glyph unicode="&#105;" d="M82 350l147 0 0-18-147 0z m0-48l147 0 0-19-147 0z m0-49l147 0 0-18-147 0z m0-49l147 0 0-18-147 0z m430 247l-512 0 0-390 512 0 0 390z m-49-341l-56 0 1-42-65 19-67-19 0 42-227 0 0 292 414 0z m-189 84l12-3 0-111 57 16 55-16 0 110 13 4 10 36 19 33-19 33-10 36-36 10-32 18-33-18-36-10-10-36-19-33 19-33z m6 94l9 29 27 7 27 15 24-14 30-8 7-27 15-27-14-25-9-29-27-7-26-15-25 14-29 8 0 0-8 27-15 27z"/>
<glyph unicode="&#106;" d="M0 465l0-418 512 0 0 418z m478-385l-444 0 0 352 444 0z m-332 189l-60-62 0-105c0-3 2-6 5-6l73 0c3 0 5 3 5 6l0 160-17 7-6 0z m147-49l-72 0c-3 0-5-2-5-5l0-113c0-3 2-6 5-6l72 0c3 0 6 3 6 6l0 113c0 3-3 5-6 5z m106 115l-13 11-48-52 0-192c0-3 2-6 5-6l73 0c3 0 5 3 5 6l0 231c0 0-1 0-1 0-3-2-6-3-9-3-4 0-9 2-12 5z m-331-120c3 0 6 1 8 3l68 71 120-44c4-2 8 0 11 3l110 120 26-22c1-1 3-1 5 0 1 0 2 2 2 4l-6 62c0 2-2 4-4 4l-63-6c-1 0-3-1-3-3 0 0 0-1 0-1 0-1 0-2 1-3l26-22-105-113-119 43c-4 2-8 1-11-2l-73-76c-4-5-4-11 0-16 2-1 5-2 7-2z"/>
<glyph unicode="&#107;" d="M480 32l0 288-224 0 0 192-224 0 0-480-32 0 0-32 512 0 0 32z m-416 448l64 0 0-64-64 0z m0-96l64 0 0-64-64 0z m0-96l64 0 0-64-64 0z m0-96l64 0 0-64-64 0z m128-160l-96 0 0 64 96 0z m32 96l-64 0 0 64 64 0z m0 96l-64 0 0 64 64 0z m0 96l-64 0 0 64 64 0z m0 96l-64 0 0 64 64 0z m64-128l64 0 0-64-64 0z m0-96l64 0 0-64-64 0z m128-160l-96 0 0 64 96 0z m32 96l-64 0 0 64 64 0z m0 96l-64 0 0 64 64 0z"/>
<glyph unicode="&#108;" d="M51 235l-37 0c-7 0-14 6-14 14 0 8 7 15 14 15l37 0 0 36c0 8 7 15 15 15 8 0 15-7 15-15l0-36 37 0c8 0 15-7 15-15 0-8-7-14-15-14l-37 0 0-36c0-9-7-15-15-15-8 0-15 6-15 15l0 36z m438-139l0 206-160 0 0 137-160 0 0-343-23 0 0-23 366 0 0 23z m-297 320l45 0 0-46-45 0z m0-68l45 0 0-46-45 0z m0-69l45 0 0-46-45 0z m0-69l45 0 0-46-45 0z m91-114l-69 0 0 46 69 0z m23 68l-46 0 0 46 46 0z m0 69l-46 0 0 46 46 0z m0 69l-46 0 0 46 46 0z m0 68l-46 0 0 46 46 0z m46-91l46 0 0-46-46 0z m0-69l46 0 0-46-46 0z m91-114l-68 0 0 46 68 0z m23 68l-46 0 0 46 46 0z m0 69l-46 0 0 46 46 0z"/>
<glyph unicode="&#109;" d="M0 125c0-13 10-23 23-23l466 0c13 0 23 10 23 23l0 178-512 0z m269 36l190 0 0-26-190 0z m-189 62l44-44-44-44-44 44z m409 187l-466 0c-13 0-23-10-23-23l0-24 512 0 0 24c0 13-10 23-23 23z"/>
<glyph unicode="&#110;" d="M254 153l-131-132c-28-28-73-29-102 0-28 28-28 74 0 102l131 131-128 129c-30 30-30 76 0 105 28 29 75 30 105 0l129-128 131 131c28 28 74 28 102 0 29-29 28-74 0-102l-132-131 129-129c30-29 29-76 0-105-30-30-76-30-105 0z"/>
<glyph unicode="&#111;" d="M490 397c-4 3-38 23-38 23 0 0 24 69 22 79-2 9-12 13-12 13l-41-75-42 18 0 27-13 12c0 0-4-32-9-39-5-8-26-22-26-22l11-11 29 15 35-24-44-73c0 0 9-11 17-6 9 4 52 59 52 59 0 0 41-23 45-24 5-1 15-7 21 6 5 13-3 19-7 22z m-65-75c-6 7-13 14-21 20l-10-11c6-6 13-12 18-19-10-6-22-12-35-17-10 29-24 53-41 70 6-3 12-5 18-8l9 13c-25 12-52 18-80 18 0 0 0 0 0 0 0 0 0 0-1 0 0 0 0 0 0 0-57 0-107-26-141-66-3-4-6-8-9-12-21-30-34-67-34-106 0-40 13-77 34-107 3-4 6-8 9-11 34-41 84-67 141-67 0 0 0 0 0 0 1 0 1 0 1 0 0 0 0 0 0 0 57 0 108 26 142 67 3 3 6 7 9 11 21 30 34 67 34 107 0 39-13 76-34 106-3 4-6 8-9 12z m-196 42c-17-16-31-40-41-69-13 5-25 11-35 17 20 24 46 42 76 52z m-85-63c12-8 25-14 40-20-6-23-10-49-10-76l-60 0c0 36 11 69 30 96z m-30-111l60 0c1-23 5-44 10-64-15-5-28-12-40-20-16 24-27 53-30 84z m39-95c11 6 22 12 35 17 10-29 24-53 41-69-30 10-56 28-76 52z m122-60c-31 4-58 36-73 82 22 6 47 10 73 11z m0 108c-27-1-54-5-77-12-5 18-8 38-9 59l86 0z m0 62l-86 0c0 26 3 50 9 71 23-7 50-11 77-12l0-59 0 0z m0 74c-26 1-51 5-73 11 16 46 42 78 73 82z m16 93c30-4 57-36 72-82-22-6-46-10-72-11z m0-108c27 1 53 5 76 12 6-22 9-46 9-71l-85 0z m0-74l85 0c-1-21-4-41-9-59-23 7-49 11-76 12l0 47z m0-155l0 93c26-1 50-5 72-11-15-46-42-77-72-82z m45 8c17 16 31 40 41 69 13-5 25-11 35-17-20-24-46-43-76-52z m85 63c-11 8-25 15-40 20 5 20 9 41 10 64l61 0c-3-31-14-60-31-84z m-30 99c0 27-4 53-10 76 15 5 29 12 40 20 20-27 31-60 31-96l-61 0z m-348 3c0 135 110 245 245 245 14 0 28-2 41-4l16 10 5 17c-18 3-43 7-62 7-151 0-275-123-275-275 0-16 1-31 3-45 7-60 83-163 143-163-65 47-116 120-116 208z"/>
<glyph unicode="&#112;" d="M278 494c0 10-10 18-22 18-12 0-22-8-22-18l0-70 44 0 0 70z m-53-87l-51 0c-13 0-27-6-27-19l0-92 103 47 7 3 7-3 93-41 0 86c0 13-6 19-19 19z m-44-271l155 0 99 110-62 28-8 4-9 4-99 45-108-50-10-5-6-3-52-23z m-139-40c8 0 18-5 26-13 10-10 22-22 45-22 23 0 35 12 45 22 8 8 14 13 27 13 12 0 18-5 26-13 10-10 22-22 45-22 23 0 35 12 45 22 8 8 14 13 26 13 13 0 18-5 27-13 10-10 22-22 45-22 23 0 35 12 45 22 8 8 18 13 26 13l0 27c-26 0-35-12-45-22-8-8-14-13-26-13-13 0-18 5-27 13-6 7-15 15-27 19-5 1-11 3-18 3-8 0-16-2-22-5-10-4-17-11-23-17-8-8-14-13-26-13-13 0-18 5-27 13-6 6-13 13-23 17-6 3-13 5-22 5-4 0-9-1-13-2-15-3-24-12-31-20-9-8-14-13-27-13-12 0-18 5-27 13-9 10-18 22-44 22l0-27z m0-61c8 0 18-5 26-14 10-9 22-21 45-21 23 0 35 12 45 21 8 9 14 14 27 14 12 0 18-5 26-14 10-9 22-21 45-21 23 0 35 12 45 21 8 9 14 14 26 14 13 0 18-5 27-14 10-9 22-21 45-21 23 0 35 12 45 21 8 9 18 14 26 14l0 26c-26 0-35-12-45-21-8-8-14-14-26-14-13 0-18 6-27 14-9 9-21 21-45 21-23 0-35-12-45-21-8-8-14-14-26-14-13 0-18 6-27 14-9 9-21 21-45 21-23 0-35-12-44-21-9-8-14-14-27-14-12 0-18 6-27 14-9 9-18 21-44 21l0-26z"/>
<glyph unicode="&#113;" d="M512 116l-512 0 25 45 79 137c14 24 37 24 51 0 0 0 19-32 21-36 10 18 66 115 66 115 14 25 37 25 51 0l112-193c5 10 11 20 15 28 10 17 27 17 37 0 10-18 27-46 37-64z"/>
<glyph unicode="&#114;" d="M370 0l0 75c0 15 12 28 28 28l58 2z m58 512l-344 0c-15 0-28-12-28-28l0-455c0-16 13-28 28-28l258 0 0 99c0 15 13 28 28 28l86 0 0 356c0 16-13 28-28 28z m-155-56c0 4 3 8 5 8l129 0c3 0 5-4 5-8l0-14c0-4-2-8-5-8l-129 0c-2 0-5 4-5 8z m139-50l0-13c0-5-2-8-5-8l-128 0c-3 0-5 3-5 8l0 13c0 4 2 8 5 8l128 0c3 0 5-4 5-8z m-204 22l32 0 0-91-32 0z m-52-30l33 0 0-62-33 0z m-51 76l32 0 0-138-32 0z m157-375c0-5-3-8-6-8l-153 0c-3 0-5 3-5 8l0 13c0 4 2 8 5 8l153 0c3 0 6-4 6-8z m147 58c0-5-5-8-11-8l-290 0c-6 0-10 3-10 8l0 13c0 4 4 8 10 8l290 0c6 0 11-3 11-8z m0 58c0-4-5-8-11-8l-290 0c-6 0-10 4-10 8l0 14c0 4 4 8 10 8l290 0c6 0 11-4 11-8z m0 58c0-5-5-8-11-8l-290 0c-6 0-10 3-10 8l0 13c0 5 4 8 10 8l290 0c6 0 11-3 11-8z m4 70c0-4-2-8-5-8l-129 0c-2 0-5 4-5 8l0 14c0 4 3 8 5 8l129 0c3 0 5-4 5-8z"/>
<glyph unicode="&#115;" d="M221 153c19-19 51-19 70 0l167 166c10 11 14 27 8 41-6 14-20 23-35 23l-69 0 0 91c0 21-17 38-38 38l-136 0c-21 0-38-17-38-38l0-91-69 0c-15 0-29-9-35-23-6-14-2-30 8-41z m283-85c0 21-17 38-37 38l-422 0c-20 0-37-17-37-38l0-31c0-20 17-37 37-37l422 0c20 0 37 17 37 37z"/>
<glyph unicode="&#116;" d="M21 311c-11-4-19-14-20-26-2-11 3-23 13-30l104-76 371 292-328-323 143-104c9-6 20-8 31-5 11 3 19 11 23 22l153 418c1 4 0 8-3 12-3 3-8 4-12 2z m72-157l1-5 20-110c2-9 7-16 15-19 8-3 17-3 24 2 28 18 65 42 64 44z"/>
<glyph unicode="&#117;" d="M442 313l-13 31c0 0 30 68 27 71l-40 39c-2 2-70-29-70-29l-32 13c0 0-27 69-31 69l-56 0c-4 0-30-69-30-69l-31-13c0 0-69 29-72 27l-40-39c-2-3 29-69 29-69l-13-31c0 0-70-27-70-31l0-55c0-4 70-29 70-29l13-30c0 0-30-68-27-71l40-39c2-2 70 29 70 29l32-13c0 0 27-69 31-69l56 0c4 0 30 69 30 69l31 13c0 0 69-29 72-27l40 39c3 3-29 69-29 69l13 31c0 0 70 27 70 31l0 55c0 3-70 28-70 28z m-104-57c0-44-37-80-82-80-45 0-82 36-82 80 0 44 37 80 82 80 45 0 82-36 82-80z"/>
<glyph unicode="&#118;" d="M412 232c55 0 100 45 100 100 0 55-45 99-100 99-55 0-100-44-100-99 0-55 45-100 100-100z m-6 91c-19 7-31 15-31 32 0 15 10 27 29 31l0 16 17 0 0-15c11 0 19-3 25-6l-5-19c-5 2-13 6-25 6-11 0-15-5-15-10 0-6 6-9 21-15 20-7 29-17 29-32 0-16-11-29-31-32l0-18-17 0 0 17c-12 0-23 3-29 7l5 20c7-4 17-7 28-7 10 0 17 3 17 10 0 7-5 11-18 15z m-112-163c-35 0-62 12-62 25l0-25c0-13 27-24 62-24 34 0 61 11 61 24l0 25c0-13-27-25-61-25z m0-32c-35 0-62 11-62 25l0-25c0-13 27-24 62-24 34 0 61 11 61 24l0 25c0-14-27-25-61-25z m0-32c-35 0-62 11-62 25l0-25c0-14 27-25 62-25 34 0 61 11 61 25l0 25c0-14-27-25-61-25z m0-32c-35 0-62 11-62 25l0-25c0-14 27-25 62-25 34 0 61 11 61 25l0 25c0-14-27-25-61-25z m0-32c-35 0-62 11-62 24l0-24c0-14 27-25 62-25 34 0 61 11 61 25l0 24c0-13-27-24-61-24z m0 210c-35 0-62-11-62-25l0-25c0-13 27-24 62-24 34 0 61 11 61 24l0 25c0 14-27 25-61 25z m0-43c-34 0-56 11-56 18 0 8 22 19 56 19 34 0 55-11 55-19 0-7-21-18-55-18z m4 21c-7 1-10 2-10 3 0 1 2 2 7 2 6 0 10-1 13-1l2 4c-3 1-7 1-12 1l0 3-8 0 0-3c-10-1-15-3-15-7 0-3 6-5 15-6 7-1 9-2 9-3 0-2-3-2-8-2-5 0-10 0-14 1l-2-4c3-1 8-1 14-2l0-3 8 0 0 4c10 0 15 3 15 6 0 4-4 6-14 7z m132-124c-34 0-61 11-61 25l0-25c0-14 27-25 61-25 35 0 62 11 62 25l0 25c0-14-28-25-62-25z m0-32c-34 0-61 11-61 25l0-25c0-14 27-25 61-25 35 0 62 11 62 25l0 25c0-14-28-25-62-25z m0-32c-34 0-61 11-61 24l0-24c0-14 27-25 61-25 35 0 62 11 62 25l0 24c0-13-28-24-62-24z m0 146c-34 0-61-12-61-25l0-25c0-14 27-25 61-25 35 0 62 11 62 25l0 25c0 13-28 25-62 25z m0-44c-34 0-55 11-55 19 0 7 21 18 55 18 34 0 56-11 56-18 0-8-22-19-56-19z m5 22c-7 1-10 2-10 3 0 1 2 2 7 2 6 0 10-1 12-1l3 4c-3 0-7 1-12 1l0 3-9 0 0-3c-9-1-14-4-14-7 0-3 6-5 15-6 6-1 9-2 9-3 0-2-3-3-8-3-5 0-10 1-14 2l-3-4c4-1 9-2 15-2l0-3 8 0 0 3c10 1 15 4 15 7 0 3-4 5-14 7z m-260 301c0-26-22-57-48-57-27 0-48 31-48 57 0 27 21 48 48 48 26 0 48-21 48-48z m117-158l-76 76c0 0 0 0 0 0-1 1-2 2-3 3-1 0-3 1-4 1 0 1 0 1 0 1-2 0-40 14-75 16l-5-9 0 0 13-100-15-26-16 26 13 100 0 0-5 9c-35-2-73-16-75-16 0-1-1-1-1-1-2-1-3-2-4-3-1 0-2-1-2-2-1-1-2-2-3-3 0-1-1-2-1-3 0-1-1-2-1-2l-30-137c-3-10 4-20 14-22 2-1 3-1 4-1 9 0 17 6 19 15l28 126c2 1 4 1 6 2l0-130-15-188c-1-12 9-23 21-24 1 0 1 0 2 0 12 0 22 9 23 21l13 170c3-2 6-2 10-2 3 0 6 0 9 2l13-170c1-12 11-21 23-21 1 0 1 0 2 0 13 1 22 12 21 24l-15 188 0 130c5-2 9-3 12-4l73-73c4-3 9-5 14-5 4 0 9 2 13 5 7 8 7 20 0 27z"/>
<glyph unicode="&#119;" d="M218 294c4 5 10 7 16 7 6 0 12-2 16-7l44-44c2-1 4-2 6-2 2 0 4 1 6 2l44 44c1 2 2 4 2 6 0 2-1 4-2 6l-44 44c-19 19-45 30-72 30-27 0-53-11-72-30l-132-132c-19-20-30-45-30-72 0-27 11-53 30-72l44-44c19-19 45-30 72-30 27 0 52 11 72 30l74 74c3 3 3 6 2 9-1 3-4 5-8 5 0 0 0 0 0 0-3 0-5 0-8 0-21 0-41 5-59 16-1 1-2 1-4 1-2 0-4-1-6-2l-47-47c-4-5-10-7-16-7-6 0-12 2-16 7l-45 44c-4 4-6 10-6 16 0 6 2 12 6 16z m264 144l-44 44c-19 19-45 30-72 30-27 0-52-11-72-30l-74-74c-3-3-3-6-2-9 1-3 4-5 8-5 0 0 0 0 0 0 3 0 5 0 8 0 21 0 41-6 59-16 1-1 3-1 4-1 2 0 4 1 6 2l47 48c4 4 10 6 16 6 6 0 12-2 17-6l44-44c9-9 9-24 0-33l-133-132c-4-5-10-7-16-7-6 0-12 2-16 7l-44 44c-2 1-4 2-6 2-2 0-4-1-6-2l-44-44c-3-4-3-9 0-12l44-44c19-19 45-30 72-30 27 0 53 11 72 30l132 132c19 20 30 45 30 72 0 27-11 53-30 72z"/>
<glyph unicode="&#120;" d="M16 16c11-10 25-16 40-16 15 0 29 6 40 16l53 54c4 4 6 9 6 14-1 5-3 9-8 12-19 15-37 32-51 51-3 5-8 8-14 8-4 0-9-2-12-6l-54-53c-21-22-21-58 0-80z m496 273c0 123-100 223-223 223-123 0-223-100-223-223 0-123 100-223 223-223 123 0 223 100 223 223z m-67 0c0-86-70-156-156-156-86 0-156 70-156 156 0 86 70 156 156 156 86 0 156-70 156-156z"/>
<glyph unicode="&#121;" d="M443 76c35 35 58 78 69 123 3 13-13 22-23 12 0 0 0 0 0 0-78-78-206-77-282 4-72 77-71 196 2 272 1 1 2 2 3 2 9 10 0 26-13 23-44-11-87-34-122-68-102-102-103-266-1-368 101-101 265-101 367 0z"/>
<glyph unicode="&#122;" d="M21 311c-11-4-19-14-21-26-1-11 4-23 13-30l105-76 371 292-328-323 143-104c9-7 20-9 31-5 11 3 20 11 23 22l153 418c2 4 1 9-2 12-4 3-8 4-13 3z m72-157l1-5 20-111c2-8 7-15 15-18 7-4 16-3 23 2 29 18 65 42 64 43z"/>
<glyph unicode="&#65;" d="M493 357l-22-22-136 136 22 22c25 25 66 25 91 0l45-45c25-25 25-66 0-91z m-317-271c-6-6-6-16 0-23 7-6 17-6 23 0l249 249-23 23z m-113 113c-6-6-6-16 0-23 7-6 17-6 23 0l249 249-23 23z m294 204l-248-249c-13-13-13-33 0-45 12-13 32-13 45 0l249 248z m-203-362c-8 7-12 17-13 27-3 0-6-1-10-1-17 0-33 7-45 19-12 12-19 28-19 45 0 3 1 6 1 9-10 2-20 6-27 14-1 1-1 2-2 2l-39-156 156 39c-1 1-2 1-2 2z"/>
<glyph unicode="&#66;" d="M178 209c11 0 18 7 19 18 0 3 0 78 0 112 0 8 9 6 9 0 0-5 1-210 1-311 0-17 8-28 22-28 15 0 23 10 23 29 0 26 1 147 1 169 0 4 6 4 6 0 0-22 0-143 0-169 1-19 9-29 24-29 14 0 22 11 22 28 0 101 1 306 1 311 0 6 9 8 9 0 0-34 0-109 0-112 1-11 8-18 19-18 10 0 18 7 18 18 1 13 0 116 0 153 0 27-14 42-41 42-9 0-101 0-110 0-27 0-41-15-41-42 0-37-1-140 0-153 0-11 8-18 18-18z m77 229c21 0 38 16 38 37 0 20-16 37-37 37-20 0-37-17-37-37 0-20 16-36 36-37z"/>
<glyph unicode="&#67;" d="M375 205c-34-34-34-68-68-68-34 0-68 34-102 68-34 34-68 68-68 102 0 34 34 34 68 68 34 35-68 137-103 137-34 0-102-102-102-102 0-69 70-207 137-273 66-67 204-137 273-137 0 0 102 68 102 102 0 35-102 137-137 103z"/>
<glyph unicode="&#68;" d="M256 88l158-88-30 185 128 131-177 27-79 169-79-169-177-27 128-131-30-185z"/>
<glyph unicode="&#69;" d="M512 256c0-141-115-256-256-256-141 0-256 115-256 256 0 141 115 256 256 256 141 0 256-115 256-256z"/>
<glyph unicode="&#70;" d="M0 0l256 512 256-512z"/>
<glyph unicode="&#71;" d="M98 0l-98 316 256 196 256-196-98-316z"/>
<glyph unicode="&#72;" d="M108 137c-9 0-16-7-16-16 0-9 7-16 16-16 9 0 16 7 16 16 0 9-7 16-16 16z m0-57c-3 0-6-2-6-5 0-3 3-6 6-6 3 0 6 3 6 6 0 3-3 5-6 5z m122-5c-8 0-16 4-24 12-6 7-12 10-18 10-6-1-11-6-13-8 6-14 20-24 36-24 11 0 21 4 28 12-2-1-5-2-8-2-1 0-1 0-1 0z m-121 105l122 47c2-1 4-2 7-2 5 0 10 4 10 10 0 5-5 10-10 10-6 0-11-5-11-10 0-1 1-1 1-1l-141-54-28 0 0-147 221 0 0 147z m-1-119c-7 0-13 6-13 14 0 7 6 13 13 13 7 0 13-6 13-13 0-8-6-14-13-14z m0 36c-13 0-24 11-24 24 0 13 11 24 24 24 13 0 24-11 24-24 0-13-11-24-24-24z m103-40c-26 0-46 21-46 47 0 25 20 46 46 46 26 0 47-21 47-46 0-26-21-47-47-47z m18 44c-8 0-16 4-23 12-6 7-12 10-18 10-8-1-14-9-14-9l0 0c-1-3-2-7-2-10 0-2 0-5 1-7 3 3 8 7 15 7 8 1 16-3 24-12 6-6 12-9 18-9 9 0 16 7 18 9 1 4 2 8 2 12 0 2 0 4 0 6-4-3-11-8-20-8 0-1-1-1-1-1z m-18 42c-12 0-22-6-29-14 1 1 3 1 6 1 8 1 16-3 23-12 6-6 12-9 18-9 10 0 18 9 18 9-5 15-20 25-36 25z m96-80l63 133 23-65c10 2 39 11 54 36 14 22 14 52 1 89l8 4c1-1 9-15 16-36 16-44 30-124-54-162l22-62z m-102 343l-63-133-23 65c-10-3-39-11-54-36-14-22-14-52-1-89l-8-4c-1 1-9 15-16 36-16 44-30 124 54 162l-22 62z m218 105c-9 5-29-14-34-24l-20-36-130-38c-3-1-5-4-4-8 0-3 3-5 6-6l95-8-37-68-49-15c-1 0-2-1-2-2 0-1 1-2 2-2l47-4c0-1 1-2 2-3l-2-3c-2-3 0-7 3-9 3-2 8-1 9 3l2 2c1 0 2 0 3 0l28-37c1 0 2-1 3 0 1 0 1 0 1 1 1 0 1 1 0 2l-14 48 38 69 58-76c2-2 6-3 9-2 1 1 2 2 3 3 0 2 1 3 0 5l-38 129 20 37c5 9 11 37 1 42z"/>
<glyph unicode="&#73;" d="M319 181c0-3 1-7 1-10 0-12 0-10 0-22 0-47-72-85-160-85-88 0-160 38-160 85 0 12 0 10 0 22 0 3 1 7 1 10 10-42 77-74 159-74 82 0 149 32 159 74z m-159-138c-82 0-149 32-159 74 0-3-1-7-1-10 0-12 0-10 0-22 0-47 72-85 160-85 88 0 160 38 160 85 0 12 0 10 0 22 0 3-1 7-1 10-10-42-77-74-159-74z m0 256c-88 0-160-39-160-86 0-47 72-85 160-85 88 0 160 38 160 85 0 47-72 86-160 86z m192-171c-4 0-7 0-11 0 0-23 0-41 0-42 4 0 7-1 11-1 88 0 160 39 160 86 0 11 0 10 0 21 0 4-1 7-1 11-10-42-77-75-159-75z m0 213c88 0 160 39 160 86 0 47-72 85-160 85-88 0-160-38-160-85 0-47 72-86 160-86z m0-21c-82 0-149 33-159 75 0-4-1-7-1-11 0-11 0-10 0-21 0-18 11-35 29-49 31-6 58-17 79-32 16-3 34-5 52-5 88 0 160 39 160 86 0 11 0 10 0 21 0 4-1 7-1 11-10-42-77-75-159-75z m0-64c-9 0-18 0-26 1 10-13 15-28 15-43 4 0 7-1 11-1 88 0 160 39 160 86 0 11 0 10 0 21 0 4-1 7-1 11-10-42-77-75-159-75z m0-64c-4 0-7 0-11 0 0-12 0-27 0-42 4 0 7-1 11-1 88 0 160 39 160 86 0 11 0 10 0 21 0 4-1 7-1 11-10-42-77-75-159-75z"/>
<glyph unicode="&#74;" d="M295 335c-3 0-6-1-7-4l-79-142c-1-3-1-6 0-9 2-2 5-4 7-4 3 0 6 2 8 5l78 142c2 2 2 6 0 8-1 3-4 4-7 4z m-52-44c0 26-15 45-41 45-26 0-43-20-43-48 0-28 18-46 42-46 22 0 42 17 42 49z m-42-29c-10 0-15 11-15 27 0 16 5 28 15 28 11 0 15-12 15-28 0-17-5-27-15-27z m111 11c-26 0-43-21-43-48 0-29 18-46 41-46 23 0 43 17 43 49 0 26-15 45-41 45z m-1-74c-10 0-16 11-15 27 0 15 4 27 15 27 11 0 15-12 15-27 0-17-5-27-15-27z m174 131c-9 26 3 62-13 83-16 21-53 22-75 37-21 16-33 52-59 60-24 8-55-14-82-14-28 0-58 22-83 14-25-8-37-44-59-60-21-15-59-16-74-37-16-21-5-57-13-83-8-25-38-47-38-74 0-28 30-50 38-75 8-25-3-61 13-82 15-22 53-22 75-38 21-15 33-51 58-60 25-8 56 14 83 14 27 0 58-21 83-14 25 9 37 45 58 60 22 16 59 16 75 38 16 21 4 57 13 82 8 25 38 47 38 75 0 27-30 49-38 74z m-229-262c-104 0-188 84-188 188 0 104 84 188 188 188 104 0 188-84 188-188 0-104-84-188-188-188z m0 352c-91 0-164-74-164-164 0-91 73-164 164-164 90 0 164 73 164 164 0 90-74 164-164 164z m0-302c-76 0-138 62-138 138 0 76 62 137 138 137 76 0 137-61 137-137 0-76-61-138-137-138z"/>
<glyph unicode="&#75;" d="M256 512l-226-120 0-9c0-254 217-378 219-379l7-4 7 4c2 1 219 125 219 379l0 9z m0-479c-35 22-193 135-197 342l197 105 198-105c-5-207-163-320-198-342z m-183 333c7-185 139-287 183-317 44 30 176 132 183 317l-183 98z m182-240c-20 0-33 14-33 33 0 19 14 33 33 33 19 0 32-14 32-33 0-19-13-33-32-33z m20 84l-41 0-8 163 57 0z"/>
<glyph unicode="&#76;" d="M499 339l-81 57c-13 9-35 16-48 16l-23 0c-1-33-42-60-91-60-49 0-90 27-91 60 0 0-10 0-23 0-13 0-35-7-48-16l-81-57c-14-9-17-27-8-40l24-35c9-13 28-18 43-11l62 30 0-155c0-16 13-29 30-29l184 0c17 0 30 13 30 29l0 155 62-30c15-7 34-2 43 11l24 35c9 13 6 31-8 40z"/>
<glyph unicode="&#77;" d="M379 0c-8 10-29 39-50 79l1 0-7 13c-11 25-22 47-29 78l-2 10c-1 3-1 5-2 8-6 35-10 59-13 90l-1 5c-4 41-6 66-6 88l-1 4c0 10 0 16 0 19 1 1 2 2 3 4 1 2 6 4 6 4l0 7-10 0 0 13c0 5-4 8-10 9l0 25-4 0 0-25c-5-1-10-4-10-9l0-13-10 0 0-7c0 0 5-2 6-4 1-2 2-3 3-4 0-3 0-9 0-19l-1-4c0-22-2-47-6-88l0-5c-4-31-8-55-14-90-1-3-1-5-2-8l-2-10c-7-31-17-53-29-78l-7-13 1 0c-20-40-42-69-50-79m109 186c5 36 8 60 10 92l8 0c2-32 5-56 10-92 0-2 0-4 1-6l-30 0c1 2 1 4 1 6z m-5-31l38 0c5-25 12-42 19-63l-76 0c7 21 14 38 19 63z m-64-155c4 6 12 19 21 36 13 19 36 31 62 31 26 0 50-15 62-31 9-17 17-30 21-36m69 493l19 19c74-74 74-194 0-268l-19 19c63 63 63 166 0 230z m-34-196l20-20c55 56 55 146 0 202l-20-20c45-45 45-118 0-162z m-15 15c36 36 36 96 0 132l-19-19c25-26 25-68 0-94z m-255-49c-63 63-63 166 0 230l-19 19c-74-74-74-194 0-268z m14 14l20 20c-45 44-45 117 0 162l-20 20c-55-56-55-146 0-202z m35 35l19 19c-25 26-25 68 0 94l-19 19c-36-37-36-96 0-132z"/>
<glyph unicode="&#78;" d="M256 460c-113 0-205-92-205-205 0-113 92-204 205-204 113 0 205 91 205 204-1 113-92 205-205 205z m63-114l45 44 26-26-44-45-27 0z m-82 81l37 0 0-63-18-18-19 18z m-153-190l0 37 63 0 19-19-19-18z m108-72l-44-44-27 26 45 45 26 0z m0 154l-26 0-45 45 27 26 44-44z m82-235l-37 0 0 63 19 18 18-18z m-18 125c-26 0-47 21-47 47 0 25 21 47 47 47 26 0 47-21 47-47 0-26-21-47-47-47z m108-88l-45 44 0 27 27 0 44-45z m0 116l-18 18 18 19 63 0 0-37z m-108 274c-141 0-256-114-256-256 0-141 115-256 256-256 141 0 256 115 256 256 0 142-115 256-256 256z m0-484c-126 0-229 102-229 229 0 126 103 228 229 228 126 0 229-102 229-228-1-127-103-229-229-229z"/>
<glyph unicode="&#79;" d="M162 168l71 0 0-16-71 0 0-14 224 0 0 14-83 0 0 16 92 0 0 38-233 0z m-62 226l340 0 0-136 29 0 0 165-398 0 0-91 29 0z m-100-299l152 0 0 228-152 0z m80 11c-4 0-8 4-8 8 0 4 4 7 8 7 4 0 7-3 7-7 0-4-3-8-7-8z m-58 195l108 0 0-168-108 0z m384-52l0-160 106 0 0 160z m55-6c1 0 2-1 2-3 0-1-1-2-2-2-1 0-2 1-2 2 0 2 1 3 2 3z m-14-8l28 0 0-2-28 0z m13-139c-3 0-6 2-6 5 0 3 3 6 6 6 3 0 5-3 5-6 0-3-2-5-5-5z m36 19c-24 0-63-1-75 0l0 110 75 0z"/>
<glyph unicode="&#80;" d="M422 88c0 4-1 7-1 11l0 294c-7 1-13 2-20 2l-290 0c-3 0-6 0-9-1l0-316c0 0 0 0 1 0 5-27 28-48 57-48 28 0 52 21 57 48l89 0c5-27 29-48 57-48 33 0 59 26 59 58z m-87-10l57 0c-5-12-16-20-29-20-13 0-24 8-28 20z m-65 160c0 3 1 5 2 7 3 7 9 12 17 12l73 0c10 0 18-8 18-19l0-1c0-10-8-19-18-19l-73 0c-10 0-19 9-19 19l0 1z m89 106c17 0 30-8 30-19 0-10-13-19-30-19-17 0-31 9-31 19 0 11 14 19 31 19z m-191 0l106 0 0-47-106 0z m-8-286c-13 0-24 8-28 20l56 0c-4-12-15-20-28-20z m38 75c-5-3-11-4-17-4-1 0-2 0-3 0-5 0-10 1-14 3-6 3-12 8-16 13-5 7-8 15-8 24 0 22 19 41 41 41 22 0 40-19 40-41 0-16-9-30-23-36z m63 101c2-14 14-25 28-25l23 0 37-34-32-36-77 71z m103 173l9 0c0 0 3 0 8 0 5 0 8 5 8 11l0 53c0 6-5 11-11 11l-237 0c-6 0-11-5-11-11l0-53c0-6 3-11 8-11l8 0c0 0 4 0 9 0 4 0 8 5 8 11l0 19c0 6 5 11 11 11l170 0c7 0 12-5 12-11l0-19c0-6 3-11 8-11z m-364-218c0-49 31-90 74-105l0 305c-43-16-74-57-74-105z m512 0l0 95c0 44-26 82-64 100l0-296c38 18 64 56 64 101z"/>
<glyph unicode="&#81;" d="M21 0l470 0c6 0 12 3 16 7 3 4 5 9 4 14-11 86-64 157-136 195-30-30-73-49-119-49-46 0-89 19-119 49-72-38-125-109-136-195-1-5 1-10 4-14 4-4 10-7 16-7z m129 265c3-3 6-6 9-8 26-23 60-38 97-38 37 0 71 15 97 38 3 2 6 5 9 8 3 3 5 6 8 9 20 25 32 57 32 92 0 80-65 146-146 146-81 0-146-66-146-146 0-35 12-67 32-92 3-3 5-6 8-9z"/>
<glyph unicode="&#82;" d="M256 468c-141 0-255-114-255-255 0-62 21-118 58-162 5 45 50 82 112 100 23-21 53-34 85-34 31 0 60 12 83 33 63-20 107-60 108-106 40 45 64 104 64 169 0 141-114 255-255 255z m0-321c-16 0-32 5-45 13-33 18-56 57-56 101 0 62 45 113 101 113 56 0 101-51 101-113 0-45-24-84-57-102-13-7-28-12-44-12z"/>
<glyph unicode="&#83;" d="M309 397c24-15 40-40 43-69 10-4 21-7 32-7 41 0 75 34 75 75 0 41-34 75-75 75-41 0-74-33-75-74z m-49-153c41 0 75 33 75 75 0 41-34 75-75 75-42 0-75-34-75-75 0-42 33-75 75-75z m32-6l-64 0c-53 0-96-43-96-96l0-77 0-2 5-1c51-16 95-21 131-21 71 0 112 20 114 21l5 2 1 0 0 78c0 53-43 96-96 96z m124 78l-63 0c-1-25-12-48-29-65 47-14 82-57 82-109l0-24c62 3 98 20 100 21l5 3 1 0 0 78c0 53-43 96-96 96z m-288 5c15 0 28 4 40 12 4 24 17 45 35 59 0 1 0 3 0 4 0 41-33 75-75 75-41 0-75-34-75-75 0-41 34-75 75-75z m68-70c-17 17-28 39-29 65-2 0-5 0-7 0l-64 0c-53 0-96-43-96-96l0-78 1-1 5-2c40-13 77-18 108-20l0 23c0 52 34 95 82 109z"/>
<glyph unicode="&#84;" d="M344 396c-93 0-168-76-168-168 0-41 14-78 38-107 4 29 33 54 74 66 15-14 35-22 56-22 21 0 40 8 55 21 41-13 70-39 71-70 26 30 42 69 42 112 0 92-75 168-168 168z m0-212c-11 0-21 3-30 9-21 12-36 37-36 66 0 41 29 75 66 75 37 0 66-34 66-75 0-29-15-55-37-67-9-5-19-8-29-8z m-293 51l-37 0c-7 0-14 6-14 14 0 8 7 15 14 15l37 0 0 36c0 8 7 15 15 15 8 0 15-7 15-15l0-36 37 0c8 0 15-7 15-15 0-8-7-14-15-14l-37 0 0-36c0-9-7-15-15-15-8 0-15 6-15 15l0 36z"/>
<glyph unicode="&#85;" d="M507 506c-16 17-73-12-89-29l-67-66-302 0c-7 0-13-5-14-12-2-8 2-15 9-17l199-79-122-123-116 0c-2 0-4-1-5-4 0-2 1-5 3-6l98-38c0-3 1-5 2-7l-4-5c-6-6-6-15 0-22 6-6 16-6 22 0l4 5c2-1 5-2 7-3l38-96c1-2 3-4 6-3 1 0 2 0 2 1 1 1 2 2 2 4l0 113 124 125 78-201c3-6 10-10 17-9 3 1 6 2 8 4 3 3 4 7 4 11l0 302 67 66c16 17 46 73 29 89z"/>
<glyph unicode="&#86;" d="M49 242l-35 0c-8 0-14 6-14 14 0 7 6 14 14 14l35 0 0 34c0 8 6 14 14 14 8 0 14-6 14-14l0-34 36 0c7 0 13-7 13-14 0-8-6-14-13-14l-36 0 0-34c0-8-6-14-14-14-8 0-14 6-14 14z m460 185c-12 12-50-9-61-20l-46-45-206 0c-5 0-9-4-10-9-1-4 1-9 6-11l136-54-83-84-79 0c-2 0-4-1-4-3 0-1 1-3 2-3l67-27c0-1 1-3 2-5l-3-3c-5-4-5-11 0-15 4-4 10-4 15 0l2 3c2-1 4-1 5-2l26-65c1-2 2-3 4-3 1 1 1 1 2 1 1 1 1 2 1 3l0 77 85 86 53-137c2-5 7-8 12-7 2 1 4 2 5 3 2 2 3 4 3 7l0 207 46 45c11 11 31 50 20 61z"/>
<glyph unicode="&#87;" d="M4 209c1-35 29-31 29-31l22-1c1 35 29 63 64 63 35 0 64-29 64-64 0 0 0 0 0-1 17 1 94 1 166 3 1 34 29 62 64 62 33 0 61-26 63-59 3 0 5 0 7 0 38 4 27 24 28 29 0 6-9 7-9 7 0 0 15 25 0 85-16 61 11 92-73 92-84 1-291-3-291-3 0 0-57-4-70-32-14-28-53-82-53-82-10-15-9-41-9-41-12-13-2-27-2-27z m164-42c0-27-22-50-49-50-27 0-50 23-50 50 0 27 23 49 50 49 27 0 49-22 49-49z m294 0c0-27-22-50-49-50-28 0-50 23-50 50 0 27 22 49 50 49 27 0 49-22 49-49z"/>
<glyph unicode="&#88;" d="M256 512c-88 0-160-72-160-160 0-153 160-352 160-352 0 0 160 199 160 352 0 88-72 160-160 160z m0-248c-48 0-86 38-86 86 0 48 38 86 86 86 48 0 86-38 86-86 0-48-38-86-86-86z"/>
<glyph unicode="&#89;" d="M163 92c90 0 163 74 163 164 0 90-73 163-163 163-90 0-163-73-163-163 0-90 73-164 163-164m0 314c16 0 32-2 46-7-4-6-5 2-6-1-1-3-5-4-6-4-1-3-3-6-5-9-2 0-4-1-5-1-1 0-2 0-2-1-2-2-4-4-6-7-2-2-3-4-5-6 0 0-1 0-1-1-1 1-2 2-3 2-2 2-3 4-4 6-1 3-2 5-2 8 0 1 0 2 0 3 1 3 2 5 3 8 1 1 1 1 0 2-2 0-4 0-6 0 0-1 1-1 1-2 0-1 1-2 2-4 0 0 0 0 0-1-2-1-4-2-5-3-2-2-3-3-5-4-1 1-2 2-3 3-2 2-1 1-4 1-2 0-3 0-5-1-1 0-2 0-3 0-1 0-1 0-2 1 0 0 0 0 0 0-1 1-1 1-2 1 0 0-1-1-1-1-1 0-2-1-2-2-1 0-2-1-3-2-1 0-3-1-4-2-1-1-1-1-1-2 0-1-1-2-1-3 0-1 0-2 1-4 0-1 2-2 3-2 2 1 4 2 6 4 1 1 2 2 3 3 0 0 0 0 0 1 0 0 1 0 1 0 1 0 1 0 2-1 1 0 2 0 3 1 0 0 1 0 1 1 1 0 1 0 2 1 0 1 1 1 2 2 2 0 3 0 4-2 1-1 2-2 3-2 0-1 1-1 1-2 1 0 1-1 1-2 0-1-1-2-1-3-1 0-1-1-2-2 0 0 0-1 0-1 0-1 0-1 1-1 0 0 1 0 1 1 1 0 1 0 1 0 0-3 0-6-2-9 0-1-1-1-1-2-1-1-3-1-4-1-1 0-2 1-3 2-2 1-4 1-5-1-1 0-1-1-2-2 0 0-1-1-1-1-3-1-7-1-10-1 0 0-1 0-1 0-2 0-5-1-7-1 0-1-1-1-2-1-1-1-3-2-4-2-2-1-3-1-5 0-5-4-10-7-16-9-1-2-1-5-1-7-1-3-1-5-2-8 0-1 0-1-1-1 0 0-1 0-2 1 0 0-1 1-1 1-1 2-1 4-1 6-1 2-2 4-4 5-3 2-7 2-10 2-5-1-10-4-13-8-3-3-3-3-4-8-1-1-1-3 0-5 0-1 2-2 3-3 1 0 2 0 3 0 1 0 4 1 4 1 1-1 1-1 2-2 0-1 1-2 0-2 0-1-1-2-1-2-1-1-3-3-4-3-1-1-1-3 0-4 1 0 1 0 1-1 1 0 1 0 1 0 0-1 0-2 0-3 0-2 0-5 0-7 0-2 1-4 3-5 1-1 2-2 4-3 1 0 1-1 2-1 3 0 5 0 7 2 0 1 1 2 1 3 2 1 3 2 5 2 1-1 2-1 3-2 1-1 2-1 3-2 1-1 3-1 4-2 1 0 1 0 2-1 4-1 8-3 10-6 1-1 2-1 2-2 4-1 8-3 11-6 4-3 7-7 9-12 0-1 1-3 2-3 1-1 1-2 2-3 1-2 2-3 3-5 0 0 0 0 0-1 1 0 2 0 2 0 5-1 9-3 13-5 2-2 4-3 5-5 1-1 1-1 1-2 0-6-2-11-7-15-1 0-1-1-2-1-1-4-2-8-4-11 0-1 0-1 0-2-2-2-4-5-6-8 0 0-1-1-2-1-1-1-1-1-2-1-3-2-5-2-8-3-1 0-1 0-2-1-1-2-3-5-5-7 0 0 0 0-1-1-1-3-3-6-5-9-1-1-1-1-2-2-3-2-6-4-9-5-1-1-1-2-2-2-2-2-3-3-4-5-1 0-1 0-1-1-2-3-3-6-4-9-1 0-1-1-1-1 1-5 2-10 3-15 0-1 0-1 0-2-1 0-1 0-2 1-2 1-4 2-6 3-3 4-6 8-9 12 0 1 0 1 0 1-1 4-1 8-2 12 0 0 0 1 0 1-1 1-1 2-1 3-1 3-1 6 0 8 0 3 1 6 1 10 0 0 0 0 0 1-1 1-1 2-1 3 0 3 0 5 1 7 0 1 0 2 0 3 1 2 1 5 2 8 0 1 0 2 0 3 0 1 0 1-1 1-1 1-2 3-2 5-1 1-1 3 0 4 0 1 0 2 0 3 0 0-1 1-1 1-3 2-5 4-7 6-1 2-3 4-5 7-1 1-1 2-2 3-1 1-1 3-1 5 0 1 0 1 0 1-1 3-1 7-1 10 0 2 1 4 2 6 1 1 2 2 2 4 2 2 3 4 5 6 1 2 2 4 2 6 0 1 1 2 1 3-1 2-1 3-3 4-1 1-3 3-4 4-1 0-2 1-2 2 0 2-1 4-1 6-1 1-1 2-2 2 0 1-1 2-2 3-1 0-1 0-1 1 0 2 0 4 0 6 0 0-1 0-1 0-3 1-5 3-7 4-1 1-2 2-3 4-1 2-2 4-1 6 0 1 0 3 0 4 0 1 0 2 1 4 0 0 0 0-1 0 0 0 1 2-3 7-1 1-1 1-1 2 27 41 73 68 126 68m78-279c4 3 6 7 4 10-1 2-1 3-1 5 0 0 1 1 1 2 1 3 2 5 3 8 2 2 3 5 4 8 1 1 1 3 1 5-1 2-1 4-2 6 0 2 0 4 1 6 1 4 3 8 6 11 1 1 2 1 2 2 2 2 2 3 3 5 1 2 1 4 1 6-1 1-1 3-2 5 0 1-1 2-1 4-1 2-1 4 0 6 0 2 1 3 1 4 0 2 1 3 2 4 0 2 1 4 0 6 0 1 0 3 0 4-1 1-1 2-3 1 0 0 0 0-1 0-2-1-2-1-3 0-1 1-2 2-3 2 0 0-1 0-2 0-3 1-6 1-9 0-2 0-4 0-6 0 0 0-1 0-2 0-1 1-3 1-5 2-2 1-5 3-7 5-4 3-8 7-12 10 0 1 0 1-1 2 0 1 0 1 0 2 0 4 0 8 1 11 1 4 2 8 3 11 0 3 1 5 1 7 0 1 0 2-1 3 0 0 0 1 0 2 0 1 1 2 2 3 2 4 5 6 9 7 1 1 2 1 3 2 1 2 3 4 4 5 1 1 1 2 2 2 3 0 5 1 7 2 3 1 5 1 7 1 4 0 8 0 12-2 0 0 1 0 1 0 3 0 5 0 7 0 2-1 4-1 6-3 3-2 6-5 9-7 2-1 2-1 4-1 4 0 7 0 10-1 0 0 1 0 1 0 0 1 0 1 0 1-1 2-1 3-2 5 0 1-1 2-2 2-1 2-3 3-5 3-1 0-2 1-2 1-2 0-3 1-4 3 0 0 0 1-1 2 0 0 0 1 0 1 0 0 0 0-1 0 0-1 0-1 0-1-1-1-1-1-1-2-1-1-2-1-3 1 0 0-1 0-1 1 0 0 0 1 0 1 0 1-1 2-1 2-1 2-1 2-2 1 0-1 0-1-1-1 0 0 0-1 0-1-2-1-3-1-4 0 0 0 0 0-1 1 0 0 0 1 0 1 0 1 0 2 0 3-1 1-1 1-1 2 0 0-1 1-1 0 0 0-1 0-1-1-1 1-1 1-2 1-2 1-4 2-6 3-1 0-1 0-2 1-1-3-1-7-2-11 0 0-1 0-1 0-2-1-3-1-5-2-3 0-6 0-8 2-2 1-3 3-4 5-1 2-3 4-4 7 0 0 0 0 0 1 0 0 1 1 2 1 3 2 6 3 10 2 0 0 1 0 1 1 1 0 1 0 1 0 1 1 3 2 4 3 1 1 2 2 3 4 1 0 1 1 1 2 0 1-1 2-1 3 0 1-1 2 0 2 0 2 0 3 0 4 0 0 0 1 0 1-2 0-4 1-5 1-1 0-2 0-2 1-1 1-1 2-2 3 0 0-1 1-1 1-1 0-2 0-4 0 0 0-1 1-1 1-1 1-2 2-2 3-1 2-1 4-1 5 0 2 0 4 0 7 1 0 1 0 2 0 0 0 0 0 1 0 0 0 1 0 1 0 0 0 1 0 1 0 1 0 1 0 1 1 0 0 4-1 5 3 0 1 0 1 0 2 42-27 70-74 70-127 0-55-29-103-73-129m128-14l142 143-142 142z"/>
<glyph unicode="&#90;" d="M256-1c141 0 256 115 256 256 0 142-115 256-256 256-142 0-256-114-256-256 0-141 114-256 256-256m0 493c25 0 49-4 71-11-6-10-7 3-9-2-2-6-7-7-9-7-3-4-5-9-8-13-3-1-6-1-9-2-1 0-2 0-2-1-3-4-7-8-10-11-2-4-5-7-8-10 0 0-1-1-1-1-2 0-4 2-5 3-3 2-4 5-6 9-2 4-3 8-3 13 0 1 0 3 0 4 2 4 4 8 5 12 1 2 1 2 0 3-3 0-6 1-9 0 0-1 0-1 0-2 1-2 2-4 3-6 0 0 0-1 1-1-3-2-6-4-8-6-3-2-5-5-7-7-2 3-3 4-6 6-3 2-2 2-6 1-2 0-5 0-8-1-1-1-3-1-4 0-1 0-2 0-3 1 0 0 0 0-1 1 0 1-1 1-2 0-1 0-2 0-2-1-2 0-3-1-4-2-1-2-3-3-4-3-2-2-5-3-7-5-1 0-1-1-1-2-1-2-1-3-1-5 0-2 0-4 0-6 1-3 4-4 6-3 4 1 7 3 9 5 2 1 4 3 4 5 1 1 1 1 1 2 1 0 1 0 2 0 1 0 1-1 2-1 2-1 3-1 5 0 1 1 2 1 2 2 1 1 2 1 3 2 1 1 2 2 3 3 3 1 5 0 6-2 1-2 3-4 5-5 1 0 1-1 2-1 1-1 1-3 1-4 0-2-1-3-2-4-1-2-1-3-2-4-1-1-1-1-1-2 0-1 1-1 1-1 1 0 2 0 3 1 1 0 1 0 2 0 0-5-1-10-4-14 0-1-1-2-1-3-2-1-4-2-7-1-2 0-3 1-5 2-3 2-5 2-8-1-1 0-1-1-2-2 0-1-1-2-2-2-5-2-10-2-15-2-1 0-2 0-3 0-3-1-6-2-10-3-1 0-2 0-3-1-2-1-5-2-7-3-3-1-5-2-7 0-8-6-17-11-26-14-1-3-1-7-2-10-1-5-1-9-2-13 0-1 0-2-1-2-2 0-3 0-3 1-1 1-2 2-2 3-2 3-3 5-3 8 0 4-2 7-6 9-5 2-10 3-15 2-8-1-15-5-21-11-5-6-5-6-6-13-1-3-1-5 0-8 1-2 3-4 5-5 2 0 3 0 5 0 1 1 5 1 6 1 1 0 2-1 3-2 1-1 1-3 0-4 0-1-1-2-2-3-1-1-5-4-5-4-2-2-2-5 0-7 0 0 1 0 2-1 0 0 1 0 1-1 0-1 0-2 0-4-1-4-1-7-1-11 1-4 2-7 5-9 2-1 4-2 6-3 1-1 2-1 4-2 4-1 7 0 10 3 1 1 2 3 3 4 1 3 4 4 7 3 1 0 3-1 4-2 1-1 3-2 5-3 2-1 5-2 7-4 1 0 2 0 2 0 7-2 13-5 17-11 1-1 2-2 3-2 6-2 12-5 17-10 7-5 12-11 14-19 1-2 1-4 3-5 1-2 2-3 3-5 2-2 3-4 4-7 1 0 1-1 1-1 1-1 2-1 4-1 7-2 13-4 19-8 4-2 6-5 9-8 0-1 1-1 1-3 0-9-4-17-11-22-2-1-2-2-2-3-3-6-5-11-7-17 0-1-1-2-1-3-3-4-6-8-9-12-1-1-2-2-3-3-1 0-2-1-3-1-4-2-8-4-13-4-1-1-1-1-2-2-3-4-6-7-9-11 0 0 0-1-1-1-2-5-6-10-9-15-1-1-1-2-2-2-5-3-10-6-14-9-1-1-3-2-4-3-2-2-4-5-6-7-1-1-2-1-2-2-2-5-4-9-6-14-1-1-1-2-1-3 2-7 3-15 5-22 0-1 0-2 0-3-2 0-2 0-4 1-3 1-6 3-8 5-6 6-11 12-15 19 0 0 0 1 0 2-1 6-2 12-3 18 0 1 0 1-1 2-1 2-1 3-2 5 0 4 0 8 1 12 0 5 1 10 2 15 0 0 0 1 0 2-2 1-2 3-2 5 0 4 0 7 1 11 1 1 1 3 1 4 1 4 1 9 2 13 0 2 0 4 1 5-1 1-1 1-1 1-3 2-4 5-5 8 0 2 0 4 0 6 1 2 1 4 1 5 0 1-1 1-2 2-4 2-7 5-10 9-3 3-6 7-9 11-1 1-2 3-3 4-1 3-2 6-1 9 0 0 0 1 0 2-2 5-2 10-2 15 1 3 2 6 4 9 1 2 2 4 3 6 2 3 5 6 7 9 2 3 4 7 4 10 0 2 1 4 0 5 0 3-1 5-3 7-2 2-5 4-7 5-2 1-2 2-2 4-1 3-2 7-3 10 0 1-1 2-2 3-1 1-3 2-4 4-1 0-1 1-2 1 0 3 1 6 1 10-1 0-1 0-2 1-4 1-7 3-11 6-2 1-3 3-5 5-2 3-2 6-2 9 0 3 1 5 1 7 0 2 0 4 1 6 0 0 0 0-1 0 0 0 2 3-5 12-1 1-1 1-2 2 43 65 116 108 199 108m122-439c6 6 9 12 6 17-2 2-2 4-1 6 0 2 1 3 1 4 2 4 4 8 5 12 2 4 4 9 6 13 2 3 2 5 1 8-1 3-1 7-2 10 0 3-1 6 1 10 2 6 5 11 9 16 2 1 3 3 4 4 2 2 3 4 4 7 1 3 2 6 1 9 0 3-1 6-2 8-1 2-2 4-2 6-1 4-1 7 0 10 0 3 1 5 2 7 0 2 1 4 2 6 1 3 2 6 1 9 0 3 0 5-1 7 0 2-1 2-3 1-1 0-2 0-2-1-3-1-4 0-6 2 0 1-2 2-3 2-2 0-3 1-4 1-5 0-9 0-13 0-4 0-7 0-10-1-1 0-2 1-3 1-3 0-5 1-8 2-4 3-8 5-12 8-6 5-12 11-18 16 0 1-1 2-1 3 0 1-1 2-1 4 0 5 0 11 1 17 2 6 3 12 5 17 1 4 1 7 1 11 0 1 0 2-1 4 0 1 0 2 0 3 1 2 2 4 3 6 3 5 9 9 15 11 2 0 3 1 4 2 2 3 5 6 7 9 1 1 2 2 3 2 4 1 8 2 12 3 3 1 6 2 10 2 6 0 12 0 18-3 1 0 2 0 3 0 3 0 7 0 10-1 4 0 7-1 10-3 4-4 9-8 14-12 3-2 3-2 7-2 5 0 10 0 15-1 0 0 1 0 1 0 0 1 0 2 0 2-1 3-1 5-2 7-1 1-2 3-3 4-3 3-6 5-9 5-1 0-2 0-3 0-3 1-5 2-6 5-1 1-1 3-1 4 0 0-1 1-1 1 0 0-1 0-1 0 0-1-1-1-1-2-1 0-1-1-2-2-1-2-3-2-4 1 0 0-1 1-1 1 0 1 0 2-1 3 0 1 0 2-1 3-1 2-2 2-3 0 0 0 0 0-1-1 0 0-1-1-1-1-2-1-4-1-6 0 0 0 0 0-1 1-1 1-1 1-1 3 0 1 0 3 0 4 0 1-1 2-1 3 0 1-1 1-2 0 0 0-1-1-2-1 0 0-1 0-2 1-3 1-6 3-10 4-1 1-2 1-3 3-2-6-2-12-3-18 0 0-1 0-1-1-3 0-6-1-9-2-4-1-8 0-12 3-3 2-5 4-6 7-2 4-4 8-6 11 0 1-1 1-1 2 1 1 2 1 3 2 5 3 11 4 16 4 1 0 2 0 2 0 1 0 1 1 2 1 2 1 4 2 6 4 2 2 3 4 5 6 0 1 1 2 2 3-1 2-2 3-3 5 0 1 0 3 0 4 0 2 0 4 1 5 0 1 0 2-1 2-2 1-5 1-8 2-1 0-2 0-3 1-1 2-2 3-2 5-1 1-2 1-3 2-2 0-3 0-5 0-1 0-2 1-3 2-1 1-2 3-2 5-1 2-1 5-2 7 0 4 0 7 1 10 0 0 1 1 2 1 0 0 1 0 2 0 0 0 1 0 1 0 1 0 2 0 2 0 1 0 2 0 2 1 0 0 6-1 7 6 0 0 0 1 1 2 65-42 109-116 109-200 0-85-46-160-114-202"/>
<glyph unicode="&#48;" d="M503 420l-494 0c-5 0-9-3-9-8l0-312c0-5 4-8 9-8l494 0c5 0 9 3 9 8l0 312c0 5-4 8-9 8z m-473-47l163 0 0-20-163 0z m32-220l-9 0 0-28-9 0 0 28-9 0 0 8 27 0z m14-28l-10 0 0 36 10 0z m23 8c2 0 3 0 5 0 1 1 3 1 4 2l0-8c-3-2-6-2-10-2-5 0-10 1-12 4-3 3-5 8-5 14 0 4 1 7 2 10 2 2 4 5 6 6 3 2 6 2 10 2 3 0 7 0 11-2l-3-8c-2 1-3 1-4 2-2 0-3 0-5 0-2 0-4 0-5-2-1-2-2-5-2-8 0-7 3-10 8-10z m46-8l-11 0-7 14-3-2 0-12-10 0 0 36 10 0 0-16c0 1 1 3 3 5l7 11 11 0-11-16z m24 28l-12 0 0-6 11 0 0-7-11 0 0-7 12 0 0-8-21 0 0 36 21 0z m29 0l-8 0 0-28-10 0 0 28-9 0 0 8 27 0z m61 88l-229 0 0 20 230 0 0-20z m0 57l-229 0 0 20 230 0 0-20z m221-73l-74 19-2-56c0-1 0-5 0-5 0 0 1-1 2-1l11-9 3-18c-1 0-1 0-1 0l-17 5c-3 1-3 3-3 4 0-1-1-3-2-6 0 0-4-9-8-9l0 0c-3 0-8 9-8 9-1 3-2 5-2 6 0-1 0-3-3-4l-17-5c0 0 0 0-1 0l3 18 11 9c1 0 2 1 2 1 0 0 0 4 0 5l-2 56-74-19c-2-1-3 1-3 3l2 17c0 2 2 4 4 5l72 32 1 56c0 10 4 21 9 24 2 1 4 1 6 1l0 0c2 0 4 0 6-1 5-3 8-14 9-24l1-56 72-32c2-1 4-3 4-5l2-17c1-2-1-4-3-3z"/>
<glyph unicode="&#49;" d="M137 220l158 0 0-19-158 0z m0 47l195 0 0-19-195 0z m0-101l97 0 0-19-97 0z m0 150l158 0 0-19-158 0z m0 92l117 0 0-64-117 0z m233-278c0 29-23 52-51 52-29 0-52-23-52-52 0-28 23-51 52-51 28 0 51 23 51 51z m24-17l-75-60 41-53 20 52 56 8z m-208-24l52-20 7-56 53 42-59 76z m9-20l-96 0 0 420 197 0 0-80 85 0 0-285 16 11 7-9 0 306 0 0 0 0-85 79 0 1-243 0 0-466 147 0-2 12z m124 411l52-48-52 0z"/>
<glyph unicode="&#50;" d="M291 359c-19 19-51 19-70 0l-167-166c-10-11-14-27-8-41 6-14 20-23 35-23l69 0 0-91c0-21 17-38 38-38l136 0c21 0 38 17 38 38l0 91 69 0c15 0 29 9 35 23 5 14 2 30-9 41z m-283 85c0-21 17-38 37-38l422 0c20 0 37 17 37 38l0 31c0 20-17 37-37 37l-422 0c-20 0-37-17-37-37z"/>
</font>
</defs>
</svg>
