<?xml version="1.0" standalone="no"?>
<!DOCTYPE svg PUBLIC "-//W3C//DTD SVG 1.1//EN" "http://www.w3.org/Graphics/SVG/1.1/DTD/svg11.dtd" >
<svg xmlns="http://www.w3.org/2000/svg">
<metadata>Generated by IcoMoon</metadata>
<defs>
<font id="sfm-admin-icons" horiz-adv-x="1024">
<font-face units-per-em="1024" ascent="960" descent="-64" />
<missing-glyph horiz-adv-x="1024" />
<glyph unicode="&#x20;" d="" horiz-adv-x="512" />
<glyph unicode="&#xe600;" d="M533.6 562.448c-17.616 0-33.888-4.992-48.848-14.976-14.976-9.968-27.888-22.848-38.736-38.704-10.896-15.856-19.232-33.6-25.104-53.248-5.888-19.696-8.8-38.88-8.8-57.68 0-19.36 3.968-35.2 11.888-47.536 7.92-12.304 21.536-18.48 40.912-18.48 8.192 0 17.056 2.48 26.432 7.488 9.392 4.992 18.448 11.568 27.28 19.824 8.8 8.192 17.28 17.616 25.536 28.16 8.192 10.544 15.536 21.712 22.016 33.424l22.016 121.488c-7.664 6.48-15.6 11.456-23.792 14.976-8.224 3.52-18.512 5.264-30.8 5.264zM512.016 960c-282.768 0-512.016-229.232-512.016-511.984 0-282.768 229.232-512.016 512.016-512.016 282.8 0 511.984 229.232 511.984 512.016 0 282.752-229.168 511.984-511.984 511.984zM839.488 318.608c-23.2-24.064-50.192-43.136-80.976-57.216-30.8-14.080-63.856-21.136-99.040-21.136-14.72 0-28.32 1.6-40.944 4.832s-23.2 8.656-31.68 16.288c-8.512 7.648-14.832 17.616-18.944 29.936s-5.28 27.584-3.488 45.76h-3.52c-8.768-12.304-18.352-24.336-28.624-36.080-10.24-11.744-21.536-22.144-33.888-31.248-12.304-9.12-25.824-16.288-40.448-21.568-14.72-5.28-30.832-7.92-48.432-7.92-14.080 0-27.584 3.088-40.512 9.232-12.88 6.176-24.048 14.832-33.424 25.968-9.392 11.136-16.88 24.656-22.416 40.512-5.632 15.84-8.4 33.424-8.4 52.816 0 36.384 5.888 71.728 17.616 106.064 11.744 34.336 27.744 64.704 47.984 91.104 20.256 26.416 43.76 47.648 70.448 63.824 26.704 16.112 55.008 24.192 84.928 24.192 20.544 0 37.856-3.088 51.936-9.232 14.080-6.176 26.992-14.224 38.736-24.224l27.28 28.192h61.616l-42.224-238.56c-4.688-27.584-4.832-47.536-0.464-59.872 4.432-12.304 14.224-18.48 29.504-18.48 15.232 0 30.256 3.52 44.912 10.576 14.624 7.024 27.824 17.856 39.6 32.56 11.68 14.656 21.28 33.136 28.592 55.44 7.344 22.32 10.976 48.736 10.976 79.248 0 44-7.344 81.584-22.016 112.688s-34.768 56.784-60.272 77.008c-25.536 20.256-55.616 35.072-90.24 44.448-34.624 9.392-71.904 14.096-111.808 14.096-45.76 0-88.32-8.224-127.632-24.624-39.328-16.48-73.504-39.056-102.56-67.792-29.024-28.768-51.76-62.96-68.224-102.56-16.384-39.6-24.624-82.592-24.624-128.944 0-45.776 6.912-86.848 20.672-123.232 13.824-36.432 33.92-67.36 60.336-92.896 26.384-25.536 59.104-45.168 98.16-58.96 38.992-13.792 83.728-20.704 134.208-20.704 17.024 0 36.384 2.048 58.128 6.144 21.68 4.096 41.344 10.272 58.96 18.512l27.28-84.528c-24.048-11.744-48.56-19.936-73.504-24.624s-53.536-7.088-85.84-7.088c-56.912 0-109.6 8.256-157.968 24.656-48.432 16.448-90.416 40.8-125.92 73.056-35.504 32.288-63.248 72.352-83.184 120.144-19.968 47.824-29.904 103.152-29.904 165.92 0 63.968 11.424 121.792 34.304 173.44 22.88 51.616 53.744 95.632 92.448 132.032 38.736 36.4 83.632 64.384 134.656 84.096 51.088 19.616 105.072 29.472 161.984 29.472 53.968 0 104.16-7.776 150.512-23.328 46.368-15.568 86.56-37.856 120.608-66.88 34.032-29.056 60.736-64.592 80.096-106.528 19.392-41.984 29.088-89.648 29.088-143.056 0-37.568-6.608-72.784-19.824-105.648-13.28-32.8-31.456-61.28-54.624-85.328z" />
<glyph unicode="&#xe601;" d="M763.28 743.888c39.248 0 71.024 31.584 71.024 70.896v74.192c0 39.344-31.744 71.024-71.024 71.024s-70.992-31.648-70.992-71.024v-74.224c0-39.296 31.712-70.864 70.992-70.864zM1015.616 837.136h-142.976v-36.112c0-59.6-48.416-108.16-108.128-108.16-59.776 0-108.096 48.56-108.096 108.16v36.112h-288.512v-36.112c0-59.6-48.496-108.16-108.16-108.16s-108.128 48.528-108.128 108.16v36.112l-144.288 1.792v-902.928l1009.344 0.208-1.056 900.928zM944.576 7.904h-865.12v576.832h865.168v-576.832h-0.048zM258.608 743.888c39.248 0 71.072 31.584 71.072 70.896v74.192c-0.032 39.376-31.824 71.024-71.072 71.024s-70.96-31.648-70.96-71.024v-74.224c0-39.296 31.68-70.864 70.96-70.864zM368.112 507.344h113.616v-100.288h-113.616v100.288zM551.776 507.344h113.712v-100.288h-113.712v100.288zM722.176 507.344h113.616v-100.288h-113.616v100.288zM368.112 340.8h113.616v-100.224h-113.616v100.224zM551.776 340.8h113.712v-100.224h-113.712v100.224zM722.176 340.8h113.616v-100.224h-113.616v100.224zM368.112 170.96h113.616v-100.224h-113.616v100.224zM187.648 340.8h113.536v-100.224h-113.536v100.224zM187.648 170.96h113.536v-100.224h-113.536v100.224zM551.776 170.96h113.712v-100.224h-113.712v100.224zM722.176 170.96h113.616v-100.224h-113.616v100.224z" />
<glyph unicode="&#xe602;" d="M1017.696 746.64c-6.192 8.48-16.064 13.488-26.544 13.488h-739.264c-1.44 0-2.848-0.080-4.24-0.272l-30.416 87.696c-3.152 9.072-10.096 16.304-19.024 19.808l-153.328 60.24c-16.896 6.624-35.968-1.68-42.608-18.56-6.624-16.896 1.68-35.968 18.56-42.608l139.248-54.704 170.48-491.312c-7.52-2.608-13.904-8.384-16.8-16.464l-49.28-136.896c-3.024-8.384-1.776-17.728 3.36-25.008 5.136-7.296 13.472-11.632 22.4-11.632h25.312c-15.68-17.456-25.312-40.448-25.312-65.712 0-54.352 44.224-98.56 98.56-98.56s98.56 44.208 98.56 98.56c0 25.264-9.632 48.256-25.312 65.712h214.896c-15.68-17.456-25.312-40.448-25.312-65.712 0-54.352 44.208-98.56 98.56-98.56s98.56 44.208 98.56 98.56c0 25.264-9.632 48.256-25.312 65.712h30.784c15.12 0 27.376 12.256 27.376 27.376s-12.256 27.376-27.376 27.376h-525.040l30.528 84.784c3.936-1.648 8.208-2.64 12.656-2.64h481.888c14.288 0 26.928 9.232 31.28 22.832l136.896 427.12c3.2 9.984 1.44 20.896-4.736 29.376zM388.8 20.88c-24.16 0-43.808 19.648-43.808 43.808s19.648 43.808 43.808 43.808c24.16 0 43.808-19.648 43.808-43.808s-19.648-43.808-43.808-43.808zM750.208 20.88c-24.16 0-43.808 19.648-43.808 43.808s19.648 43.808 43.808 43.808c24.16 0 43.808-19.648 43.808-43.808s-19.648-43.808-43.808-43.808zM922.432 620.496h-167.664v73.92h191.344l-23.68-73.92zM874.16 469.904h-119.376v84.88h146.592l-27.216-84.88zM537.552 469.904v84.88h151.504v-84.88h-151.504zM689.072 404.192v-71.184h-151.504v71.184h151.504zM318.8 554.784h153.040v-84.88h-123.6l-29.44 84.88zM537.552 620.496v73.92h151.504v-73.92h-151.504zM471.84 694.416v-73.92h-175.84l-25.648 73.92h201.488zM371.056 404.192h100.784v-71.184h-76.096l-24.688 71.184zM754.768 333.008v71.184h98.32l-22.816-71.184h-75.504z" />
<glyph unicode="&#xe603;" d="M102.864 405.696h-74.144c-15.664 0-28.72 12.544-28.72 28.72 0 15.664 13.056 28.72 28.72 28.72h74.144v72.576c0 16.704 13.056 29.76 29.76 29.76 16.192 0 29.76-13.056 29.76-29.76v-72.576h74.144c15.664 0 28.72-13.056 28.72-28.72 0-16.192-13.056-28.72-28.72-28.72h-74.128v-72.576c0-16.704-13.568-29.76-29.76-29.76-16.704 0-29.76 13.056-29.76 29.76v72.576zM978.224 127.552v412h-320.448v274.672h-320.448v-686.672h-45.776v-45.776h732.448v45.776h-45.776zM383.12 768.448h91.552v-91.552h-91.552v91.552zM383.12 631.104h91.552v-91.552h-91.552v91.552zM383.12 493.776h91.552v-91.552h-91.552v91.552zM383.12 356.448h91.552v-91.552h-91.552v91.552zM566.224 127.552h-137.328v91.552h137.328v-91.552zM612 264.896h-91.552v91.552h91.552v-91.552zM612 402.224h-91.552v91.552h91.552v-91.552zM612 539.552h-91.552v91.552h91.552v-91.552zM612 676.896h-91.552v91.552h91.552v-91.552zM703.552 493.776h91.552v-91.552h-91.552v91.552zM703.552 356.448h91.552v-91.552h-91.552v91.552zM886.672 127.552h-137.328v91.552h137.328v-91.552zM932.448 264.896h-91.552v91.552h91.552v-91.552zM932.448 402.224h-91.552v91.552h91.552v-91.552z" />
<glyph unicode="&#xe604;" d="M960 0v576h-448v384h-448v-960h-64v-64h1024v64h-64zM128 896h128v-128h-128v128zM128 704h128v-128h-128v128zM128 512h128v-128h-128v128zM128 320h128v-128h-128v128zM384 0h-192v128h192v-128zM448 192h-128v128h128v-128zM448 384h-128v128h128v-128zM448 576h-128v128h128v-128zM448 768h-128v128h128v-128zM576 512h128v-128h-128v128zM576 320h128v-128h-128v128zM832 0h-192v128h192v-128zM896 192h-128v128h128v-128zM896 384h-128v128h128v-128z" />
<glyph unicode="&#xe605;" d="M507.952 241.104l-262.768-262.768c-55.52-55.52-146.176-57.376-203.552 0-55.504 55.52-55.52 148.032 0 203.552l262.768 262.768-257.216 257.2c-59.216 59.216-59.216 151.728 0 210.944 57.36 57.36 151.728 59.216 210.944 0l257.216-257.216 262.768 262.784c55.52 55.504 148.064 55.504 203.552-0.016 57.376-57.376 55.52-148.032 0-203.552l-262.768-262.752 257.216-257.216c59.2-59.2 57.376-153.584 0-210.944-59.2-59.2-151.744-59.2-210.944 0l-257.216 257.216z" />
<glyph unicode="&#xe606;" d="M980.064 729.776c-8.896 5.408-75.808 46.176-75.808 46.176s48.368 138.304 44.144 157.472c-4.176 19.136-24.688 26.576-24.688 26.576l-81.488-150.4-83.728 36.4-0.496 54.928-25.568 22.752c0 0-7.488-62.704-18.128-77.888-10.576-15.168-52.464-43.584-52.464-43.584l22.064-22.368 57.12 30.768 70.416-48.768-87.488-146.352c0 0 17.632-21.728 34.992-12.272 17.328 9.472 102.24 118.592 102.24 118.592s82.432-46.096 91.184-48.096c8.752-2.048 30.4-13.52 41.376 12.72 10.928 26.208-4.784 37.936-13.68 43.344zM849.456 579.104c-12.384 14.864-26.256 28.352-40.784 41.088l-21.184-21.904c13.328-11.584 26.096-23.856 37.488-37.36-20.608-13.488-44.576-25.376-71.2-35.216-19.616 58.208-48.224 106.608-82.672 139.488 13.024-4.256 25.616-9.44 37.888-15.216l16.224 26.064c-48.272 23.184-102.32 36.24-159.36 36.24-0.208 0-0.384 0-0.512 0-0.112 0-0.24 0-0.352 0-0.416 0-0.832-0.048-1.264-0.048-112.992-0.656-214.096-52.368-281.408-133.12-6.208-7.456-12.096-15.184-17.712-23.12-42.688-60.208-67.856-133.6-67.856-212.848s25.168-152.64 67.856-212.848c5.6-7.936 11.488-15.68 17.712-23.12 67.344-80.752 168.416-132.448 281.408-133.104 0.448 0 0.848-0.048 1.264-0.048 0.112 0 0.24 0 0.352 0 0.16 0 0.336 0 0.512 0 113.872 0 215.84 51.84 283.6 133.152 6.192 7.456 12.080 15.216 17.712 23.152 42.688 60.208 67.84 133.616 67.84 212.848s-25.152 152.64-67.84 212.848c-5.632 7.888-11.472 15.632-17.712 23.072zM457.968 664.272c-33.936-32.72-62.112-80.576-81.536-138-26.048 9.728-49.488 21.424-69.664 34.688 39.632 47.024 91.712 83.248 151.2 103.312zM288.992 537.792c22.928-15.328 49.472-28.72 78.8-39.76-12.64-46.24-19.92-97.6-20.16-151.776h-120.528c0.688 71.264 23.584 137.184 61.888 191.536zM228.224 315.968h119.984c1.952-45.344 8.832-88.368 19.584-127.712-29.344-11.040-55.872-24.464-78.8-39.76-33.952 48.144-55.808 105.44-60.768 167.472zM306.864 125.392c20.176 13.216 43.552 24.88 69.536 34.592 19.456-57.424 47.632-105.248 81.584-137.968-59.504 20.048-111.504 56.336-151.12 103.376zM550.736 5.408c-62.128 8.528-115.776 72.256-146.208 164.032 43.84 13.168 93.504 21.104 146.208 22.416v-186.448zM550.736 222.112c-55.584-1.344-108.032-9.936-154.672-24.256-9.552 36.304-15.68 76.096-17.536 118.096h172.208v-93.84zM550.736 346.272h-172.816c0.256 50.864 6.88 98.912 18.272 142.112 46.592-14.272 98.976-22.88 154.528-24.208v-117.92h0.016zM550.736 494.448c-52.688 1.296-102.32 9.232-146.144 22.368 30.448 91.728 84.016 155.568 146.144 164.080v-186.448zM581.024 680.656c61.472-9.488 114.4-73.184 144.512-164.32-43.424-12.848-92.432-20.656-144.512-21.92v186.24zM581.024 464.16c54.912 1.312 106.688 9.728 152.928 23.712 11.28-43.056 17.888-90.96 18.128-141.616h-171.056v117.904zM581.024 315.968h170.448c-1.84-41.792-7.936-81.424-17.392-117.6-46.24 14.016-98.112 22.432-153.040 23.76v93.84zM581.024 5.616v186.224c52.080-1.264 101.152-9.072 144.592-21.936-30.128-91.152-83.12-154.768-144.592-164.288zM671.072 21.12c34.448 32.864 63.12 81.232 82.72 139.44 26.608-9.824 50.528-21.68 71.136-35.152-40.24-47.76-93.216-84.448-153.856-104.288zM842.768 148.464c-23.36 15.632-50.464 29.248-80.432 40.4 10.64 39.184 17.472 81.984 19.408 127.104h121.792c-4.96-62.032-26.816-119.328-60.768-167.504zM782.384 346.272c-0.304 53.936-7.488 105.056-20.064 151.152 29.968 11.168 57.056 24.768 80.4 40.352 38.288-54.336 61.216-120.272 61.872-191.52h-122.208zM86.88 352.016c0 269.952 219.6 489.6 489.6 489.6 27.952 0 55.184-2.752 81.824-7.296l31.008 19.088 10.192 33.904c-34.992 7.056-85.968 14.64-123.024 14.64-303.264 0-549.936-246.704-549.936-549.936 0-31.904 1.632-61.808 5.232-90.176 15.072-119.168 166.656-325.824 286.992-325.84-130.288 93.184-231.888 240.576-231.888 416.016z" />
<glyph unicode="&#xe607;" d="M555.76 924.992c0 18.64-20.448 35.008-43.76 35.008s-43.76-16.368-43.76-35.008v-140.016h87.504v140.016zM450.736 749.984h-102.416c-25.584 0-55.104-12-55.104-37.6v-183.84l220.048 98.992 14.24-6.528 185.744-81.744v173.12c0 25.584-12 37.6-37.6 37.6h-224.912zM361.376 207.424h311.376l197.696 220.592-356.992 161.2-350.496-162.032zM83.2 128.528c17.504 0 36.192-10.944 53.088-27.488 19.328-18.944 43.424-42.512 89.856-42.512s70.48 23.568 89.808 42.512c16.912 16.56 28.064 27.488 53.056 27.488 25.008 0 36.176-10.944 53.088-27.488 19.312-18.944 43.392-42.512 89.824-42.512s70.48 23.568 89.808 42.512c16.912 16.56 28.080 27.488 53.072 27.488 25.024 0 36.192-10.944 53.12-27.52 19.328-18.928 43.392-42.496 89.84-42.496s70.56 23.568 89.904 42.496c16.912 16.576 35.648 27.52 53.152 27.52v52.512c-52.512 0-70.56-23.552-89.888-42.496-16.928-16.56-28.144-27.504-53.168-27.504s-36.192 10.944-53.104 27.504c-13.648 13.376-29.84 28.88-54.432 36.944-10.24 3.36-21.776 5.552-35.44 5.552-17.568 0-31.904-3.376-44.032-8.608-19.92-8.576-33.76-22.128-45.792-33.904-16.912-16.56-28.064-27.488-53.072-27.488s-36.176 10.944-53.088 27.488c-12.016 11.776-25.888 25.328-45.808 33.904-12.112 5.216-26.464 8.608-44.032 8.608-9.888 0-18.576-1.248-26.608-3.12-29.68-6.896-48-24.48-63.216-39.392-16.896-16.56-28.080-27.488-53.072-27.488s-36.176 10.944-53.072 27.488c-19.296 18.944-37.296 42.512-89.808 42.512v-52.512zM83.2 6c17.504 0 36.192-10.944 53.088-27.488 19.328-18.944 43.424-42.512 89.856-42.512s70.48 23.568 89.808 42.512c16.912 16.56 28.064 27.488 53.056 27.488 25.008 0 36.176-10.944 53.088-27.488 19.312-18.944 43.392-42.512 89.824-42.512s70.48 23.568 89.808 42.512c16.912 16.56 28.080 27.488 53.072 27.488 25.024 0 36.192-10.944 53.12-27.52 19.296-18.928 43.36-42.48 89.808-42.48s70.56 23.568 89.904 42.496c16.912 16.576 35.648 27.52 53.152 27.52v52.512c-52.512 0-70.56-23.552-89.888-42.496-16.928-16.56-28.144-27.504-53.168-27.504s-36.192 10.944-53.104 27.504c-19.344 18.944-43.408 42.496-89.856 42.496-46.432 0-70.48-23.568-89.808-42.512-16.912-16.56-28.080-27.488-53.072-27.488-25.008 0-36.176 10.944-53.088 27.488-19.328 18.944-43.392 42.512-89.84 42.512-46.432 0-70.496-23.568-89.824-42.512-16.896-16.56-28.064-27.488-53.072-27.488-24.992 0-36.176 10.944-53.072 27.488-19.328 18.944-37.328 42.512-89.84 42.512v-52.528z" />
<glyph unicode="&#xe608;" d="M1024 168.976h-1024l50.784 88.128 158.176 274.016c27.984 48.4 73.664 48.4 101.584 0 0 0 36.72-63.632 41.168-71.072 21.024 36.384 133.12 230.672 133.12 230.672 28.064 48.4 73.728 48.4 101.648 0l222.752-385.84c11.472 19.936 22.8 39.52 31.472 54.816 20.272 34.96 53.104 34.96 73.456 0 20.144-35.088 53.104-92.224 73.392-127.040l36.448-63.68z" />
<glyph unicode="&#xe609;" d="M883.264 562.944l-25.856 61.424c0 0 60.144 135.696 54.832 140.912l-79.632 77.76c-5.504 5.36-141.248-56.592-141.248-56.592l-62.608 25.28c0 0-55.312 137.552-62.896 137.552h-112.368c-7.824 0-59.008-137.84-59.008-137.84l-62.512-25.376c0 0-138.592 58.912-143.904 53.648l-79.488-77.84c-5.504-5.36 57.776-138.304 57.776-138.304l-25.856-61.328c0 0-140.496-54.112-140.496-61.424v-110.144c0-7.68 140.832-57.824 140.832-57.824l25.856-61.232c0 0-60.144-135.6-54.88-140.832l79.584-77.936c5.408-5.264 141.2 56.688 141.2 56.688l62.656-25.376c0 0 55.312-137.456 62.944-137.456h112.368c7.776 0 59.008 137.84 59.008 137.84l62.704 25.376c0 0 138.304-58.912 143.664-53.744l79.584 77.84c5.552 5.456-57.872 138.304-57.872 138.304l25.808 61.328c0 0 140.544 54.208 140.544 61.616v110.048c0.048 7.648-140.736 57.632-140.736 57.632zM676.192 448.016c0-88.56-73.664-160.656-164.16-160.656-90.4 0-164.16 72.096-164.16 160.656s73.76 160.56 164.16 160.56c90.544-0.048 164.16-72 164.16-160.56z" />
<glyph unicode="&#xe60a;" d="M32.896-31.056c21.216-21.248 49.424-32.944 79.472-32.944 30.032 0 58.272 11.696 79.504 32.928l107.088 107.088c7.28 7.28 11.008 17.12 10.24 27.024-0.784 9.968-6.048 19.216-14.48 25.344-39.296 28.64-73.744 63.072-102.368 102.368-6.752 9.264-16.928 14.576-27.936 14.576-9.088 0-17.76-3.68-24.416-10.336l-107.088-107.088c-43.84-43.824-43.84-115.136-0.016-158.96zM1023.968 514.016c0 245.92-200.064 445.984-445.984 445.984s-446-200.064-446-445.984 200.064-446 445.984-446 446 200.064 446 446zM890.112 514.016c0-172.112-140.016-312.128-312.128-312.128s-312.128 140.016-312.128 312.128c0 172.112 140.016 312.128 312.128 312.128s312.128-140.032 312.128-312.128z" />
<glyph unicode="&#xe60b;" d="M41.376 558.656c-22.048-8.464-37.696-28.304-40.832-51.712-3.088-23.44 6.864-46.656 25.952-60.528l209.008-152.096 742.416 584.080-656.432-646.688 285.744-207.92c18.192-13.232 41.632-17.2 63.232-10.624 21.568 6.56 38.768 22.928 46.496 44.048l305.648 836.608c3.088 8.496 0.928 18-5.504 24.336s-15.936 8.336-24.4 5.088l-951.328-364.592zM185.904 243.792l1.776-9.696 40.56-221.792c3.024-16.48 14.032-30.304 29.36-36.96 15.328-6.64 33.008-5.216 47.040 3.824 56.496 36.448 130.304 84.8 128.304 87.632l-247.040 176.992z" />
<glyph unicode="&#xe60c;" d="M986.544 650.96l-45.248-45.28-271.552 271.536 45.248 45.28c50 50 131.056 50 181.056 0l90.496-90.528c49.936-49.968 49.936-131.008 0-181.008zM352.928 107.936c-12.496-12.496-12.496-32.752 0-45.248 12.496-12.56 32.752-12.56 45.248 0l497.872 497.744-45.312 45.28-497.808-497.776zM126.624 334.192c-12.496-12.496-12.496-32.752 0-45.248s32.752-12.496 45.248 0l497.872 497.776-45.248 45.248-497.872-497.776zM714.928 741.488l-497.808-497.792c-24.992-24.944-24.944-65.504 0-90.496 24.992-24.992 65.504-25.12 90.56 0.064l497.808 497.712-90.56 90.512zM307.552 17.568c-15.312 15.312-22.688 34.752-25.44 54.752-6.496-0.992-13.056-1.936-19.744-1.936-34.192 0-66.304 13.376-90.496 37.568-24.192 24.256-37.504 56.304-37.504 90.496 0 6.256 0.944 12.304 1.808 18.368-20.688 2.816-39.808 11.872-54.816 26.88-1.44 1.44-1.936 3.376-3.248 4.944l-78.112-312.64 311.808 78.064c-1.376 1.248-2.944 2.192-4.256 3.504z" />
<glyph unicode="&#xe60d;" d="M750.928 345.6c-68.272-68.272-68.272-136.528-136.528-136.528s-136.528 68.272-204.8 136.528-136.528 136.528-136.528 204.8 68.272 68.272 136.528 136.528-136.528 273.072-204.8 273.072-204.8-204.8-204.8-204.8c0-136.528 140.272-413.328 273.072-546.128s409.6-273.072 546.128-273.072c0 0 204.8 136.528 204.8 204.8s-204.8 273.072-273.072 204.8z" />
<glyph unicode="&#xe60e;" d="M637.232 298.656c1.664-6.992 2.768-14.064 2.768-21.312 0-22.672 0-20.016 0-42.672 0-94.272-143.28-170.672-320-170.672s-320 76.4-320 170.656c0 22.672 0 20.016 0 42.672 0 7.248 1.104 14.32 2.768 21.328 19.712-84.176 154.064-149.312 317.232-149.312s297.52 65.136 317.232 149.312zM320 21.344c-163.168 0-297.52 65.136-317.232 149.328-1.664-7.008-2.768-14.080-2.768-21.328 0-22.672 0-20.016 0-42.672 0-94.272 143.28-170.672 320-170.672s320 76.4 320 170.656c0 22.672 0 20.016 0 42.672 0 7.248-1.104 14.32-2.768 21.328-19.712-84.176-154.064-149.312-317.232-149.312zM320 533.328c-176.72 0-320-76.416-320-170.672s143.28-170.656 320-170.656 320 76.4 320 170.656c0 94.272-143.28 170.672-320 170.672zM704 192c-7.216 0-14.256 0.304-21.344 0.528 0-45.664 0-82.848 0-85.28 7.088-0.208 14.128-0.56 21.344-0.56 176.72 0 320 76.4 320 170.672 0 22.672 0 20 0 42.656 0 7.248-1.104 14.336-2.768 21.344-19.712-84.208-154.064-149.36-317.232-149.36zM704 618.672c176.736 0 320 76.4 320 170.672 0 94.256-143.264 170.656-320 170.656s-320-76.4-320-170.672c0-94.256 143.264-170.656 320-170.656zM704 576c-163.168 0-297.52 65.152-317.232 149.328-1.664-6.992-2.768-14.080-2.768-21.328 0-22.656 0-20 0-42.672 0-36.224 21.328-69.76 57.424-97.408 62.368-12.672 116.608-34.72 157.696-63.696 32.896-6.096 68.080-9.552 104.88-9.552 176.72 0 320 76.416 320 170.672 0 22.656 0 20 0 42.672 0 7.248-1.104 14.336-2.768 21.328-19.712-84.192-154.064-149.344-317.232-149.344zM704 448c-17.968 0-35.456 0.896-52.608 2.432 19.84-26.496 31.104-55.904 31.232-87.216 7.072-0.208 14.16-0.56 21.376-0.56 176.72 0 320 76.416 320 170.672 0 22.656 0 20 0 42.672 0 7.248-1.104 14.336-2.768 21.328-19.712-84.176-154.064-149.328-317.232-149.328zM704 320c-7.216 0-14.256 0.304-21.344 0.528 0-23.728 0-54.352 0-85.28 7.088-0.208 14.128-0.56 21.344-0.56 176.72 0 320 76.4 320 170.672 0 22.672 0 20 0 42.656 0 7.248-1.104 14.336-2.768 21.328-19.712-84.192-154.064-149.344-317.232-149.344z" />
<glyph unicode="&#xe60f;" d="M512.016 960l-451.616-240.912v-16.896c0-508.96 433.488-756.096 437.856-758.544l13.76-7.648 13.728 7.648c4.368 2.432 437.856 249.552 437.856 758.544v16.896l-451.584 240.912zM512.016 1.392c-70.384 44.928-386.592 269.76-395.008 683.936l395.008 210.704 395.008-210.656c-8.416-414.192-324.624-639.024-395.008-683.984zM145.776 668.688c15.152-370.272 278.608-575.664 366.24-633.952 87.632 58.288 351.088 263.632 366.24 633.92l-366.24 195.376-366.24-195.344zM509.728 188.416c-38.848 0-64.736 28.064-64.736 65.504 0 38.16 26.608 65.504 64.736 65.504 38.16 0 63.344-27.344 64.048-65.504-0.016-37.424-25.168-65.504-64.048-65.504zM550.752 355.392h-82.032l-16.608 326h114.464l-15.824-326z" />
<glyph unicode="&#xe610;" d="M757.408-64v0c-16.272 20.72-58.288 77.648-98.512 157.728h0.768l-13.648 26.48c-22.992 49.664-44.336 93.68-58.384 155.488l-4.256 20c-1.024 5.328-2.128 10.56-2.912 15.872-12.4 70.24-21.152 118.224-27.296 181.392l-0.976 8.128c-7.84 82.928-11.424 132.208-13.072 176.752l-0.336 8.224c-0.384 18.976-0.672 32.192-0.768 38.048 2.464 2.128 4.848 4.752 6.384 7.648 2.224 4.016 10.704 8.864 10.704 8.864v13.984h-19.6v25.568c0 8.96-8.464 16.368-19.456 17.856v49.968h-7.936v-49.952c-11.088-1.456-19.504-8.912-19.504-17.856v-25.568h-19.696v-13.984c0 0 8.672-4.848 10.8-8.864 1.6-2.912 4.016-5.472 6.432-7.648-0.24-5.856-0.336-19.072-0.912-38.048l-0.384-8.224c-1.552-44.544-5.088-93.824-13.072-176.752l-0.768-8.128c-6.192-63.168-14.912-111.056-27.248-181.344-0.864-5.28-1.984-10.56-2.96-15.872l-4.352-19.952c-14.128-61.92-35.392-105.872-58.432-155.536l-13.456-26.48h0.624c-40.128-80.064-82.256-137.008-98.56-157.728zM484.528 307.6c9.488 71.504 15.728 120.928 19.408 185.36h16.128c3.872-64.432 9.872-113.856 19.504-185.36 0.48-3.92 1.12-7.888 1.744-11.856h-58.576c0.624 3.968 1.216 7.936 1.792 11.856zM474.464 246.992h75.184c10.416-51.84 23.968-85.728 38.576-126.784h-152.352c14.624 41.040 28.272 74.928 38.592 126.784zM345.344-64c8.672 12.592 24.256 37.232 42.208 72.368 26.96 37.040 73.392 61.824 124.512 61.824s99.968-30.592 124.512-61.824c17.808-35.2 33.504-59.744 42.16-72.368zM815.44 921.264l38.768 38.736c147.856-147.856 147.856-388.512 0-536.368l-38.736 38.688c126.528 126.528 126.528 332.448-0.032 458.944zM748.48 529.264l38.736-38.768c110.928 110.928 110.928 291.6 0 402.512l-38.736-38.688c89.6-89.632 89.6-235.376 0-325.056zM718.112 559.648c72.832 72.784 72.832 191.36-0.080 264.256l-38.688-38.736c51.584-51.536 51.584-135.328 0-186.832l38.768-38.688zM208.512 462.288c-126.528 126.576-126.496 332.496 0.048 458.976l-38.736 38.736c-147.904-147.856-147.904-388.512 0-536.368l38.688 38.656zM236.768 490.544l38.768 38.848c-89.6 89.552-89.6 235.376 0 324.96l-38.768 38.688c-110.928-110.912-110.928-291.536 0-402.496zM305.92 559.648l38.768 38.768c-51.504 51.504-51.504 135.328 0 186.832l-38.768 38.704c-72.832-72.96-72.832-191.52 0-264.304z" />
<glyph unicode="&#xe611;" d="M843.296 112.816c0 6.96-0.72 13.744-1.888 20.352v589.072c-12.784 2.288-25.872 3.68-39.296 3.68h-580.208c-6.256 0-12.368-0.432-18.496-0.928v-632.72c0.64-0.048 1.312-0.048 1.936-0.112 9.76-54.48 57.296-95.856 114.576-95.856 57.008 0 104.368 40.96 114.464 95.024h177.92c10.096-54.064 57.456-95.024 114.464-95.024 64.368 0 116.528 52.16 116.528 116.512zM669.824 91.328h113.872c-8.736-23.056-30.864-39.552-56.944-39.552s-48.192 16.496-56.928 39.552zM540.896 412.752c0 4.864 0.992 9.488 2.72 13.744 5.472 13.584 18.752 23.248 34.272 23.248h145.408c20.4 0 36.992-16.592 36.992-36.992v-3.088c0-20.4-16.592-36.992-36.992-36.992h-145.392c-20.4 0-36.992 16.592-36.992 36.992v3.088zM717.824 624.848c33.648 0 60.944-17.072 60.944-38.128s-27.296-38.128-60.944-38.128c-33.648 0-60.944 17.072-60.944 38.128s27.28 38.128 60.944 38.128zM336.336 624.848h212.656v-94.768h-212.656v94.768zM319.952 51.776c-26.080 0-48.208 16.512-56.944 39.552h113.872c-8.72-23.056-30.848-39.552-56.928-39.552zM395.872 201.088c-10.4-4.864-21.872-7.792-34.112-7.792-2.048 0-3.968 0.464-5.984 0.608-9.76 0.72-19.040 2.976-27.52 6.864-12.8 5.84-23.728 14.912-31.904 26.192-9.632 13.312-15.504 29.568-15.504 47.264 0 44.672 36.224 80.896 80.896 80.896s80.896-36.224 80.896-80.896c0.016-32.48-19.184-60.256-46.768-73.136zM522.976 404.128c2.816-28 26.192-49.936 54.928-49.936h46.784l74.208-68.496-65.616-71.088-154 142.144 43.696 47.376zM728.224 749.632h16.848c0 0 7.552 0 16.848 0s16.848 10.064 16.848 22.464v105.12c0 12.416-10.064 22.464-22.464 22.464h-474.72c-12.416 0-22.464-10.064-22.464-22.464v-105.12c0-12.416 7.552-22.464 16.848-22.464h16.832c0 0 7.552 0 16.848 0s16.848 10.064 16.848 22.464v37.728c0 12.416 10.064 22.464 22.464 22.464h339.888c12.416 0 22.464-10.064 22.464-22.464v-37.728c0.048-12.4 7.584-22.464 16.912-22.464zM0 313.232c0-96.592 61.808-178.528 147.936-209.024v608.832c-86.128-30.496-147.936-112.432-147.936-209.024v-190.784zM1024 313.232v190.784c0 88.592-52.048 164.832-127.136 200.416v-591.632c75.104 35.584 127.136 111.84 127.136 200.432z" />
<glyph unicode="&#xe612;" d="M42.096-64h939.824c12.56 0 24.256 5.12 32.112 14.048 6.832 7.744 9.84 17.568 8.544 27.664-22.048 171.696-127.616 314.768-272.144 391.056-61.104-61.088-145.44-98.928-238.432-98.928s-177.328 37.84-238.416 98.928c-144.544-76.256-250.128-219.36-272.16-391.056-1.296-10.096 1.744-19.936 8.544-27.664 7.872-8.928 19.568-14.048 32.128-14.048zM300.224 466.128c5.488-5.744 11.216-11.232 17.136-16.544 51.776-46.32 119.872-74.736 194.64-74.736s142.848 28.448 194.64 74.736c5.936 5.296 11.664 10.784 17.136 16.544 5.456 5.744 10.784 11.632 15.792 17.808 40.576 50.24 65.008 114.032 65.008 183.488 0 161.344-131.264 292.576-292.576 292.576s-292.576-131.264-292.576-292.576c0-69.456 24.432-133.248 65.008-183.488 4.992-6.176 10.304-12.032 15.792-17.808z" />
<glyph unicode="&#xe613;" d="M688 727.2c-185.568 0-336-150.432-336-336 0-80.864 28.576-155.056 76.176-213.024 7.344 58.784 66.064 108.512 148.4 132.048 30.080-28.032 68.944-45.024 111.424-45.024 41.488 0 79.584 16.16 109.36 42.992 83.056-25.616 140.512-78.224 142.4-139.408 52.384 59.264 84.24 137.12 84.24 222.416 0 185.568-150.432 336-336 336zM688 304.992c-21.44 0-41.664 5.888-59.6 16.096-43.248 24.624-73.024 74.96-73.024 133.104 0 82.272 59.504 149.216 132.64 149.216s132.64-66.944 132.64-149.216c0-59.040-30.704-110.016-75.024-134.192-17.488-9.52-36.976-15.008-57.632-15.008zM102.864 405.696h-74.144c-15.664 0-28.72 12.544-28.72 28.72 0 15.664 13.056 28.72 28.72 28.72h74.144v72.576c0 16.704 13.056 29.76 29.76 29.76 16.192 0 29.76-13.056 29.76-29.76v-72.576h74.144c15.664 0 28.72-13.056 28.72-28.72 0-16.192-13.056-28.72-28.72-28.72h-74.128v-72.576c0-16.704-13.568-29.76-29.76-29.76-16.704 0-29.76 13.056-29.76 29.76v72.576z" />
<glyph unicode="&#xe614;" d="M98.048 420.624h-70.672c-14.928 0-27.376 11.952-27.376 27.376 0 14.928 12.448 27.376 27.376 27.376h70.672v69.184c0 15.92 12.448 28.368 28.368 28.368 15.424 0 28.368-12.432 28.368-28.368v-69.184h70.672c14.928 0 27.376-12.448 27.376-27.376 0-15.424-12.448-27.376-27.376-27.376h-70.672v-69.184c0-15.92-12.944-28.368-28.368-28.368-15.92 0-28.368 12.432-28.368 28.368v69.184zM1017.296 790.416c-22.672 22.672-99.584-17.504-122.24-40.176l-90.752-90.768h-412.864c-9.808 0-18.24-6.976-20.080-16.624s3.44-19.232 12.56-22.832l273.008-107.888-167.408-167.408h-158.336c-3.392-0.016-6.32-2.416-6.96-5.76s1.2-6.672 4.352-7.92l133.232-52.656c0.768-3.344 1.84-6.624 3.216-9.824l-5.824-5.84c-8.304-8.304-8.304-21.76 0-30.064s21.76-8.304 30.064 0l5.68 5.68c3.232-1.424 6.544-2.544 9.936-3.36l51.36-131.632c1.232-3.168 4.56-5.008 7.904-4.384 1.44 0.256 2.72 0.976 3.696 1.952 1.296 1.28 2.080 3.056 2.080 5.008v155.040l170.080 170.064 106.88-273.92c3.584-9.152 13.168-14.48 22.816-12.656 4.176 0.784 7.84 2.816 10.672 5.632 3.728 3.744 5.984 8.88 6 14.48v412.832l90.768 90.768c22.656 22.656 62.816 99.584 40.16 122.256z" />
<glyph unicode="&#xe615;" d="M1014.176 948.976c-33.152 33.152-145.696-25.616-178.848-58.784l-132.784-132.8h-604.016c-14.352 0-26.688-10.208-29.376-24.304s5.024-28.128 18.384-33.392l399.44-157.856-244.96-244.928h-231.648c-4.976-0.016-9.248-3.536-10.176-8.432s1.744-9.744 6.384-11.584l194.928-77.040c1.136-4.896 2.704-9.696 4.704-14.368l-8.528-8.528c-12.144-12.144-12.144-31.824 0-43.984 12.144-12.144 31.84-12.144 43.984 0l8.32 8.32c4.72-2.080 9.568-3.728 14.528-4.912l75.136-192.576c1.808-4.64 6.672-7.328 11.568-6.416 2.112 0.384 3.984 1.424 5.408 2.864 1.904 1.888 3.040 4.48 3.040 7.328v226.768l248.816 248.816 156.368-400.752c5.232-13.376 19.248-21.168 33.392-18.528 6.096 1.152 11.472 4.112 15.616 8.24 5.456 5.472 8.768 12.992 8.768 21.168v604l132.8 132.8c33.152 33.168 91.92 145.712 58.752 178.88z" />
<glyph unicode="&#xe616;" d="M512 960c-176.752 0-320-143.28-320-320 0-305.536 320-704 320-704s320 398.464 320 704c0 176.72-143.264 320-320 320zM512 463.36c-95.456 0-172.8 77.36-172.8 172.8s77.344 172.8 172.8 172.8c95.424 0 172.8-77.36 172.8-172.8s-77.376-172.8-172.8-172.8z" />
<glyph unicode="" d="M512 960c-176.752 0-320-143.28-320-320 0-305.536 320-704 320-704s320 398.464 320 704c0 176.72-143.264 320-320 320zM512 463.36c-95.456 0-172.8 77.36-172.8 172.8s77.344 172.8 172.8 172.8c95.424 0 172.8-77.36 172.8-172.8s-77.376-172.8-172.8-172.8z" />
<glyph unicode="waypoint" d="M512 960c-176.752 0-320-143.28-320-320 0-305.536 320-704 320-704s320 398.464 320 704c0 176.72-143.264 320-320 320zM512 463.36c-95.456 0-172.8 77.36-172.8 172.8s77.344 172.8 172.8 172.8c95.424 0 172.8-77.36 172.8-172.8s-77.376-172.8-172.8-172.8z" />
<glyph unicode="vacations-add" d="M98.048 420.624h-70.672c-14.928 0-27.376 11.952-27.376 27.376 0 14.928 12.448 27.376 27.376 27.376h70.672v69.184c0 15.92 12.448 28.368 28.368 28.368 15.424 0 28.368-12.432 28.368-28.368v-69.184h70.672c14.928 0 27.376-12.448 27.376-27.376 0-15.424-12.448-27.376-27.376-27.376h-70.672v-69.184c0-15.92-12.944-28.368-28.368-28.368-15.92 0-28.368 12.432-28.368 28.368v69.184zM1017.296 790.416c-22.672 22.672-99.584-17.504-122.24-40.176l-90.752-90.768h-412.864c-9.808 0-18.24-6.976-20.080-16.624s3.44-19.232 12.56-22.832l273.008-107.888-167.408-167.408h-158.336c-3.392-0.016-6.32-2.416-6.96-5.76s1.2-6.672 4.352-7.92l133.232-52.656c0.768-3.344 1.84-6.624 3.216-9.824l-5.824-5.84c-8.304-8.304-8.304-21.76 0-30.064s21.76-8.304 30.064 0l5.68 5.68c3.232-1.424 6.544-2.544 9.936-3.36l51.36-131.632c1.232-3.168 4.56-5.008 7.904-4.384 1.44 0.256 2.72 0.976 3.696 1.952 1.296 1.28 2.080 3.056 2.080 5.008v155.040l170.080 170.064 106.88-273.92c3.584-9.152 13.168-14.48 22.816-12.656 4.176 0.784 7.84 2.816 10.672 5.632 3.728 3.744 5.984 8.88 6 14.48v412.832l90.768 90.768c22.656 22.656 62.816 99.584 40.16 122.256z" />
<glyph unicode="vacations" d="M1014.176 948.976c-33.152 33.152-145.696-25.616-178.848-58.784l-132.784-132.8h-604.016c-14.352 0-26.688-10.208-29.376-24.304s5.024-28.128 18.384-33.392l399.44-157.856-244.96-244.928h-231.648c-4.976-0.016-9.248-3.536-10.176-8.432s1.744-9.744 6.384-11.584l194.928-77.040c1.136-4.896 2.704-9.696 4.704-14.368l-8.528-8.528c-12.144-12.144-12.144-31.824 0-43.984 12.144-12.144 31.84-12.144 43.984 0l8.32 8.32c4.72-2.080 9.568-3.728 14.528-4.912l75.136-192.576c1.808-4.64 6.672-7.328 11.568-6.416 2.112 0.384 3.984 1.424 5.408 2.864 1.904 1.888 3.040 4.48 3.040 7.328v226.768l248.816 248.816 156.368-400.752c5.232-13.376 19.248-21.168 33.392-18.528 6.096 1.152 11.472 4.112 15.616 8.24 5.456 5.472 8.768 12.992 8.768 21.168v604l132.8 132.8c33.152 33.168 91.92 145.712 58.752 178.88z" />
<glyph unicode="user-add" d="M688 727.2c-185.568 0-336-150.432-336-336 0-80.864 28.576-155.056 76.176-213.024 7.344 58.784 66.064 108.512 148.4 132.048 30.080-28.032 68.944-45.024 111.424-45.024 41.488 0 79.584 16.16 109.36 42.992 83.056-25.616 140.512-78.224 142.4-139.408 52.384 59.264 84.24 137.12 84.24 222.416 0 185.568-150.432 336-336 336zM688 304.992c-21.44 0-41.664 5.888-59.6 16.096-43.248 24.624-73.024 74.96-73.024 133.104 0 82.272 59.504 149.216 132.64 149.216s132.64-66.944 132.64-149.216c0-59.040-30.704-110.016-75.024-134.192-17.488-9.52-36.976-15.008-57.632-15.008zM102.864 405.696h-74.144c-15.664 0-28.72 12.544-28.72 28.72 0 15.664 13.056 28.72 28.72 28.72h74.144v72.576c0 16.704 13.056 29.76 29.76 29.76 16.192 0 29.76-13.056 29.76-29.76v-72.576h74.144c15.664 0 28.72-13.056 28.72-28.72 0-16.192-13.056-28.72-28.72-28.72h-74.128v-72.576c0-16.704-13.568-29.76-29.76-29.76-16.704 0-29.76 13.056-29.76 29.76v72.576z" />
<glyph unicode="user" d="M42.096-64h939.824c12.56 0 24.256 5.12 32.112 14.048 6.832 7.744 9.84 17.568 8.544 27.664-22.048 171.696-127.616 314.768-272.144 391.056-61.104-61.088-145.44-98.928-238.432-98.928s-177.328 37.84-238.416 98.928c-144.544-76.256-250.128-219.36-272.16-391.056-1.296-10.096 1.744-19.936 8.544-27.664 7.872-8.928 19.568-14.048 32.128-14.048zM300.224 466.128c5.488-5.744 11.216-11.232 17.136-16.544 51.776-46.32 119.872-74.736 194.64-74.736s142.848 28.448 194.64 74.736c5.936 5.296 11.664 10.784 17.136 16.544 5.456 5.744 10.784 11.632 15.792 17.808 40.576 50.24 65.008 114.032 65.008 183.488 0 161.344-131.264 292.576-292.576 292.576s-292.576-131.264-292.576-292.576c0-69.456 24.432-133.248 65.008-183.488 4.992-6.176 10.304-12.032 15.792-17.808z" />
<glyph unicode="trip" d="M843.296 112.816c0 6.96-0.72 13.744-1.888 20.352v589.072c-12.784 2.288-25.872 3.68-39.296 3.68h-580.208c-6.256 0-12.368-0.432-18.496-0.928v-632.72c0.64-0.048 1.312-0.048 1.936-0.112 9.76-54.48 57.296-95.856 114.576-95.856 57.008 0 104.368 40.96 114.464 95.024h177.92c10.096-54.064 57.456-95.024 114.464-95.024 64.368 0 116.528 52.16 116.528 116.512zM669.824 91.328h113.872c-8.736-23.056-30.864-39.552-56.944-39.552s-48.192 16.496-56.928 39.552zM540.896 412.752c0 4.864 0.992 9.488 2.72 13.744 5.472 13.584 18.752 23.248 34.272 23.248h145.408c20.4 0 36.992-16.592 36.992-36.992v-3.088c0-20.4-16.592-36.992-36.992-36.992h-145.392c-20.4 0-36.992 16.592-36.992 36.992v3.088zM717.824 624.848c33.648 0 60.944-17.072 60.944-38.128s-27.296-38.128-60.944-38.128c-33.648 0-60.944 17.072-60.944 38.128s27.28 38.128 60.944 38.128zM336.336 624.848h212.656v-94.768h-212.656v94.768zM319.952 51.776c-26.080 0-48.208 16.512-56.944 39.552h113.872c-8.72-23.056-30.848-39.552-56.928-39.552zM395.872 201.088c-10.4-4.864-21.872-7.792-34.112-7.792-2.048 0-3.968 0.464-5.984 0.608-9.76 0.72-19.040 2.976-27.52 6.864-12.8 5.84-23.728 14.912-31.904 26.192-9.632 13.312-15.504 29.568-15.504 47.264 0 44.672 36.224 80.896 80.896 80.896s80.896-36.224 80.896-80.896c0.016-32.48-19.184-60.256-46.768-73.136zM522.976 404.128c2.816-28 26.192-49.936 54.928-49.936h46.784l74.208-68.496-65.616-71.088-154 142.144 43.696 47.376zM728.224 749.632h16.848c0 0 7.552 0 16.848 0s16.848 10.064 16.848 22.464v105.12c0 12.416-10.064 22.464-22.464 22.464h-474.72c-12.416 0-22.464-10.064-22.464-22.464v-105.12c0-12.416 7.552-22.464 16.848-22.464h16.832c0 0 7.552 0 16.848 0s16.848 10.064 16.848 22.464v37.728c0 12.416 10.064 22.464 22.464 22.464h339.888c12.416 0 22.464-10.064 22.464-22.464v-37.728c0.048-12.4 7.584-22.464 16.912-22.464zM0 313.232c0-96.592 61.808-178.528 147.936-209.024v608.832c-86.128-30.496-147.936-112.432-147.936-209.024v-190.784zM1024 313.232v190.784c0 88.592-52.048 164.832-127.136 200.416v-591.632c75.104 35.584 127.136 111.84 127.136 200.432z" />
<glyph unicode="station" d="M757.408-64v0c-16.272 20.72-58.288 77.648-98.512 157.728h0.768l-13.648 26.48c-22.992 49.664-44.336 93.68-58.384 155.488l-4.256 20c-1.024 5.328-2.128 10.56-2.912 15.872-12.4 70.24-21.152 118.224-27.296 181.392l-0.976 8.128c-7.84 82.928-11.424 132.208-13.072 176.752l-0.336 8.224c-0.384 18.976-0.672 32.192-0.768 38.048 2.464 2.128 4.848 4.752 6.384 7.648 2.224 4.016 10.704 8.864 10.704 8.864v13.984h-19.6v25.568c0 8.96-8.464 16.368-19.456 17.856v49.968h-7.936v-49.952c-11.088-1.456-19.504-8.912-19.504-17.856v-25.568h-19.696v-13.984c0 0 8.672-4.848 10.8-8.864 1.6-2.912 4.016-5.472 6.432-7.648-0.24-5.856-0.336-19.072-0.912-38.048l-0.384-8.224c-1.552-44.544-5.088-93.824-13.072-176.752l-0.768-8.128c-6.192-63.168-14.912-111.056-27.248-181.344-0.864-5.28-1.984-10.56-2.96-15.872l-4.352-19.952c-14.128-61.92-35.392-105.872-58.432-155.536l-13.456-26.48h0.624c-40.128-80.064-82.256-137.008-98.56-157.728zM484.528 307.6c9.488 71.504 15.728 120.928 19.408 185.36h16.128c3.872-64.432 9.872-113.856 19.504-185.36 0.48-3.92 1.12-7.888 1.744-11.856h-58.576c0.624 3.968 1.216 7.936 1.792 11.856zM474.464 246.992h75.184c10.416-51.84 23.968-85.728 38.576-126.784h-152.352c14.624 41.040 28.272 74.928 38.592 126.784zM345.344-64c8.672 12.592 24.256 37.232 42.208 72.368 26.96 37.040 73.392 61.824 124.512 61.824s99.968-30.592 124.512-61.824c17.808-35.2 33.504-59.744 42.16-72.368zM815.44 921.264l38.768 38.736c147.856-147.856 147.856-388.512 0-536.368l-38.736 38.688c126.528 126.528 126.528 332.448-0.032 458.944zM748.48 529.264l38.736-38.768c110.928 110.928 110.928 291.6 0 402.512l-38.736-38.688c89.6-89.632 89.6-235.376 0-325.056zM718.112 559.648c72.832 72.784 72.832 191.36-0.080 264.256l-38.688-38.736c51.584-51.536 51.584-135.328 0-186.832l38.768-38.688zM208.512 462.288c-126.528 126.576-126.496 332.496 0.048 458.976l-38.736 38.736c-147.904-147.856-147.904-388.512 0-536.368l38.688 38.656zM236.768 490.544l38.768 38.848c-89.6 89.552-89.6 235.376 0 324.96l-38.768 38.688c-110.928-110.912-110.928-291.536 0-402.496zM305.92 559.648l38.768 38.768c-51.504 51.504-51.504 135.328 0 186.832l-38.768 38.704c-72.832-72.96-72.832-191.52 0-264.304z" />
<glyph unicode="shield" d="M512.016 960l-451.616-240.912v-16.896c0-508.96 433.488-756.096 437.856-758.544l13.76-7.648 13.728 7.648c4.368 2.432 437.856 249.552 437.856 758.544v16.896l-451.584 240.912zM512.016 1.392c-70.384 44.928-386.592 269.76-395.008 683.936l395.008 210.704 395.008-210.656c-8.416-414.192-324.624-639.024-395.008-683.984zM145.776 668.688c15.152-370.272 278.608-575.664 366.24-633.952 87.632 58.288 351.088 263.632 366.24 633.92l-366.24 195.376-366.24-195.344zM509.728 188.416c-38.848 0-64.736 28.064-64.736 65.504 0 38.16 26.608 65.504 64.736 65.504 38.16 0 63.344-27.344 64.048-65.504-0.016-37.424-25.168-65.504-64.048-65.504zM550.752 355.392h-82.032l-16.608 326h114.464l-15.824-326z" />
<glyph unicode="settings" d="M883.264 562.944l-25.856 61.424c0 0 60.144 135.696 54.832 140.912l-79.632 77.76c-5.504 5.36-141.248-56.592-141.248-56.592l-62.608 25.28c0 0-55.312 137.552-62.896 137.552h-112.368c-7.824 0-59.008-137.84-59.008-137.84l-62.512-25.376c0 0-138.592 58.912-143.904 53.648l-79.488-77.84c-5.504-5.36 57.776-138.304 57.776-138.304l-25.856-61.328c0 0-140.496-54.112-140.496-61.424v-110.144c0-7.68 140.832-57.824 140.832-57.824l25.856-61.232c0 0-60.144-135.6-54.88-140.832l79.584-77.936c5.408-5.264 141.2 56.688 141.2 56.688l62.656-25.376c0 0 55.312-137.456 62.944-137.456h112.368c7.776 0 59.008 137.84 59.008 137.84l62.704 25.376c0 0 138.304-58.912 143.664-53.744l79.584 77.84c5.552 5.456-57.872 138.304-57.872 138.304l25.808 61.328c0 0 140.544 54.208 140.544 61.616v110.048c0.048 7.648-140.736 57.632-140.736 57.632zM676.192 448.016c0-88.56-73.664-160.656-164.16-160.656-90.4 0-164.16 72.096-164.16 160.656s73.76 160.56 164.16 160.56c90.544-0.048 164.16-72 164.16-160.56z" />
<glyph unicode="search" d="M32.896-31.056c21.216-21.248 49.424-32.944 79.472-32.944 30.032 0 58.272 11.696 79.504 32.928l107.088 107.088c7.28 7.28 11.008 17.12 10.24 27.024-0.784 9.968-6.048 19.216-14.48 25.344-39.296 28.64-73.744 63.072-102.368 102.368-6.752 9.264-16.928 14.576-27.936 14.576-9.088 0-17.76-3.68-24.416-10.336l-107.088-107.088c-43.84-43.824-43.84-115.136-0.016-158.96zM1023.968 514.016c0 245.92-200.064 445.984-445.984 445.984s-446-200.064-446-445.984 200.064-446 445.984-446 446 200.064 446 446zM890.112 514.016c0-172.112-140.016-312.128-312.128-312.128s-312.128 140.016-312.128 312.128c0 172.112 140.016 312.128 312.128 312.128s312.128-140.032 312.128-312.128z" />
<glyph unicode="rate" d="M637.232 298.656c1.664-6.992 2.768-14.064 2.768-21.312 0-22.672 0-20.016 0-42.672 0-94.272-143.28-170.672-320-170.672s-320 76.4-320 170.656c0 22.672 0 20.016 0 42.672 0 7.248 1.104 14.32 2.768 21.328 19.712-84.176 154.064-149.312 317.232-149.312s297.52 65.136 317.232 149.312zM320 21.344c-163.168 0-297.52 65.136-317.232 149.328-1.664-7.008-2.768-14.080-2.768-21.328 0-22.672 0-20.016 0-42.672 0-94.272 143.28-170.672 320-170.672s320 76.4 320 170.656c0 22.672 0 20.016 0 42.672 0 7.248-1.104 14.32-2.768 21.328-19.712-84.176-154.064-149.312-317.232-149.312zM320 533.328c-176.72 0-320-76.416-320-170.672s143.28-170.656 320-170.656 320 76.4 320 170.656c0 94.272-143.28 170.672-320 170.672zM704 192c-7.216 0-14.256 0.304-21.344 0.528 0-45.664 0-82.848 0-85.28 7.088-0.208 14.128-0.56 21.344-0.56 176.72 0 320 76.4 320 170.672 0 22.672 0 20 0 42.656 0 7.248-1.104 14.336-2.768 21.344-19.712-84.208-154.064-149.36-317.232-149.36zM704 618.672c176.736 0 320 76.4 320 170.672 0 94.256-143.264 170.656-320 170.656s-320-76.4-320-170.672c0-94.256 143.264-170.656 320-170.656zM704 576c-163.168 0-297.52 65.152-317.232 149.328-1.664-6.992-2.768-14.080-2.768-21.328 0-22.656 0-20 0-42.672 0-36.224 21.328-69.76 57.424-97.408 62.368-12.672 116.608-34.72 157.696-63.696 32.896-6.096 68.080-9.552 104.88-9.552 176.72 0 320 76.416 320 170.672 0 22.656 0 20 0 42.672 0 7.248-1.104 14.336-2.768 21.328-19.712-84.192-154.064-149.344-317.232-149.344zM704 448c-17.968 0-35.456 0.896-52.608 2.432 19.84-26.496 31.104-55.904 31.232-87.216 7.072-0.208 14.16-0.56 21.376-0.56 176.72 0 320 76.416 320 170.672 0 22.656 0 20 0 42.672 0 7.248-1.104 14.336-2.768 21.328-19.712-84.176-154.064-149.328-317.232-149.328zM704 320c-7.216 0-14.256 0.304-21.344 0.528 0-23.728 0-54.352 0-85.28 7.088-0.208 14.128-0.56 21.344-0.56 176.72 0 320 76.4 320 170.672 0 22.672 0 20 0 42.656 0 7.248-1.104 14.336-2.768 21.328-19.712-84.192-154.064-149.344-317.232-149.344z" />
<glyph unicode="phone" d="M750.928 345.6c-68.272-68.272-68.272-136.528-136.528-136.528s-136.528 68.272-204.8 136.528-136.528 136.528-136.528 204.8 68.272 68.272 136.528 136.528-136.528 273.072-204.8 273.072-204.8-204.8-204.8-204.8c0-136.528 140.272-413.328 273.072-546.128s409.6-273.072 546.128-273.072c0 0 204.8 136.528 204.8 204.8s-204.8 273.072-273.072 204.8z" />
<glyph unicode="pencil" d="M986.544 650.96l-45.248-45.28-271.552 271.536 45.248 45.28c50 50 131.056 50 181.056 0l90.496-90.528c49.936-49.968 49.936-131.008 0-181.008zM352.928 107.936c-12.496-12.496-12.496-32.752 0-45.248 12.496-12.56 32.752-12.56 45.248 0l497.872 497.744-45.312 45.28-497.808-497.776zM126.624 334.192c-12.496-12.496-12.496-32.752 0-45.248s32.752-12.496 45.248 0l497.872 497.776-45.248 45.248-497.872-497.776zM714.928 741.488l-497.808-497.792c-24.992-24.944-24.944-65.504 0-90.496 24.992-24.992 65.504-25.12 90.56 0.064l497.808 497.712-90.56 90.512zM307.552 17.568c-15.312 15.312-22.688 34.752-25.44 54.752-6.496-0.992-13.056-1.936-19.744-1.936-34.192 0-66.304 13.376-90.496 37.568-24.192 24.256-37.504 56.304-37.504 90.496 0 6.256 0.944 12.304 1.808 18.368-20.688 2.816-39.808 11.872-54.816 26.88-1.44 1.44-1.936 3.376-3.248 4.944l-78.112-312.64 311.808 78.064c-1.376 1.248-2.944 2.192-4.256 3.504z" />
<glyph unicode="paper-airplane" d="M41.376 558.656c-22.048-8.464-37.696-28.304-40.832-51.712-3.088-23.44 6.864-46.656 25.952-60.528l209.008-152.096 742.416 584.080-656.432-646.688 285.744-207.92c18.192-13.232 41.632-17.2 63.232-10.624 21.568 6.56 38.768 22.928 46.496 44.048l305.648 836.608c3.088 8.496 0.928 18-5.504 24.336s-15.936 8.336-24.4 5.088l-951.328-364.592zM185.904 243.792l1.776-9.696 40.56-221.792c3.024-16.48 14.032-30.304 29.36-36.96 15.328-6.64 33.008-5.216 47.040 3.824 56.496 36.448 130.304 84.8 128.304 87.632l-247.040 176.992z" />
<glyph unicode="notice" d="M512.016 960l-451.616-240.912v-16.896c0-508.96 433.488-756.096 437.856-758.544l13.76-7.648 13.728 7.648c4.368 2.432 437.856 249.552 437.856 758.544v16.896l-451.584 240.912zM512.016 1.392c-70.384 44.928-386.592 269.76-395.008 683.936l395.008 210.704 395.008-210.656c-8.416-414.192-324.624-639.024-395.008-683.984zM145.776 668.688c15.152-370.272 278.608-575.664 366.24-633.952 87.632 58.288 351.088 263.632 366.24 633.92l-366.24 195.376-366.24-195.344zM509.728 188.416c-38.848 0-64.736 28.064-64.736 65.504 0 38.16 26.608 65.504 64.736 65.504 38.16 0 63.344-27.344 64.048-65.504-0.016-37.424-25.168-65.504-64.048-65.504zM550.752 355.392h-82.032l-16.608 326h114.464l-15.824-326z" />
<glyph unicode="money" d="M637.232 298.656c1.664-6.992 2.768-14.064 2.768-21.312 0-22.672 0-20.016 0-42.672 0-94.272-143.28-170.672-320-170.672s-320 76.4-320 170.656c0 22.672 0 20.016 0 42.672 0 7.248 1.104 14.32 2.768 21.328 19.712-84.176 154.064-149.312 317.232-149.312s297.52 65.136 317.232 149.312zM320 21.344c-163.168 0-297.52 65.136-317.232 149.328-1.664-7.008-2.768-14.080-2.768-21.328 0-22.672 0-20.016 0-42.672 0-94.272 143.28-170.672 320-170.672s320 76.4 320 170.656c0 22.672 0 20.016 0 42.672 0 7.248-1.104 14.32-2.768 21.328-19.712-84.176-154.064-149.312-317.232-149.312zM320 533.328c-176.72 0-320-76.416-320-170.672s143.28-170.656 320-170.656 320 76.4 320 170.656c0 94.272-143.28 170.672-320 170.672zM704 192c-7.216 0-14.256 0.304-21.344 0.528 0-45.664 0-82.848 0-85.28 7.088-0.208 14.128-0.56 21.344-0.56 176.72 0 320 76.4 320 170.672 0 22.672 0 20 0 42.656 0 7.248-1.104 14.336-2.768 21.344-19.712-84.208-154.064-149.36-317.232-149.36zM704 618.672c176.736 0 320 76.4 320 170.672 0 94.256-143.264 170.656-320 170.656s-320-76.4-320-170.672c0-94.256 143.264-170.656 320-170.656zM704 576c-163.168 0-297.52 65.152-317.232 149.328-1.664-6.992-2.768-14.080-2.768-21.328 0-22.656 0-20 0-42.672 0-36.224 21.328-69.76 57.424-97.408 62.368-12.672 116.608-34.72 157.696-63.696 32.896-6.096 68.080-9.552 104.88-9.552 176.72 0 320 76.416 320 170.672 0 22.656 0 20 0 42.672 0 7.248-1.104 14.336-2.768 21.328-19.712-84.192-154.064-149.344-317.232-149.344zM704 448c-17.968 0-35.456 0.896-52.608 2.432 19.84-26.496 31.104-55.904 31.232-87.216 7.072-0.208 14.16-0.56 21.376-0.56 176.72 0 320 76.416 320 170.672 0 22.656 0 20 0 42.672 0 7.248-1.104 14.336-2.768 21.328-19.712-84.176-154.064-149.328-317.232-149.328zM704 320c-7.216 0-14.256 0.304-21.344 0.528 0-23.728 0-54.352 0-85.28 7.088-0.208 14.128-0.56 21.344-0.56 176.72 0 320 76.4 320 170.672 0 22.672 0 20 0 42.656 0 7.248-1.104 14.336-2.768 21.328-19.712-84.192-154.064-149.344-317.232-149.344z" />
<glyph unicode="marker" d="M512 960c-176.752 0-320-143.28-320-320 0-305.536 320-704 320-704s320 398.464 320 704c0 176.72-143.264 320-320 320zM512 463.36c-95.456 0-172.8 77.36-172.8 172.8s77.344 172.8 172.8 172.8c95.424 0 172.8-77.36 172.8-172.8s-77.376-172.8-172.8-172.8z" />
<glyph unicode="magnifier" d="M32.896-31.056c21.216-21.248 49.424-32.944 79.472-32.944 30.032 0 58.272 11.696 79.504 32.928l107.088 107.088c7.28 7.28 11.008 17.12 10.24 27.024-0.784 9.968-6.048 19.216-14.48 25.344-39.296 28.64-73.744 63.072-102.368 102.368-6.752 9.264-16.928 14.576-27.936 14.576-9.088 0-17.76-3.68-24.416-10.336l-107.088-107.088c-43.84-43.824-43.84-115.136-0.016-158.96zM1023.968 514.016c0 245.92-200.064 445.984-445.984 445.984s-446-200.064-446-445.984 200.064-446 445.984-446 446 200.064 446 446zM890.112 514.016c0-172.112-140.016-312.128-312.128-312.128s-312.128 140.016-312.128 312.128c0 172.112 140.016 312.128 312.128 312.128s312.128-140.032 312.128-312.128z" />
<glyph unicode="gear" d="M883.264 562.944l-25.856 61.424c0 0 60.144 135.696 54.832 140.912l-79.632 77.76c-5.504 5.36-141.248-56.592-141.248-56.592l-62.608 25.28c0 0-55.312 137.552-62.896 137.552h-112.368c-7.824 0-59.008-137.84-59.008-137.84l-62.512-25.376c0 0-138.592 58.912-143.904 53.648l-79.488-77.84c-5.504-5.36 57.776-138.304 57.776-138.304l-25.856-61.328c0 0-140.496-54.112-140.496-61.424v-110.144c0-7.68 140.832-57.824 140.832-57.824l25.856-61.232c0 0-60.144-135.6-54.88-140.832l79.584-77.936c5.408-5.264 141.2 56.688 141.2 56.688l62.656-25.376c0 0 55.312-137.456 62.944-137.456h112.368c7.776 0 59.008 137.84 59.008 137.84l62.704 25.376c0 0 138.304-58.912 143.664-53.744l79.584 77.84c5.552 5.456-57.872 138.304-57.872 138.304l25.808 61.328c0 0 140.544 54.208 140.544 61.616v110.048c0.048 7.648-140.736 57.632-140.736 57.632zM676.192 448.016c0-88.56-73.664-160.656-164.16-160.656-90.4 0-164.16 72.096-164.16 160.656s73.76 160.56 164.16 160.56c90.544-0.048 164.16-72 164.16-160.56z" />
<glyph unicode="email" d="M41.376 558.656c-22.048-8.464-37.696-28.304-40.832-51.712-3.088-23.44 6.864-46.656 25.952-60.528l209.008-152.096 742.416 584.080-656.432-646.688 285.744-207.92c18.192-13.232 41.632-17.2 63.232-10.624 21.568 6.56 38.768 22.928 46.496 44.048l305.648 836.608c3.088 8.496 0.928 18-5.504 24.336s-15.936 8.336-24.4 5.088l-951.328-364.592zM185.904 243.792l1.776-9.696 40.56-221.792c3.024-16.48 14.032-30.304 29.36-36.96 15.328-6.64 33.008-5.216 47.040 3.824 56.496 36.448 130.304 84.8 128.304 87.632l-247.040 176.992z" />
<glyph unicode="edit" d="M986.544 650.96l-45.248-45.28-271.552 271.536 45.248 45.28c50 50 131.056 50 181.056 0l90.496-90.528c49.936-49.968 49.936-131.008 0-181.008zM352.928 107.936c-12.496-12.496-12.496-32.752 0-45.248 12.496-12.56 32.752-12.56 45.248 0l497.872 497.744-45.312 45.28-497.808-497.776zM126.624 334.192c-12.496-12.496-12.496-32.752 0-45.248s32.752-12.496 45.248 0l497.872 497.776-45.248 45.248-497.872-497.776zM714.928 741.488l-497.808-497.792c-24.992-24.944-24.944-65.504 0-90.496 24.992-24.992 65.504-25.12 90.56 0.064l497.808 497.712-90.56 90.512zM307.552 17.568c-15.312 15.312-22.688 34.752-25.44 54.752-6.496-0.992-13.056-1.936-19.744-1.936-34.192 0-66.304 13.376-90.496 37.568-24.192 24.256-37.504 56.304-37.504 90.496 0 6.256 0.944 12.304 1.808 18.368-20.688 2.816-39.808 11.872-54.816 26.88-1.44 1.44-1.936 3.376-3.248 4.944l-78.112-312.64 311.808 78.064c-1.376 1.248-2.944 2.192-4.256 3.504z" />
<glyph unicode="dest-land" d="M1024 168.976h-1024l50.784 88.128 158.176 274.016c27.984 48.4 73.664 48.4 101.584 0 0 0 36.72-63.632 41.168-71.072 21.024 36.384 133.12 230.672 133.12 230.672 28.064 48.4 73.728 48.4 101.648 0l222.752-385.84c11.472 19.936 22.8 39.52 31.472 54.816 20.272 34.96 53.104 34.96 73.456 0 20.144-35.088 53.104-92.224 73.392-127.040l36.448-63.68z" />
<glyph unicode="dest-cruise" d="M555.76 924.992c0 18.64-20.448 35.008-43.76 35.008s-43.76-16.368-43.76-35.008v-140.016h87.504v140.016zM450.736 749.984h-102.416c-25.584 0-55.104-12-55.104-37.6v-183.84l220.048 98.992 14.24-6.528 185.744-81.744v173.12c0 25.584-12 37.6-37.6 37.6h-224.912zM361.376 207.424h311.376l197.696 220.592-356.992 161.2-350.496-162.032zM83.2 128.528c17.504 0 36.192-10.944 53.088-27.488 19.328-18.944 43.424-42.512 89.856-42.512s70.48 23.568 89.808 42.512c16.912 16.56 28.064 27.488 53.056 27.488 25.008 0 36.176-10.944 53.088-27.488 19.312-18.944 43.392-42.512 89.824-42.512s70.48 23.568 89.808 42.512c16.912 16.56 28.080 27.488 53.072 27.488 25.024 0 36.192-10.944 53.12-27.52 19.328-18.928 43.392-42.496 89.84-42.496s70.56 23.568 89.904 42.496c16.912 16.576 35.648 27.52 53.152 27.52v52.512c-52.512 0-70.56-23.552-89.888-42.496-16.928-16.56-28.144-27.504-53.168-27.504s-36.192 10.944-53.104 27.504c-13.648 13.376-29.84 28.88-54.432 36.944-10.24 3.36-21.776 5.552-35.44 5.552-17.568 0-31.904-3.376-44.032-8.608-19.92-8.576-33.76-22.128-45.792-33.904-16.912-16.56-28.064-27.488-53.072-27.488s-36.176 10.944-53.088 27.488c-12.016 11.776-25.888 25.328-45.808 33.904-12.112 5.216-26.464 8.608-44.032 8.608-9.888 0-18.576-1.248-26.608-3.12-29.68-6.896-48-24.48-63.216-39.392-16.896-16.56-28.080-27.488-53.072-27.488s-36.176 10.944-53.072 27.488c-19.296 18.944-37.296 42.512-89.808 42.512v-52.512zM83.2 6c17.504 0 36.192-10.944 53.088-27.488 19.328-18.944 43.424-42.512 89.856-42.512s70.48 23.568 89.808 42.512c16.912 16.56 28.064 27.488 53.056 27.488 25.008 0 36.176-10.944 53.088-27.488 19.312-18.944 43.392-42.512 89.824-42.512s70.48 23.568 89.808 42.512c16.912 16.56 28.080 27.488 53.072 27.488 25.024 0 36.192-10.944 53.12-27.52 19.296-18.928 43.36-42.48 89.808-42.48s70.56 23.568 89.904 42.496c16.912 16.576 35.648 27.52 53.152 27.52v52.512c-52.512 0-70.56-23.552-89.888-42.496-16.928-16.56-28.144-27.504-53.168-27.504s-36.192 10.944-53.104 27.504c-19.344 18.944-43.408 42.496-89.856 42.496-46.432 0-70.48-23.568-89.808-42.512-16.912-16.56-28.080-27.488-53.072-27.488-25.008 0-36.176 10.944-53.088 27.488-19.328 18.944-43.392 42.512-89.84 42.512-46.432 0-70.496-23.568-89.824-42.512-16.896-16.56-28.064-27.488-53.072-27.488-24.992 0-36.176 10.944-53.072 27.488-19.328 18.944-37.328 42.512-89.84 42.512v-52.528z" />
<glyph unicode="dest-air" d="M980.064 729.776c-8.896 5.408-75.808 46.176-75.808 46.176s48.368 138.304 44.144 157.472c-4.176 19.136-24.688 26.576-24.688 26.576l-81.488-150.4-83.728 36.4-0.496 54.928-25.568 22.752c0 0-7.488-62.704-18.128-77.888-10.576-15.168-52.464-43.584-52.464-43.584l22.064-22.368 57.12 30.768 70.416-48.768-87.488-146.352c0 0 17.632-21.728 34.992-12.272 17.328 9.472 102.24 118.592 102.24 118.592s82.432-46.096 91.184-48.096c8.752-2.048 30.4-13.52 41.376 12.72 10.928 26.208-4.784 37.936-13.68 43.344zM849.456 579.104c-12.384 14.864-26.256 28.352-40.784 41.088l-21.184-21.904c13.328-11.584 26.096-23.856 37.488-37.36-20.608-13.488-44.576-25.376-71.2-35.216-19.616 58.208-48.224 106.608-82.672 139.488 13.024-4.256 25.616-9.44 37.888-15.216l16.224 26.064c-48.272 23.184-102.32 36.24-159.36 36.24-0.208 0-0.384 0-0.512 0-0.112 0-0.24 0-0.352 0-0.416 0-0.832-0.048-1.264-0.048-112.992-0.656-214.096-52.368-281.408-133.12-6.208-7.456-12.096-15.184-17.712-23.12-42.688-60.208-67.856-133.6-67.856-212.848s25.168-152.64 67.856-212.848c5.6-7.936 11.488-15.68 17.712-23.12 67.344-80.752 168.416-132.448 281.408-133.104 0.448 0 0.848-0.048 1.264-0.048 0.112 0 0.24 0 0.352 0 0.16 0 0.336 0 0.512 0 113.872 0 215.84 51.84 283.6 133.152 6.192 7.456 12.080 15.216 17.712 23.152 42.688 60.208 67.84 133.616 67.84 212.848s-25.152 152.64-67.84 212.848c-5.632 7.888-11.472 15.632-17.712 23.072zM457.968 664.272c-33.936-32.72-62.112-80.576-81.536-138-26.048 9.728-49.488 21.424-69.664 34.688 39.632 47.024 91.712 83.248 151.2 103.312zM288.992 537.792c22.928-15.328 49.472-28.72 78.8-39.76-12.64-46.24-19.92-97.6-20.16-151.776h-120.528c0.688 71.264 23.584 137.184 61.888 191.536zM228.224 315.968h119.984c1.952-45.344 8.832-88.368 19.584-127.712-29.344-11.040-55.872-24.464-78.8-39.76-33.952 48.144-55.808 105.44-60.768 167.472zM306.864 125.392c20.176 13.216 43.552 24.88 69.536 34.592 19.456-57.424 47.632-105.248 81.584-137.968-59.504 20.048-111.504 56.336-151.12 103.376zM550.736 5.408c-62.128 8.528-115.776 72.256-146.208 164.032 43.84 13.168 93.504 21.104 146.208 22.416v-186.448zM550.736 222.112c-55.584-1.344-108.032-9.936-154.672-24.256-9.552 36.304-15.68 76.096-17.536 118.096h172.208v-93.84zM550.736 346.272h-172.816c0.256 50.864 6.88 98.912 18.272 142.112 46.592-14.272 98.976-22.88 154.528-24.208v-117.92h0.016zM550.736 494.448c-52.688 1.296-102.32 9.232-146.144 22.368 30.448 91.728 84.016 155.568 146.144 164.080v-186.448zM581.024 680.656c61.472-9.488 114.4-73.184 144.512-164.32-43.424-12.848-92.432-20.656-144.512-21.92v186.24zM581.024 464.16c54.912 1.312 106.688 9.728 152.928 23.712 11.28-43.056 17.888-90.96 18.128-141.616h-171.056v117.904zM581.024 315.968h170.448c-1.84-41.792-7.936-81.424-17.392-117.6-46.24 14.016-98.112 22.432-153.040 23.76v93.84zM581.024 5.616v186.224c52.080-1.264 101.152-9.072 144.592-21.936-30.128-91.152-83.12-154.768-144.592-164.288zM671.072 21.12c34.448 32.864 63.12 81.232 82.72 139.44 26.608-9.824 50.528-21.68 71.136-35.152-40.24-47.76-93.216-84.448-153.856-104.288zM842.768 148.464c-23.36 15.632-50.464 29.248-80.432 40.4 10.64 39.184 17.472 81.984 19.408 127.104h121.792c-4.96-62.032-26.816-119.328-60.768-167.504zM782.384 346.272c-0.304 53.936-7.488 105.056-20.064 151.152 29.968 11.168 57.056 24.768 80.4 40.352 38.288-54.336 61.216-120.272 61.872-191.52h-122.208zM86.88 352.016c0 269.952 219.6 489.6 489.6 489.6 27.952 0 55.184-2.752 81.824-7.296l31.008 19.088 10.192 33.904c-34.992 7.056-85.968 14.64-123.024 14.64-303.264 0-549.936-246.704-549.936-549.936 0-31.904 1.632-61.808 5.232-90.176 15.072-119.168 166.656-325.824 286.992-325.84-130.288 93.184-231.888 240.576-231.888 416.016z" />
<glyph unicode="delete" d="M507.952 241.104l-262.768-262.768c-55.52-55.52-146.176-57.376-203.552 0-55.504 55.52-55.52 148.032 0 203.552l262.768 262.768-257.216 257.2c-59.216 59.216-59.216 151.728 0 210.944 57.36 57.36 151.728 59.216 210.944 0l257.216-257.216 262.768 262.784c55.52 55.504 148.064 55.504 203.552-0.016 57.376-57.376 55.52-148.032 0-203.552l-262.768-262.752 257.216-257.216c59.2-59.2 57.376-153.584 0-210.944-59.2-59.2-151.744-59.2-210.944 0l-257.216 257.216z" />
<glyph unicode="company-add" d="M102.864 405.696h-74.144c-15.664 0-28.72 12.544-28.72 28.72 0 15.664 13.056 28.72 28.72 28.72h74.144v72.576c0 16.704 13.056 29.76 29.76 29.76 16.192 0 29.76-13.056 29.76-29.76v-72.576h74.144c15.664 0 28.72-13.056 28.72-28.72 0-16.192-13.056-28.72-28.72-28.72h-74.128v-72.576c0-16.704-13.568-29.76-29.76-29.76-16.704 0-29.76 13.056-29.76 29.76v72.576zM978.224 127.552v412h-320.448v274.672h-320.448v-686.672h-45.776v-45.776h732.448v45.776h-45.776zM383.12 768.448h91.552v-91.552h-91.552v91.552zM383.12 631.104h91.552v-91.552h-91.552v91.552zM383.12 493.776h91.552v-91.552h-91.552v91.552zM383.12 356.448h91.552v-91.552h-91.552v91.552zM566.224 127.552h-137.328v91.552h137.328v-91.552zM612 264.896h-91.552v91.552h91.552v-91.552zM612 402.224h-91.552v91.552h91.552v-91.552zM612 539.552h-91.552v91.552h91.552v-91.552zM612 676.896h-91.552v91.552h91.552v-91.552zM703.552 493.776h91.552v-91.552h-91.552v91.552zM703.552 356.448h91.552v-91.552h-91.552v91.552zM886.672 127.552h-137.328v91.552h137.328v-91.552zM932.448 264.896h-91.552v91.552h91.552v-91.552zM932.448 402.224h-91.552v91.552h91.552v-91.552z" />
<glyph unicode="company" d="M960 0v576h-448v384h-448v-960h-64v-64h1024v64h-64zM128 896h128v-128h-128v128zM128 704h128v-128h-128v128zM128 512h128v-128h-128v128zM128 320h128v-128h-128v128zM384 0h-192v128h192v-128zM448 192h-128v128h128v-128zM448 384h-128v128h128v-128zM448 576h-128v128h128v-128zM448 768h-128v128h128v-128zM576 512h128v-128h-128v128zM576 320h128v-128h-128v128zM832 0h-192v128h192v-128zM896 192h-128v128h128v-128zM896 384h-128v128h128v-128z" />
<glyph unicode="cart" d="M1017.696 746.64c-6.192 8.48-16.064 13.488-26.544 13.488h-739.264c-1.44 0-2.848-0.080-4.24-0.272l-30.416 87.696c-3.152 9.072-10.096 16.304-19.024 19.808l-153.328 60.24c-16.896 6.624-35.968-1.68-42.608-18.56-6.624-16.896 1.68-35.968 18.56-42.608l139.248-54.704 170.48-491.312c-7.52-2.608-13.904-8.384-16.8-16.464l-49.28-136.896c-3.024-8.384-1.776-17.728 3.36-25.008 5.136-7.296 13.472-11.632 22.4-11.632h25.312c-15.68-17.456-25.312-40.448-25.312-65.712 0-54.352 44.224-98.56 98.56-98.56s98.56 44.208 98.56 98.56c0 25.264-9.632 48.256-25.312 65.712h214.896c-15.68-17.456-25.312-40.448-25.312-65.712 0-54.352 44.208-98.56 98.56-98.56s98.56 44.208 98.56 98.56c0 25.264-9.632 48.256-25.312 65.712h30.784c15.12 0 27.376 12.256 27.376 27.376s-12.256 27.376-27.376 27.376h-525.040l30.528 84.784c3.936-1.648 8.208-2.64 12.656-2.64h481.888c14.288 0 26.928 9.232 31.28 22.832l136.896 427.12c3.2 9.984 1.44 20.896-4.736 29.376zM388.8 20.88c-24.16 0-43.808 19.648-43.808 43.808s19.648 43.808 43.808 43.808c24.16 0 43.808-19.648 43.808-43.808s-19.648-43.808-43.808-43.808zM750.208 20.88c-24.16 0-43.808 19.648-43.808 43.808s19.648 43.808 43.808 43.808c24.16 0 43.808-19.648 43.808-43.808s-19.648-43.808-43.808-43.808zM922.432 620.496h-167.664v73.92h191.344l-23.68-73.92zM874.16 469.904h-119.376v84.88h146.592l-27.216-84.88zM537.552 469.904v84.88h151.504v-84.88h-151.504zM689.072 404.192v-71.184h-151.504v71.184h151.504zM318.8 554.784h153.040v-84.88h-123.6l-29.44 84.88zM537.552 620.496v73.92h151.504v-73.92h-151.504zM471.84 694.416v-73.92h-175.84l-25.648 73.92h201.488zM371.056 404.192h100.784v-71.184h-76.096l-24.688 71.184zM754.768 333.008v71.184h98.32l-22.816-71.184h-75.504z" />
<glyph unicode="call" d="M750.928 345.6c-68.272-68.272-68.272-136.528-136.528-136.528s-136.528 68.272-204.8 136.528-136.528 136.528-136.528 204.8 68.272 68.272 136.528 136.528-136.528 273.072-204.8 273.072-204.8-204.8-204.8-204.8c0-136.528 140.272-413.328 273.072-546.128s409.6-273.072 546.128-273.072c0 0 204.8 136.528 204.8 204.8s-204.8 273.072-273.072 204.8z" />
<glyph unicode="calendar" d="M763.28 743.888c39.248 0 71.024 31.584 71.024 70.896v74.192c0 39.344-31.744 71.024-71.024 71.024s-70.992-31.648-70.992-71.024v-74.224c0-39.296 31.712-70.864 70.992-70.864zM1015.616 837.136h-142.976v-36.112c0-59.6-48.416-108.16-108.128-108.16-59.776 0-108.096 48.56-108.096 108.16v36.112h-288.512v-36.112c0-59.6-48.496-108.16-108.16-108.16s-108.128 48.528-108.128 108.16v36.112l-144.288 1.792v-902.928l1009.344 0.208-1.056 900.928zM944.576 7.904h-865.12v576.832h865.168v-576.832h-0.048zM258.608 743.888c39.248 0 71.072 31.584 71.072 70.896v74.192c-0.032 39.376-31.824 71.024-71.072 71.024s-70.96-31.648-70.96-71.024v-74.224c0-39.296 31.68-70.864 70.96-70.864zM368.112 507.344h113.616v-100.288h-113.616v100.288zM551.776 507.344h113.712v-100.288h-113.712v100.288zM722.176 507.344h113.616v-100.288h-113.616v100.288zM368.112 340.8h113.616v-100.224h-113.616v100.224zM551.776 340.8h113.712v-100.224h-113.712v100.224zM722.176 340.8h113.616v-100.224h-113.616v100.224zM368.112 170.96h113.616v-100.224h-113.616v100.224zM187.648 340.8h113.536v-100.224h-113.536v100.224zM187.648 170.96h113.536v-100.224h-113.536v100.224zM551.776 170.96h113.712v-100.224h-113.712v100.224zM722.176 170.96h113.616v-100.224h-113.616v100.224z" />
<glyph unicode="at" d="M533.6 562.448c-17.616 0-33.888-4.992-48.848-14.976-14.976-9.968-27.888-22.848-38.736-38.704-10.896-15.856-19.232-33.6-25.104-53.248-5.888-19.696-8.8-38.88-8.8-57.68 0-19.36 3.968-35.2 11.888-47.536 7.92-12.304 21.536-18.48 40.912-18.48 8.192 0 17.056 2.48 26.432 7.488 9.392 4.992 18.448 11.568 27.28 19.824 8.8 8.192 17.28 17.616 25.536 28.16 8.192 10.544 15.536 21.712 22.016 33.424l22.016 121.488c-7.664 6.48-15.6 11.456-23.792 14.976-8.224 3.52-18.512 5.264-30.8 5.264zM512.016 960c-282.768 0-512.016-229.232-512.016-511.984 0-282.768 229.232-512.016 512.016-512.016 282.8 0 511.984 229.232 511.984 512.016 0 282.752-229.168 511.984-511.984 511.984zM839.488 318.608c-23.2-24.064-50.192-43.136-80.976-57.216-30.8-14.080-63.856-21.136-99.040-21.136-14.72 0-28.32 1.6-40.944 4.832s-23.2 8.656-31.68 16.288c-8.512 7.648-14.832 17.616-18.944 29.936s-5.28 27.584-3.488 45.76h-3.52c-8.768-12.304-18.352-24.336-28.624-36.080-10.24-11.744-21.536-22.144-33.888-31.248-12.304-9.12-25.824-16.288-40.448-21.568-14.72-5.28-30.832-7.92-48.432-7.92-14.080 0-27.584 3.088-40.512 9.232-12.88 6.176-24.048 14.832-33.424 25.968-9.392 11.136-16.88 24.656-22.416 40.512-5.632 15.84-8.4 33.424-8.4 52.816 0 36.384 5.888 71.728 17.616 106.064 11.744 34.336 27.744 64.704 47.984 91.104 20.256 26.416 43.76 47.648 70.448 63.824 26.704 16.112 55.008 24.192 84.928 24.192 20.544 0 37.856-3.088 51.936-9.232 14.080-6.176 26.992-14.224 38.736-24.224l27.28 28.192h61.616l-42.224-238.56c-4.688-27.584-4.832-47.536-0.464-59.872 4.432-12.304 14.224-18.48 29.504-18.48 15.232 0 30.256 3.52 44.912 10.576 14.624 7.024 27.824 17.856 39.6 32.56 11.68 14.656 21.28 33.136 28.592 55.44 7.344 22.32 10.976 48.736 10.976 79.248 0 44-7.344 81.584-22.016 112.688s-34.768 56.784-60.272 77.008c-25.536 20.256-55.616 35.072-90.24 44.448-34.624 9.392-71.904 14.096-111.808 14.096-45.76 0-88.32-8.224-127.632-24.624-39.328-16.48-73.504-39.056-102.56-67.792-29.024-28.768-51.76-62.96-68.224-102.56-16.384-39.6-24.624-82.592-24.624-128.944 0-45.776 6.912-86.848 20.672-123.232 13.824-36.432 33.92-67.36 60.336-92.896 26.384-25.536 59.104-45.168 98.16-58.96 38.992-13.792 83.728-20.704 134.208-20.704 17.024 0 36.384 2.048 58.128 6.144 21.68 4.096 41.344 10.272 58.96 18.512l27.28-84.528c-24.048-11.744-48.56-19.936-73.504-24.624s-53.536-7.088-85.84-7.088c-56.912 0-109.6 8.256-157.968 24.656-48.432 16.448-90.416 40.8-125.92 73.056-35.504 32.288-63.248 72.352-83.184 120.144-19.968 47.824-29.904 103.152-29.904 165.92 0 63.968 11.424 121.792 34.304 173.44 22.88 51.616 53.744 95.632 92.448 132.032 38.736 36.4 83.632 64.384 134.656 84.096 51.088 19.616 105.072 29.472 161.984 29.472 53.968 0 104.16-7.776 150.512-23.328 46.368-15.568 86.56-37.856 120.608-66.88 34.032-29.056 60.736-64.592 80.096-106.528 19.392-41.984 29.088-89.648 29.088-143.056 0-37.568-6.608-72.784-19.824-105.648-13.28-32.8-31.456-61.28-54.624-85.328z" />
<glyph unicode="airplane" d="M1014.176 948.976c-33.152 33.152-145.696-25.616-178.848-58.784l-132.784-132.8h-604.016c-14.352 0-26.688-10.208-29.376-24.304s5.024-28.128 18.384-33.392l399.44-157.856-244.96-244.928h-231.648c-4.976-0.016-9.248-3.536-10.176-8.432s1.744-9.744 6.384-11.584l194.928-77.040c1.136-4.896 2.704-9.696 4.704-14.368l-8.528-8.528c-12.144-12.144-12.144-31.824 0-43.984 12.144-12.144 31.84-12.144 43.984 0l8.32 8.32c4.72-2.080 9.568-3.728 14.528-4.912l75.136-192.576c1.808-4.64 6.672-7.328 11.568-6.416 2.112 0.384 3.984 1.424 5.408 2.864 1.904 1.888 3.040 4.48 3.040 7.328v226.768l248.816 248.816 156.368-400.752c5.232-13.376 19.248-21.168 33.392-18.528 6.096 1.152 11.472 4.112 15.616 8.24 5.456 5.472 8.768 12.992 8.768 21.168v604l132.8 132.8c33.152 33.168 91.92 145.712 58.752 178.88z" />
</font>
</defs>
</svg>
