<?xml version="1.0" standalone="no"?> <!DOCTYPE svg PUBLIC "-//W3C//DTD SVG 1.0//EN" "http://www.w3.org/TR/2001/REC-SVG-20010904/DTD/svg10.dtd" > <svg xmlns="http://www.w3.org/2000/svg" width="100%" height="100%">
<defs >
<font id="ds-digii" horiz-adv-x="476" ><font-face
    font-family="DS-Digital"
    units-per-em="1100"
    panose-1="0 0 0 0 0 0 0 0 0 0"
    ascent="900"
    descent="-200"
    alphabetic="0" />
<missing-glyph horiz-adv-x="550" d="M34 0V900H516V0H34ZM482 34V866H68V34H482Z" />
<glyph unicode=" " glyph-name="space" horiz-adv-x="260" />
<glyph unicode="!" glyph-name="exclam" horiz-adv-x="287" d="M208 307L182 14L114 89L131 289L182 336L208 307ZM142 411L161 625L242 700L215 392L185 364L142 411ZM180 -14H105L98 -89H173L180 -14Z" />
<glyph unicode="&quot;" glyph-name="quotedbl" horiz-adv-x="306" d="M185 569L144 532L110 569L121 700H196L185 569ZM297 569L256 532L222 569L233 700H308L297 569Z" />
<glyph unicode="#" glyph-name="numbersign" horiz-adv-x="558" d="M246 315L205 278L171 315L177 385L218 422L252 385L246 315ZM339 263L299 226H252L218 263L258 300H305L339 263ZM190 263L149 226H70L36 263L76 300H155L190 263ZM226 96L186 58L151 96L162
212L203 249L237 212L226 96ZM395 315L354 278L321 315L327 385L367 422L401 385L398 350L395 315ZM521 263L481 226H401L367 263L407 300H487L521 263ZM375 96L335 58L301 96L312 212L352 249L386 212L375 96ZM261 487L220 450L186 487L196 604L237 642L271 604L261
487ZM354 436L314 399H267L233 436L273 473H320L354 436ZM205 436L164 399H85L51 436L91 473H170L205 436ZM410 487L369 450L336 487L346 604L386 642L420 604L410 487ZM536 436L496 399H416L382 436L422 473H502L536 436Z" />
<glyph unicode="$" glyph-name="dollar" horiz-adv-x="539" d="M537 663L497 625H203L169 663L209 700H503L537 663ZM487 89L446 51L413 89L430 289L481 336L506 307L487 89ZM171 411L120 364L94 392L113 611L154 649L188 611L171 411ZM97 0L63 37L104 75H398L431
37L391 0H97ZM434 387L469 350L427 313H166L133 350L173 387H434ZM303 812L343 849L378 812L370 718H295L303 812ZM230 -18H305L297 -112L256 -149L222 -112L230 -18Z" />
<glyph unicode="%" glyph-name="percent" horiz-adv-x="665" d="M324 670L283 632H203L170 670L210 707H290L324 670ZM302 427L262 390H182L148 427L189 465H269L302 427ZM102 479L136 443L177 479L189 618L154 656L114 618L102 479ZM283 479L295 618L336 656L370
618L358 479L318 443L283 479ZM578 280L538 242H459L424 280L466 317H545L578 280ZM557 37L517 0H438L403 37L445 75H524L557 37ZM357 89L391 53L432 89L444 228L409 266L369 228L357 89ZM539 89L551 228L591 266L625 228L613 89L573 53L539 89ZM381 320L172 4L153
106L310 340L374 358L381 320ZM379 446L534 680L640 707L429 393L390 382L379 446Z" />
<glyph unicode="&amp;" glyph-name="ampersand" horiz-adv-x="539" d="M486 663L446 625H203L169 663L209 700H452L486 663ZM513 392L484 364L441 411L447 480L487 518L521 480L513 392ZM487 89L446 51L413 89L430 289L481 336L506 307L487 89ZM469 350L427 313H166L133
350L173 387H434L469 350ZM171 411L120 364L94 392L113 611L154 649L188 611L171 411ZM431 37L391 0H148L114 37L155 75H398L431 37ZM143 89L101 51L68 89L87 307L117 336L160 289L143 89ZM530 313L496 350L537 387L571 350L530 313Z" />
<glyph unicode="&apos;" glyph-name="quotesingle" horiz-adv-x="194" d="M185 569L144 532L110 569L121 700H196L185 569Z" />
<glyph unicode="(" glyph-name="parenleft" horiz-adv-x="353" d="M354 700L273 625H203L169 663L209 700H354ZM171 411L120 364L94 392L113 611L154 649L188 611L171 411ZM143 89L101 51L68 89L87 307L117 336L160 289L143 89ZM293 0H148L114 37L155 75H225L293 0Z" />
<glyph unicode=")" glyph-name="parenright" horiz-adv-x="353" d="M301 89L259 51L226 89L243 289L294 336L320 307L301 89ZM327 392L297 364L254 411L271 611L312 649L346 611L327 392ZM299 663L259 625H190L121 700H265L299 663ZM244 37L204 0H60L142 75H211L244 37Z" />
<glyph unicode="*" glyph-name="asterisk" horiz-adv-x="435" d="M123 558L113 609L166 623L212 595L247 529H172L123 558ZM360 413L412 426L403 479L354 511H279L313 444L360 413ZM287 373L246 336L213 373L218 430L261 499L292 433L287 373ZM307 604L264 537L233
604L238 663L278 700L312 663L307 604ZM147 413L97 426L116 478L170 507H245L198 439L147 413ZM355 531H280L326 597L379 623L428 609L410 558L355 531Z" />
<glyph unicode="+" glyph-name="plus" horiz-adv-x="455" d="M300 401L260 364L225 401L232 480L273 518L307 480L300 401ZM426 350L385 313H306L272 350L313 387H392L426 350ZM245 350L203 313H124L91 350L131 387H210L245 350ZM284 219L244 182L209 219L216
299L257 336L291 299L284 219Z" />
<glyph unicode="," glyph-name="comma" horiz-adv-x="194" d="M128 -79L87 -116L53 -79L67 75H142L128 -79Z" />
<glyph unicode="-" glyph-name="hyphen" horiz-adv-x="455" d="M392 387L426 350L385 313H124L91 350L131 387H392Z" />
<glyph unicode="." glyph-name="period" horiz-adv-x="194" d="M60 0L67 75H142L135 0H60Z" />
<glyph unicode="/" glyph-name="slash" horiz-adv-x="506" d="M274 320L64 4L45 106L202 340L266 358L274 320ZM271 446L426 680L532 707L321 393L282 382L271 446Z" />
<glyph unicode="0" glyph-name="zero" horiz-adv-x="539" d="M513 392L484 364L441 411L458 611L539 686L513 392ZM526 700L446 625H203L135 700H526ZM171 411L120 364L94 392L120 686L188 611L171 411ZM480 14L413 89L430 289L481 336L506 307L480 14ZM465 0H74L155
75H398L465 0ZM143 89L61 14L87 307L117 336L160 289L143 89Z" />
<glyph unicode="1" glyph-name="one" horiz-adv-x="287" d="M208 307L182 14L114 89L131 289L182 336L208 307ZM142 411L159 611L241 686L215 392L185 364L142 411Z" />
<glyph unicode="2" glyph-name="two" horiz-adv-x="539" d="M526 700L446 625H203L135 700H526ZM465 0H74L155 75H398L465 0ZM160 289L143 89L61 14L87 307L117 336L160 289ZM441 411L458 611L539 686L513 392L484 364L441 411ZM434 387L469 350L427 313H166L133
350L173 387H434Z" />
<glyph unicode="3" glyph-name="three" horiz-adv-x="539" d="M526 700L446 625H203L135 700H526ZM465 0H74L155 75H398L465 0ZM506 307L480 14L413 89L430 289L481 336L506 307ZM441 411L458 611L539 686L513 392L484 364L441 411ZM434 387L469 350L427 313H166L133
350L173 387H434Z" />
<glyph unicode="4" glyph-name="four" horiz-adv-x="539" d="M94 392L120 686L188 611L171 411L120 364L94 392ZM506 307L480 14L413 89L430 289L481 336L506 307ZM441 411L458 611L539 686L513 392L484 364L441 411ZM434 387L469 350L427 313H166L133 350L173 387H434Z" />
<glyph unicode="5" glyph-name="five" horiz-adv-x="539" d="M526 700L446 625H203L135 700H526ZM465 0H74L155 75H398L465 0ZM94 392L120 686L188 611L171 411L120 364L94 392ZM506 307L480 14L413 89L430 289L481 336L506 307ZM434 387L469 350L427 313H166L133
350L173 387H434Z" />
<glyph unicode="6" glyph-name="six" horiz-adv-x="539" d="M526 700L446 625H203L135 700H526ZM465 0H74L155 75H398L465 0ZM160 289L143 89L61 14L87 307L117 336L160 289ZM94 392L120 686L188 611L171 411L120 364L94 392ZM506 307L480 14L413 89L430 289L481
336L506 307ZM434 387L469 350L427 313H166L133 350L173 387H434Z" />
<glyph unicode="7" glyph-name="seven" horiz-adv-x="539" d="M526 700L446 625H203L135 700H526ZM506 307L480 14L413 89L430 289L481 336L506 307ZM441 411L458 611L539 686L513 392L484 364L441 411Z" />
<glyph unicode="8" glyph-name="eight" horiz-adv-x="539" d="M526 700L446 625H203L135 700H526ZM465 0H74L155 75H398L465 0ZM160 289L143 89L61 14L87 307L117 336L160 289ZM94 392L120 686L188 611L171 411L120 364L94 392ZM506 307L480 14L413 89L430 289L481
336L506 307ZM441 411L458 611L539 686L513 392L484 364L441 411ZM434 387L469 350L427 313H166L133 350L173 387H434Z" />
<glyph unicode="9" glyph-name="nine" horiz-adv-x="539" d="M526 700L446 625H203L135 700H526ZM465 0H74L155 75H398L465 0ZM94 392L120 686L188 611L171 411L120 364L94 392ZM506 307L480 14L413 89L430 289L481 336L506 307ZM441 411L458 611L539 686L513
392L484 364L441 411ZM434 387L469 350L427 313H166L133 350L173 387H434Z" />
<glyph unicode=":" glyph-name="colon" horiz-adv-x="241" d="M83 0L90 75H165L158 0H83ZM127 508L134 583H209L202 508H127Z" />
<glyph unicode=";" glyph-name="semicolon" horiz-adv-x="241" d="M151 -79L111 -116L76 -79L90 75H165L151 -79ZM127 508L134 583H209L202 508H127Z" />
<glyph unicode="&lt;" glyph-name="less" horiz-adv-x="396" d="M383 531L196 360H91L335 584H388L383 531ZM347 116H294L90 339H195L352 168L347 116Z" />
<glyph unicode="=" glyph-name="equal" horiz-adv-x="455" d="M398 462L432 425L392 387H131L97 425L137 462H398ZM385 313L419 275L379 238H118L84 275L124 313H385Z" />
<glyph unicode="&gt;" glyph-name="greater" horiz-adv-x="396" d="M368 354H262L106 526L111 579H164L368 354ZM366 334L123 110H70L74 163L260 334H366Z" />
<glyph unicode="?" glyph-name="question" horiz-adv-x="539" d="M513 392L484 364L441 411L458 611L499 649L532 611L513 392ZM486 663L446 625H190L121 700H452L486 663ZM143 89L61 14L87 307L117 336L160 289L143 89ZM434 387L469 350L427 313H166L133 350L173
387H434ZM134 -14H59L52 -89H127L134 -14Z" />
<glyph unicode="@" glyph-name="at" horiz-adv-x="632" d="M618 513L587 485L545 532L551 611L633 686L618 513ZM619 700L539 625H203L169 663L209 700H619ZM572 471L531 434H270L236 471L276 508H537L572 471ZM587 163L519 238L534 411L585 457L611 429L587 163ZM171
411L120 364L94 392L113 611L154 649L188 611L171 411ZM571 149H254L220 187L261 224H504L571 149ZM249 238L208 201L174 238L191 429L221 457L264 411L249 238ZM87 307L117 336L160 289L143 89L101 51L68 89L87 307ZM148 0L114 37L155 75H543L576 37L536 0H148Z"
/>
<glyph unicode="A" glyph-name="A" horiz-adv-x="539" d="M526 700L446 625H203L135 700H526ZM160 289L142 75L60 0L87 307L117 336L160 289ZM94 392L120 686L188 611L171 411L120 364L94 392ZM506 307L479 0L412 75L430 289L481 336L506 307ZM441 411L458 611L539
686L513 392L484 364L441 411ZM434 387L469 350L427 313H166L133 350L173 387H434Z" />
<glyph unicode="B" glyph-name="B" horiz-adv-x="539" d="M487 89L446 51L413 89L430 289L481 336L506 307L487 89ZM513 392L484 364L441 411L458 611L499 649L532 611L513 392ZM486 663L446 625H203L135 700H452L486 663ZM431 37L391 0H74L155 75H398L431 37ZM171
411L120 364L94 392L120 686L188 611L171 411ZM143 89L61 14L87 307L117 336L160 289L143 89ZM434 387L469 350L427 313H166L133 350L173 387H434Z" />
<glyph unicode="C" glyph-name="C" horiz-adv-x="539" d="M540 700L460 625H203L169 663L209 700H540ZM171 411L120 364L94 392L113 611L154 649L188 611L171 411ZM479 0H148L114 37L155 75H412L479 0ZM143 89L101 51L68 89L87 307L117 336L160 289L143 89Z" />
<glyph unicode="D" glyph-name="D" horiz-adv-x="539" d="M487 89L446 51L413 89L430 289L481 336L506 307L487 89ZM513 392L484 364L441 411L458 611L499 649L532 611L513 392ZM486 663L446 625H203L135 700H452L486 663ZM431 37L391 0H74L155 75H398L431 37ZM171
411L120 364L94 392L120 686L188 611L171 411ZM143 89L61 14L87 307L117 336L160 289L143 89Z" />
<glyph unicode="E" glyph-name="E" horiz-adv-x="539" d="M540 700L460 625H203L135 700H540ZM479 0H74L155 75H412L479 0ZM160 289L143 89L61 14L87 307L117 336L160 289ZM94 392L120 686L188 611L171 411L120 364L94 392ZM434 387L469 350L427 313H166L133 350L173
387H434Z" />
<glyph unicode="F" glyph-name="F" horiz-adv-x="539" d="M540 700L460 625H203L135 700H540ZM160 289L143 89L61 14L87 307L117 336L160 289ZM94 392L120 686L188 611L171 411L120 364L94 392ZM434 387L469 350L427 313H166L133 350L173 387H434Z" />
<glyph unicode="G" glyph-name="G" horiz-adv-x="539" d="M526 700L446 625H203L169 663L209 700H526ZM469 350L427 313H343L310 350L350 387H434L469 350ZM171 411L120 364L94 392L113 611L154 649L188 611L171 411ZM143 89L101 51L68 89L87 307L117 336L160
289L143 89ZM391 0L431 37L398 75H155L114 37L148 0H391ZM487 89L446 51L413 89L430 289L481 336L506 307L487 89Z" />
<glyph unicode="H" glyph-name="H" horiz-adv-x="539" d="M160 289L142 75L60 0L87 307L117 336L160 289ZM94 392L121 700L190 625L171 411L120 364L94 392ZM506 307L479 0L412 75L430 289L481 336L506 307ZM441 411L460 625L540 700L513 392L484 364L441 411ZM434
387L469 350L427 313H166L133 350L173 387H434Z" />
<glyph unicode="I" glyph-name="I" horiz-adv-x="287" d="M215 392L185 364L142 411L164 663L204 700L239 663L215 392ZM184 37L143 0L109 37L131 289L182 336L208 307L184 37Z" />
<glyph unicode="J" glyph-name="J" horiz-adv-x="539" d="M465 0H74L155 75H398L465 0ZM152 196L143 89L61 14L79 215L109 242L152 196ZM506 307L480 14L413 89L430 289L481 336L506 307ZM441 411L460 625L540 700L513 392L484 364L441 411Z" />
<glyph unicode="K" glyph-name="K" horiz-adv-x="539" d="M160 289L142 75L60 0L87 307L117 336L160 289ZM94 392L121 700L190 625L171 411L120 364L94 392ZM506 307L479 0L412 75L430 289L481 336L506 307ZM452 697H505L500 644L242 409H189L193 462L452 697ZM434
387L469 350L427 313H166L133 350L173 387H434Z" />
<glyph unicode="L" glyph-name="L" horiz-adv-x="539" d="M479 0H74L155 75H412L479 0ZM160 289L143 89L61 14L87 307L117 336L160 289ZM94 392L121 700L190 625L171 411L120 364L94 392Z" />
<glyph unicode="M" glyph-name="M" horiz-adv-x="539" d="M526 700L446 625H203L135 700H526ZM160 289L142 75L60 0L87 307L117 336L160 289ZM94 392L120 686L188 611L171 411L120 364L94 392ZM506 307L479 0L412 75L430 289L481 336L506 307ZM441 411L458 611L539
686L513 392L484 364L441 411ZM282 569L322 606L357 569L342 402L301 364L267 402L282 569Z" />
<glyph unicode="N" glyph-name="N" horiz-adv-x="539" d="M160 289L142 75L60 0L87 307L117 336L160 289ZM94 392L121 700L190 625L171 411L120 364L94 392ZM506 307L479 0L412 75L430 289L481 336L506 307ZM441 411L460 625L540 700L513 392L484 364L441 411ZM202
571L207 625H260L426 443L421 390H368L202 571Z" />
<glyph unicode="O" glyph-name="O" horiz-adv-x="539" d="M513 392L484 364L441 411L458 611L499 649L532 611L513 392ZM486 663L446 625H203L169 663L209 700H452L486 663ZM487 89L446 51L413 89L430 289L481 336L506 307L487 89ZM171 411L120 364L94 392L113
611L154 649L188 611L171 411ZM68 89L101 51L143 89L160 289L117 336L87 307L68 89ZM148 0L114 37L155 75H398L431 37L391 0H148Z" />
<glyph unicode="P" glyph-name="P" horiz-adv-x="539" d="M513 392L484 364L441 411L458 611L499 649L532 611L513 392ZM486 663L446 625H203L135 700H452L486 663ZM171 411L120 364L94 392L120 686L188 611L171 411ZM142 75L60 0L87 307L117 336L160 289L142
75ZM434 387L469 350L427 313H166L133 350L173 387H434Z" />
<glyph unicode="Q" glyph-name="Q" horiz-adv-x="539" d="M513 392L484 364L441 411L458 611L499 649L532 611L513 392ZM486 663L446 625H203L169 663L209 700H452L486 663ZM493 155L452 118L419 155L430 289L481 336L506 307L493 155ZM171 411L120 364L94 392L113
611L154 649L188 611L171 411ZM68 89L101 51L143 89L160 289L117 336L87 307L68 89ZM148 0L114 37L155 75H331L364 37L324 0H148ZM346 89L350 142H403L484 53L479 0H426L346 89Z" />
<glyph unicode="R" glyph-name="R" horiz-adv-x="539" d="M513 392L484 364L441 411L458 611L499 649L532 611L513 392ZM486 663L446 625H203L135 700H452L486 663ZM171 411L120 364L94 392L120 686L188 611L171 411ZM142 75L60 0L87 307L117 336L160 289L142
75ZM207 241L212 294H265L484 53L479 0H426L207 241ZM434 387L469 350L427 313H166L133 350L173 387H434Z" />
<glyph unicode="S" glyph-name="S" horiz-adv-x="539" d="M537 663L497 625H203L169 663L209 700H503L537 663ZM487 89L446 51L413 89L430 289L481 336L506 307L487 89ZM171 411L120 364L94 392L113 611L154 649L188 611L171 411ZM97 0L63 37L104 75H398L431 37L391
0H97ZM434 387L469 350L427 313H166L133 350L173 387H434Z" />
<glyph unicode="T" glyph-name="T" horiz-adv-x="539" d="M540 700L460 625H190L121 700H540ZM310 37L269 0L235 37L254 252L305 299L331 271L310 37ZM338 354L308 327L265 373L282 574L322 611L357 574L338 354Z" />
<glyph unicode="U" glyph-name="U" horiz-adv-x="539" d="M487 89L446 51L413 89L430 289L481 336L506 307L487 89ZM68 89L101 51L143 89L160 289L117 336L87 307L68 89ZM148 0L114 37L155 75H398L431 37L391 0H148ZM94 392L121 700L190 625L171 411L120 364L94
392ZM441 411L460 625L540 700L513 392L484 364L441 411Z" />
<glyph unicode="V" glyph-name="V" horiz-adv-x="539" d="M513 392L484 364L441 411L460 625L540 700L513 392ZM471 282L204 37H151L156 90L422 336L481 337L471 282ZM171 411L120 364L94 392L121 700L190 625L171 411ZM63 37L97 0L138 37L160 289L117 336L87 307L63 37Z" />
<glyph unicode="W" glyph-name="W" horiz-adv-x="539" d="M513 392L484 364L441 411L460 625L540 700L513 392ZM171 411L120 364L94 392L121 700L190 625L171 411ZM480 14L413 89L430 289L481 336L506 307L480 14ZM318 130L277 93L243 130L258 298L298 336L333
298L318 130ZM465 0H74L155 75H398L465 0ZM143 89L61 14L87 307L117 336L160 289L143 89Z" />
<glyph unicode="X" glyph-name="X" horiz-adv-x="539" d="M316 364L323 446L497 700H540L534 627L354 364H316ZM250 364L115 627L121 700H164L294 446L287 364H250ZM284 336L277 254L103 0H60L66 73L247 336H284ZM350 336L485 73L479 0H436L306 254L313 336H350Z" />
<glyph unicode="Y" glyph-name="Y" horiz-adv-x="539" d="M513 392L484 364L441 411L460 625L540 700L513 392ZM94 392L120 364L171 411L190 625L121 700L94 392ZM148 0L114 37L155 75H398L431 37L391 0H148ZM487 89L446 51L413 89L430 289L481 336L506 307L487
89ZM434 387L469 350L427 313H166L133 350L173 387H434Z" />
<glyph unicode="Z" glyph-name="Z" horiz-adv-x="539" d="M537 663L497 625H190L121 700H503L537 663ZM465 0H97L63 37L104 75H398L465 0ZM366 369L300 361V401L480 606H532L527 551L366 369ZM240 336L281 340L284 274L123 93H68L73 145L240 336Z" />
<glyph unicode="[" glyph-name="bracketleft" horiz-adv-x="353" d="M354 700L273 625H203L135 700H354ZM293 0H74L155 75H225L293 0ZM160 289L143 89L61 14L87 307L117 336L160 289ZM94 392L120 686L188 611L171 411L120 364L94 392Z" />
<glyph unicode="\" glyph-name="backslash" horiz-adv-x="506" d="M313 446L289 382L252 393L98 707L197 680L313 446ZM479 106L442 4L289 320L301 358L364 340L479 106Z" />
<glyph unicode="]" glyph-name="bracketright" horiz-adv-x="353" d="M340 700L259 625H190L121 700H340ZM327 392L297 364L254 411L271 611L353 686L327 392ZM294 14L226 89L243 289L294 336L320 307L294 14ZM279 0H60L142 75H211L279 0Z" />
<glyph unicode="^" glyph-name="asciicircum" horiz-adv-x="492" d="M421 469L306 594L315 700L478 523L473 469H421ZM101 472L106 525L295 700L286 594L153 472H101Z" />
<glyph unicode="_" glyph-name="underscore" horiz-adv-x="445" d="M371 -112L406 -149L365 -187H48L14 -149L54 -112H371Z" />
<glyph unicode="`" glyph-name="grave" horiz-adv-x="249" d="M241 594L223 543L174 557L119 670L186 707L241 594Z" />
<glyph unicode="a" glyph-name="a" horiz-adv-x="539" d="M526 700L446 625H203L135 700H526ZM160 289L142 75L60 0L87 307L117 336L160 289ZM94 392L120 686L188 611L171 411L120 364L94 392ZM506 307L479 0L412 75L430 289L481 336L506 307ZM441 411L458 611L539
686L513 392L484 364L441 411ZM434 387L469 350L427 313H166L133 350L173 387H434Z" />
<glyph unicode="b" glyph-name="b" horiz-adv-x="539" d="M487 89L446 51L413 89L430 289L481 336L506 307L487 89ZM513 392L484 364L441 411L458 611L499 649L532 611L513 392ZM486 663L446 625H203L135 700H452L486 663ZM431 37L391 0H74L155 75H398L431 37ZM171
411L120 364L94 392L120 686L188 611L171 411ZM143 89L61 14L87 307L117 336L160 289L143 89ZM434 387L469 350L427 313H166L133 350L173 387H434Z" />
<glyph unicode="c" glyph-name="c" horiz-adv-x="539" d="M540 700L460 625H203L169 663L209 700H540ZM171 411L120 364L94 392L113 611L154 649L188 611L171 411ZM479 0H148L114 37L155 75H412L479 0ZM143 89L101 51L68 89L87 307L117 336L160 289L143 89Z" />
<glyph unicode="d" glyph-name="d" horiz-adv-x="539" d="M487 89L446 51L413 89L430 289L481 336L506 307L487 89ZM513 392L484 364L441 411L458 611L499 649L532 611L513 392ZM486 663L446 625H203L135 700H452L486 663ZM431 37L391 0H74L155 75H398L431 37ZM171
411L120 364L94 392L120 686L188 611L171 411ZM143 89L61 14L87 307L117 336L160 289L143 89Z" />
<glyph unicode="e" glyph-name="e" horiz-adv-x="539" d="M540 700L460 625H203L135 700H540ZM479 0H74L155 75H412L479 0ZM160 289L143 89L61 14L87 307L117 336L160 289ZM94 392L120 686L188 611L171 411L120 364L94 392ZM434 387L469 350L427 313H166L133 350L173
387H434Z" />
<glyph unicode="f" glyph-name="f" horiz-adv-x="539" d="M540 700L460 625H203L135 700H540ZM160 289L143 89L61 14L87 307L117 336L160 289ZM94 392L120 686L188 611L171 411L120 364L94 392ZM434 387L469 350L427 313H166L133 350L173 387H434Z" />
<glyph unicode="g" glyph-name="g" horiz-adv-x="539" d="M526 700L446 625H203L169 663L209 700H526ZM469 350L427 313H343L310 350L350 387H434L469 350ZM171 411L120 364L94 392L113 611L154 649L188 611L171 411ZM143 89L101 51L68 89L87 307L117 336L160
289L143 89ZM391 0L431 37L398 75H155L114 37L148 0H391ZM487 89L446 51L413 89L430 289L481 336L506 307L487 89Z" />
<glyph unicode="h" glyph-name="h" horiz-adv-x="539" d="M160 289L142 75L60 0L87 307L117 336L160 289ZM94 392L121 700L190 625L171 411L120 364L94 392ZM506 307L479 0L412 75L430 289L481 336L506 307ZM441 411L460 625L540 700L513 392L484 364L441 411ZM434
387L469 350L427 313H166L133 350L173 387H434Z" />
<glyph unicode="i" glyph-name="i" horiz-adv-x="287" d="M215 392L185 364L142 411L164 663L204 700L239 663L215 392ZM184 37L143 0L109 37L131 289L182 336L208 307L184 37Z" />
<glyph unicode="j" glyph-name="j" horiz-adv-x="539" d="M465 0H74L155 75H398L465 0ZM152 196L143 89L61 14L79 215L109 242L152 196ZM506 307L480 14L413 89L430 289L481 336L506 307ZM441 411L460 625L540 700L513 392L484 364L441 411Z" />
<glyph unicode="k" glyph-name="k" horiz-adv-x="539" d="M160 289L142 75L60 0L87 307L117 336L160 289ZM94 392L121 700L190 625L171 411L120 364L94 392ZM506 307L479 0L412 75L430 289L481 336L506 307ZM452 697H505L500 644L242 409H189L193 462L452 697ZM434
387L469 350L427 313H166L133 350L173 387H434Z" />
<glyph unicode="l" glyph-name="l" horiz-adv-x="539" d="M479 0H74L155 75H412L479 0ZM160 289L143 89L61 14L87 307L117 336L160 289ZM94 392L121 700L190 625L171 411L120 364L94 392Z" />
<glyph unicode="m" glyph-name="m" horiz-adv-x="539" d="M526 700L446 625H203L135 700H526ZM160 289L142 75L60 0L87 307L117 336L160 289ZM94 392L120 686L188 611L171 411L120 364L94 392ZM506 307L479 0L412 75L430 289L481 336L506 307ZM441 411L458 611L539
686L513 392L484 364L441 411ZM282 569L322 606L357 569L342 402L301 364L267 402L282 569Z" />
<glyph unicode="n" glyph-name="n" horiz-adv-x="539" d="M160 289L142 75L60 0L87 307L117 336L160 289ZM94 392L121 700L190 625L171 411L120 364L94 392ZM506 307L479 0L412 75L430 289L481 336L506 307ZM441 411L460 625L540 700L513 392L484 364L441 411ZM202
571L207 625H260L426 443L421 390H368L202 571Z" />
<glyph unicode="o" glyph-name="o" horiz-adv-x="539" d="M513 392L484 364L441 411L458 611L499 649L532 611L513 392ZM486 663L446 625H203L169 663L209 700H452L486 663ZM487 89L446 51L413 89L430 289L481 336L506 307L487 89ZM171 411L120 364L94 392L113
611L154 649L188 611L171 411ZM68 89L101 51L143 89L160 289L117 336L87 307L68 89ZM148 0L114 37L155 75H398L431 37L391 0H148Z" />
<glyph unicode="p" glyph-name="p" horiz-adv-x="539" d="M513 392L484 364L441 411L458 611L499 649L532 611L513 392ZM486 663L446 625H203L135 700H452L486 663ZM171 411L120 364L94 392L120 686L188 611L171 411ZM142 75L60 0L87 307L117 336L160 289L142
75ZM434 387L469 350L427 313H166L133 350L173 387H434Z" />
<glyph unicode="q" glyph-name="q" horiz-adv-x="539" d="M513 392L484 364L441 411L458 611L499 649L532 611L513 392ZM486 663L446 625H203L169 663L209 700H452L486 663ZM493 155L452 118L419 155L430 289L481 336L506 307L493 155ZM171 411L120 364L94 392L113
611L154 649L188 611L171 411ZM68 89L101 51L143 89L160 289L117 336L87 307L68 89ZM148 0L114 37L155 75H331L364 37L324 0H148ZM346 89L350 142H403L484 53L479 0H426L346 89Z" />
<glyph unicode="r" glyph-name="r" horiz-adv-x="539" d="M513 392L484 364L441 411L458 611L499 649L532 611L513 392ZM486 663L446 625H203L135 700H452L486 663ZM171 411L120 364L94 392L120 686L188 611L171 411ZM142 75L60 0L87 307L117 336L160 289L142
75ZM207 241L212 294H265L484 53L479 0H426L207 241ZM434 387L469 350L427 313H166L133 350L173 387H434Z" />
<glyph unicode="s" glyph-name="s" horiz-adv-x="539" d="M537 663L497 625H203L169 663L209 700H503L537 663ZM487 89L446 51L413 89L430 289L481 336L506 307L487 89ZM171 411L120 364L94 392L113 611L154 649L188 611L171 411ZM97 0L63 37L104 75H398L431 37L391
0H97ZM434 387L469 350L427 313H166L133 350L173 387H434Z" />
<glyph unicode="t" glyph-name="t" horiz-adv-x="539" d="M540 700L460 625H190L121 700H540ZM310 37L269 0L235 37L254 252L305 299L331 271L310 37ZM338 354L308 327L265 373L282 574L322 611L357 574L338 354Z" />
<glyph unicode="u" glyph-name="u" horiz-adv-x="539" d="M487 89L446 51L413 89L430 289L481 336L506 307L487 89ZM68 89L101 51L143 89L160 289L117 336L87 307L68 89ZM148 0L114 37L155 75H398L431 37L391 0H148ZM94 392L121 700L190 625L171 411L120 364L94
392ZM441 411L460 625L540 700L513 392L484 364L441 411Z" />
<glyph unicode="v" glyph-name="v" horiz-adv-x="539" d="M513 392L484 364L441 411L460 625L540 700L513 392ZM471 282L204 37H151L156 90L422 336L481 337L471 282ZM171 411L120 364L94 392L121 700L190 625L171 411ZM63 37L97 0L138 37L160 289L117 336L87 307L63 37Z" />
<glyph unicode="w" glyph-name="w" horiz-adv-x="539" d="M513 392L484 364L441 411L460 625L540 700L513 392ZM171 411L120 364L94 392L121 700L190 625L171 411ZM480 14L413 89L430 289L481 336L506 307L480 14ZM318 130L277 93L243 130L258 298L298 336L333
298L318 130ZM465 0H74L155 75H398L465 0ZM143 89L61 14L87 307L117 336L160 289L143 89Z" />
<glyph unicode="x" glyph-name="x" horiz-adv-x="539" d="M316 364L323 446L497 700H540L534 627L354 364H316ZM250 364L115 627L121 700H164L294 446L287 364H250ZM284 336L277 254L103 0H60L66 73L247 336H284ZM350 336L485 73L479 0H436L306 254L313 336H350Z" />
<glyph unicode="y" glyph-name="y" horiz-adv-x="539" d="M513 392L484 364L441 411L460 625L540 700L513 392ZM94 392L120 364L171 411L190 625L121 700L94 392ZM148 0L114 37L155 75H398L431 37L391 0H148ZM487 89L446 51L413 89L430 289L481 336L506 307L487
89ZM434 387L469 350L427 313H166L133 350L173 387H434Z" />
<glyph unicode="z" glyph-name="z" horiz-adv-x="539" d="M537 663L497 625H190L121 700H503L537 663ZM465 0H97L63 37L104 75H398L465 0ZM366 369L300 361V401L480 606H532L527 551L366 369ZM240 336L281 340L284 274L123 93H68L73 145L240 336Z" />
<glyph unicode="{" glyph-name="braceleft" horiz-adv-x="418" d="M419 700L339 625H292L258 663L298 700H419ZM257 392L227 364L184 411L201 611L243 649L276 611L257 392ZM212 350L170 313H101L67 350L108 387H177L212 350ZM231 89L190 51L156 89L173 289L224
336L250 307L231 89ZM358 0H237L203 37L244 75H291L358 0Z" />
<glyph unicode="|" glyph-name="bar" horiz-adv-x="274" d="M85 -187L162 700H235L158 -187H85Z" />
<glyph unicode="}" glyph-name="braceright" horiz-adv-x="418" d="M276 663L236 625H190L121 700H242L276 663ZM305 411L255 364L229 392L248 611L289 649L322 611L305 411ZM277 89L236 51L203 89L222 307L252 336L294 289L277 89ZM412 350L371 313H301L268 350L308
387H378L412 350ZM221 37L181 0H60L142 75H188L221 37Z" />
<glyph unicode="~" glyph-name="asciitilde" horiz-adv-x="492" d="M83 260L91 355Q114 378 136 388T184 399Q223 399 286 371Q324 354 357 354Q385 354 411 368T468 413L459 314Q442 294 413 283T347 271Q312 271 279 281Q271 284 234 302Q208 315 188 315Q167
315 143 303T83 260Z" />
</font>
</defs>
</svg>
